<mxfile host="Electron" modified="2024-05-01T21:38:12.189Z" agent="Mozilla/5.0 (Windows NT 10.0; Win64; x64) AppleWebKit/537.36 (KHTML, like Gecko) draw.io/24.2.5 Chrome/120.0.6099.109 Electron/28.1.0 Safari/537.36" etag="ZRy1Shxn1ZpMjBu92nUu" version="24.2.5" type="device" pages="4">
  <diagram name="Дружит С" id="t1aFxxaYVWaiZkpkrYtn">
    <mxGraphModel dx="2206" dy="1286" grid="1" gridSize="10" guides="1" tooltips="1" connect="1" arrows="1" fold="1" page="1" pageScale="1" pageWidth="827" pageHeight="1169" math="0" shadow="0">
      <root>
        <mxCell id="0" />
        <mxCell id="1" parent="0" />
        <mxCell id="rCrvyMO-_q0wt2D4Nwb6-62" value="" style="group;movable=0;resizable=0;rotatable=0;deletable=0;editable=0;locked=1;connectable=0;" vertex="1" connectable="0" parent="1">
          <mxGeometry x="20" y="20" width="710" height="940" as="geometry" />
        </mxCell>
        <mxCell id="5BZwUSSOYSfOxqoJ1sX4-1" value="" style="group" vertex="1" connectable="0" parent="rCrvyMO-_q0wt2D4Nwb6-62">
          <mxGeometry x="120" width="80" height="80" as="geometry" />
        </mxCell>
        <mxCell id="5BZwUSSOYSfOxqoJ1sX4-2" value="Мария&lt;div&gt;Смирнова&lt;/div&gt;" style="ellipse;whiteSpace=wrap;html=1;aspect=fixed;container=0;" vertex="1" parent="5BZwUSSOYSfOxqoJ1sX4-1">
          <mxGeometry width="80" height="80" as="geometry" />
        </mxCell>
        <mxCell id="5BZwUSSOYSfOxqoJ1sX4-3" value="2" style="ellipse;whiteSpace=wrap;html=1;aspect=fixed;" vertex="1" parent="5BZwUSSOYSfOxqoJ1sX4-1">
          <mxGeometry x="30" width="20" height="20" as="geometry" />
        </mxCell>
        <mxCell id="5BZwUSSOYSfOxqoJ1sX4-4" value="" style="group" vertex="1" connectable="0" parent="rCrvyMO-_q0wt2D4Nwb6-62">
          <mxGeometry width="80" height="80" as="geometry" />
        </mxCell>
        <mxCell id="5BZwUSSOYSfOxqoJ1sX4-5" value="Иван&lt;div&gt;Иванов&lt;/div&gt;" style="ellipse;whiteSpace=wrap;html=1;aspect=fixed;container=1;movable=1;resizable=1;rotatable=1;deletable=1;editable=1;locked=0;connectable=1;" vertex="1" parent="5BZwUSSOYSfOxqoJ1sX4-4">
          <mxGeometry width="80" height="80" as="geometry">
            <mxRectangle x="200" y="310" width="80" height="40" as="alternateBounds" />
          </mxGeometry>
        </mxCell>
        <mxCell id="5BZwUSSOYSfOxqoJ1sX4-6" value="1" style="ellipse;whiteSpace=wrap;html=1;aspect=fixed;" vertex="1" parent="5BZwUSSOYSfOxqoJ1sX4-4">
          <mxGeometry x="30" width="20" height="20" as="geometry" />
        </mxCell>
        <mxCell id="5BZwUSSOYSfOxqoJ1sX4-7" value="" style="group" vertex="1" connectable="0" parent="rCrvyMO-_q0wt2D4Nwb6-62">
          <mxGeometry y="140" width="80" height="80" as="geometry" />
        </mxCell>
        <mxCell id="5BZwUSSOYSfOxqoJ1sX4-8" value="Екатерина Попова" style="ellipse;whiteSpace=wrap;html=1;aspect=fixed;container=0;" vertex="1" parent="5BZwUSSOYSfOxqoJ1sX4-7">
          <mxGeometry width="80" height="80" as="geometry" />
        </mxCell>
        <mxCell id="5BZwUSSOYSfOxqoJ1sX4-9" value="4" style="ellipse;whiteSpace=wrap;html=1;aspect=fixed;" vertex="1" parent="5BZwUSSOYSfOxqoJ1sX4-7">
          <mxGeometry x="30" width="20" height="20" as="geometry" />
        </mxCell>
        <mxCell id="5BZwUSSOYSfOxqoJ1sX4-10" value="" style="group" vertex="1" connectable="0" parent="rCrvyMO-_q0wt2D4Nwb6-62">
          <mxGeometry x="260" width="80" height="80" as="geometry" />
        </mxCell>
        <mxCell id="5BZwUSSOYSfOxqoJ1sX4-11" value="Александр Кузнецов" style="ellipse;whiteSpace=wrap;html=1;aspect=fixed;container=0;" vertex="1" parent="5BZwUSSOYSfOxqoJ1sX4-10">
          <mxGeometry width="80" height="80" as="geometry" />
        </mxCell>
        <mxCell id="5BZwUSSOYSfOxqoJ1sX4-12" value="3" style="ellipse;whiteSpace=wrap;html=1;aspect=fixed;" vertex="1" parent="5BZwUSSOYSfOxqoJ1sX4-10">
          <mxGeometry x="30" width="20" height="20" as="geometry" />
        </mxCell>
        <mxCell id="5BZwUSSOYSfOxqoJ1sX4-13" value="" style="group" vertex="1" connectable="0" parent="rCrvyMO-_q0wt2D4Nwb6-62">
          <mxGeometry y="260" width="80" height="80" as="geometry" />
        </mxCell>
        <mxCell id="5BZwUSSOYSfOxqoJ1sX4-14" value="Сергей Соколов" style="ellipse;whiteSpace=wrap;html=1;aspect=fixed;container=0;" vertex="1" parent="5BZwUSSOYSfOxqoJ1sX4-13">
          <mxGeometry width="80" height="80" as="geometry" />
        </mxCell>
        <mxCell id="5BZwUSSOYSfOxqoJ1sX4-15" value="7" style="ellipse;whiteSpace=wrap;html=1;aspect=fixed;" vertex="1" parent="5BZwUSSOYSfOxqoJ1sX4-13">
          <mxGeometry x="30" width="20" height="20" as="geometry" />
        </mxCell>
        <mxCell id="5BZwUSSOYSfOxqoJ1sX4-16" value="П" style="group" vertex="1" connectable="0" parent="rCrvyMO-_q0wt2D4Nwb6-62">
          <mxGeometry x="121" y="140" width="80" height="80" as="geometry" />
        </mxCell>
        <mxCell id="5BZwUSSOYSfOxqoJ1sX4-17" value="Максим Васильев" style="ellipse;whiteSpace=wrap;html=1;aspect=fixed;container=0;" vertex="1" parent="5BZwUSSOYSfOxqoJ1sX4-16">
          <mxGeometry width="80" height="80" as="geometry" />
        </mxCell>
        <mxCell id="5BZwUSSOYSfOxqoJ1sX4-18" value="5" style="ellipse;whiteSpace=wrap;html=1;aspect=fixed;" vertex="1" parent="5BZwUSSOYSfOxqoJ1sX4-16">
          <mxGeometry x="30" width="20" height="20" as="geometry" />
        </mxCell>
        <mxCell id="5BZwUSSOYSfOxqoJ1sX4-19" value="" style="group" vertex="1" connectable="0" parent="rCrvyMO-_q0wt2D4Nwb6-62">
          <mxGeometry x="260" y="140" width="80" height="80" as="geometry" />
        </mxCell>
        <mxCell id="5BZwUSSOYSfOxqoJ1sX4-20" value="Анна&lt;div&gt;Петрова&lt;br&gt;&lt;/div&gt;" style="ellipse;whiteSpace=wrap;html=1;aspect=fixed;container=0;" vertex="1" parent="5BZwUSSOYSfOxqoJ1sX4-19">
          <mxGeometry width="80" height="80" as="geometry" />
        </mxCell>
        <mxCell id="5BZwUSSOYSfOxqoJ1sX4-21" value="6" style="ellipse;whiteSpace=wrap;html=1;aspect=fixed;" vertex="1" parent="5BZwUSSOYSfOxqoJ1sX4-19">
          <mxGeometry x="30" width="20" height="20" as="geometry" />
        </mxCell>
        <mxCell id="4udN8GL-L_HQCWTWzwoZ-1" value="" style="group" vertex="1" connectable="0" parent="rCrvyMO-_q0wt2D4Nwb6-62">
          <mxGeometry x="260" y="260" width="80" height="80" as="geometry" />
        </mxCell>
        <mxCell id="4udN8GL-L_HQCWTWzwoZ-2" value="Дмитрий Новиков" style="ellipse;whiteSpace=wrap;html=1;aspect=fixed;container=0;" vertex="1" parent="4udN8GL-L_HQCWTWzwoZ-1">
          <mxGeometry width="80" height="80" as="geometry" />
        </mxCell>
        <mxCell id="4udN8GL-L_HQCWTWzwoZ-3" value="9" style="ellipse;whiteSpace=wrap;html=1;aspect=fixed;" vertex="1" parent="4udN8GL-L_HQCWTWzwoZ-1">
          <mxGeometry x="30" width="20" height="20" as="geometry" />
        </mxCell>
        <mxCell id="4udN8GL-L_HQCWTWzwoZ-4" value="" style="group" vertex="1" connectable="0" parent="rCrvyMO-_q0wt2D4Nwb6-62">
          <mxGeometry x="380" y="260" width="80" height="80" as="geometry" />
        </mxCell>
        <mxCell id="4udN8GL-L_HQCWTWzwoZ-5" value="Елена Морозова" style="ellipse;whiteSpace=wrap;html=1;aspect=fixed;container=0;" vertex="1" parent="4udN8GL-L_HQCWTWzwoZ-4">
          <mxGeometry width="80" height="80" as="geometry" />
        </mxCell>
        <mxCell id="4udN8GL-L_HQCWTWzwoZ-6" value="10" style="ellipse;whiteSpace=wrap;html=1;aspect=fixed;" vertex="1" parent="4udN8GL-L_HQCWTWzwoZ-4">
          <mxGeometry x="30" width="20" height="20" as="geometry" />
        </mxCell>
        <mxCell id="4udN8GL-L_HQCWTWzwoZ-7" value="" style="group" vertex="1" connectable="0" parent="rCrvyMO-_q0wt2D4Nwb6-62">
          <mxGeometry x="120" y="260" width="80" height="80" as="geometry" />
        </mxCell>
        <mxCell id="4udN8GL-L_HQCWTWzwoZ-8" value="Ольга Михайлова" style="ellipse;whiteSpace=wrap;html=1;aspect=fixed;container=0;" vertex="1" parent="4udN8GL-L_HQCWTWzwoZ-7">
          <mxGeometry width="80" height="80" as="geometry" />
        </mxCell>
        <mxCell id="4udN8GL-L_HQCWTWzwoZ-9" value="8" style="ellipse;whiteSpace=wrap;html=1;aspect=fixed;" vertex="1" parent="4udN8GL-L_HQCWTWzwoZ-7">
          <mxGeometry x="30" width="20" height="20" as="geometry" />
        </mxCell>
        <mxCell id="4udN8GL-L_HQCWTWzwoZ-10" value="" style="group" vertex="1" connectable="0" parent="rCrvyMO-_q0wt2D4Nwb6-62">
          <mxGeometry x="380" y="740" width="80" height="80" as="geometry" />
        </mxCell>
        <mxCell id="4udN8GL-L_HQCWTWzwoZ-11" value="Алексей Иванов" style="ellipse;whiteSpace=wrap;html=1;aspect=fixed;container=0;" vertex="1" parent="4udN8GL-L_HQCWTWzwoZ-10">
          <mxGeometry width="80" height="80" as="geometry" />
        </mxCell>
        <mxCell id="4udN8GL-L_HQCWTWzwoZ-12" value="11" style="ellipse;whiteSpace=wrap;html=1;aspect=fixed;" vertex="1" parent="4udN8GL-L_HQCWTWzwoZ-10">
          <mxGeometry x="30" width="20" height="20" as="geometry" />
        </mxCell>
        <mxCell id="4udN8GL-L_HQCWTWzwoZ-13" value="" style="group" vertex="1" connectable="0" parent="rCrvyMO-_q0wt2D4Nwb6-62">
          <mxGeometry x="260" y="740" width="80" height="80" as="geometry" />
        </mxCell>
        <mxCell id="4udN8GL-L_HQCWTWzwoZ-14" value="Наталья Смирнова" style="ellipse;whiteSpace=wrap;html=1;aspect=fixed;container=0;" vertex="1" parent="4udN8GL-L_HQCWTWzwoZ-13">
          <mxGeometry width="80" height="80" as="geometry" />
        </mxCell>
        <mxCell id="4udN8GL-L_HQCWTWzwoZ-15" value="12" style="ellipse;whiteSpace=wrap;html=1;aspect=fixed;" vertex="1" parent="4udN8GL-L_HQCWTWzwoZ-13">
          <mxGeometry x="30" width="20" height="20" as="geometry" />
        </mxCell>
        <mxCell id="4udN8GL-L_HQCWTWzwoZ-16" value="" style="group" vertex="1" connectable="0" parent="rCrvyMO-_q0wt2D4Nwb6-62">
          <mxGeometry x="10" y="860" width="80" height="80" as="geometry" />
        </mxCell>
        <mxCell id="4udN8GL-L_HQCWTWzwoZ-17" value="Игорь Кузнецов" style="ellipse;whiteSpace=wrap;html=1;aspect=fixed;container=0;" vertex="1" parent="4udN8GL-L_HQCWTWzwoZ-16">
          <mxGeometry width="80" height="80" as="geometry" />
        </mxCell>
        <mxCell id="4udN8GL-L_HQCWTWzwoZ-18" value="13" style="ellipse;whiteSpace=wrap;html=1;aspect=fixed;" vertex="1" parent="4udN8GL-L_HQCWTWzwoZ-16">
          <mxGeometry x="30" width="20" height="20" as="geometry" />
        </mxCell>
        <mxCell id="4udN8GL-L_HQCWTWzwoZ-19" value="" style="group" vertex="1" connectable="0" parent="rCrvyMO-_q0wt2D4Nwb6-62">
          <mxGeometry x="380" y="860" width="80" height="80" as="geometry" />
        </mxCell>
        <mxCell id="4udN8GL-L_HQCWTWzwoZ-20" value="Анна&lt;div&gt;Попова&lt;/div&gt;" style="ellipse;whiteSpace=wrap;html=1;aspect=fixed;container=0;" vertex="1" parent="4udN8GL-L_HQCWTWzwoZ-19">
          <mxGeometry width="80" height="80" as="geometry" />
        </mxCell>
        <mxCell id="4udN8GL-L_HQCWTWzwoZ-21" value="14" style="ellipse;whiteSpace=wrap;html=1;aspect=fixed;" vertex="1" parent="4udN8GL-L_HQCWTWzwoZ-19">
          <mxGeometry x="30" width="20" height="20" as="geometry" />
        </mxCell>
        <mxCell id="4udN8GL-L_HQCWTWzwoZ-22" value="" style="group" vertex="1" connectable="0" parent="rCrvyMO-_q0wt2D4Nwb6-62">
          <mxGeometry x="130" y="740" width="80" height="80" as="geometry" />
        </mxCell>
        <mxCell id="4udN8GL-L_HQCWTWzwoZ-23" value="Александр Васильев" style="ellipse;whiteSpace=wrap;html=1;aspect=fixed;container=0;" vertex="1" parent="4udN8GL-L_HQCWTWzwoZ-22">
          <mxGeometry width="80" height="80" as="geometry" />
        </mxCell>
        <mxCell id="4udN8GL-L_HQCWTWzwoZ-24" value="15" style="ellipse;whiteSpace=wrap;html=1;aspect=fixed;" vertex="1" parent="4udN8GL-L_HQCWTWzwoZ-22">
          <mxGeometry x="30" width="20" height="20" as="geometry" />
        </mxCell>
        <mxCell id="s0a9IcQEDq-eL0me1gnV-1" value="" style="group" vertex="1" connectable="0" parent="rCrvyMO-_q0wt2D4Nwb6-62">
          <mxGeometry x="130" y="860" width="80" height="80" as="geometry" />
        </mxCell>
        <mxCell id="s0a9IcQEDq-eL0me1gnV-2" value="Екатерина Петрова" style="ellipse;whiteSpace=wrap;html=1;aspect=fixed;container=0;" vertex="1" parent="s0a9IcQEDq-eL0me1gnV-1">
          <mxGeometry width="80" height="80" as="geometry" />
        </mxCell>
        <mxCell id="s0a9IcQEDq-eL0me1gnV-3" value="16" style="ellipse;whiteSpace=wrap;html=1;aspect=fixed;" vertex="1" parent="s0a9IcQEDq-eL0me1gnV-1">
          <mxGeometry x="30" width="20" height="20" as="geometry" />
        </mxCell>
        <mxCell id="s0a9IcQEDq-eL0me1gnV-4" value="" style="group" vertex="1" connectable="0" parent="rCrvyMO-_q0wt2D4Nwb6-62">
          <mxGeometry x="501" y="860" width="80" height="80" as="geometry" />
        </mxCell>
        <mxCell id="s0a9IcQEDq-eL0me1gnV-5" value="Иван Соколов" style="ellipse;whiteSpace=wrap;html=1;aspect=fixed;container=0;" vertex="1" parent="s0a9IcQEDq-eL0me1gnV-4">
          <mxGeometry width="80" height="80" as="geometry" />
        </mxCell>
        <mxCell id="s0a9IcQEDq-eL0me1gnV-6" value="17" style="ellipse;whiteSpace=wrap;html=1;aspect=fixed;" vertex="1" parent="s0a9IcQEDq-eL0me1gnV-4">
          <mxGeometry x="30" width="20" height="20" as="geometry" />
        </mxCell>
        <mxCell id="s0a9IcQEDq-eL0me1gnV-7" value="" style="group" vertex="1" connectable="0" parent="rCrvyMO-_q0wt2D4Nwb6-62">
          <mxGeometry x="501" y="740" width="80" height="80" as="geometry" />
        </mxCell>
        <mxCell id="s0a9IcQEDq-eL0me1gnV-8" value="Ольга Михайлова" style="ellipse;whiteSpace=wrap;html=1;aspect=fixed;container=0;" vertex="1" parent="s0a9IcQEDq-eL0me1gnV-7">
          <mxGeometry width="80" height="80" as="geometry" />
        </mxCell>
        <mxCell id="s0a9IcQEDq-eL0me1gnV-9" value="18" style="ellipse;whiteSpace=wrap;html=1;aspect=fixed;" vertex="1" parent="s0a9IcQEDq-eL0me1gnV-7">
          <mxGeometry x="30" width="20" height="20" as="geometry" />
        </mxCell>
        <mxCell id="s0a9IcQEDq-eL0me1gnV-10" value="" style="group" vertex="1" connectable="0" parent="rCrvyMO-_q0wt2D4Nwb6-62">
          <mxGeometry x="630" y="740" width="80" height="80" as="geometry" />
        </mxCell>
        <mxCell id="s0a9IcQEDq-eL0me1gnV-11" value="Сергей Новиков" style="ellipse;whiteSpace=wrap;html=1;aspect=fixed;container=0;" vertex="1" parent="s0a9IcQEDq-eL0me1gnV-10">
          <mxGeometry width="80" height="80" as="geometry" />
        </mxCell>
        <mxCell id="s0a9IcQEDq-eL0me1gnV-12" value="19" style="ellipse;whiteSpace=wrap;html=1;aspect=fixed;" vertex="1" parent="s0a9IcQEDq-eL0me1gnV-10">
          <mxGeometry x="30" width="20" height="20" as="geometry" />
        </mxCell>
        <mxCell id="s0a9IcQEDq-eL0me1gnV-13" value="" style="group" vertex="1" connectable="0" parent="rCrvyMO-_q0wt2D4Nwb6-62">
          <mxGeometry x="630" y="860" width="80" height="80" as="geometry" />
        </mxCell>
        <mxCell id="s0a9IcQEDq-eL0me1gnV-14" value="Елена Морозова" style="ellipse;whiteSpace=wrap;html=1;aspect=fixed;container=0;" vertex="1" parent="s0a9IcQEDq-eL0me1gnV-13">
          <mxGeometry width="80" height="80" as="geometry" />
        </mxCell>
        <mxCell id="s0a9IcQEDq-eL0me1gnV-15" value="20" style="ellipse;whiteSpace=wrap;html=1;aspect=fixed;" vertex="1" parent="s0a9IcQEDq-eL0me1gnV-13">
          <mxGeometry x="30" width="20" height="20" as="geometry" />
        </mxCell>
        <mxCell id="s0a9IcQEDq-eL0me1gnV-16" value="" style="group" vertex="1" connectable="0" parent="rCrvyMO-_q0wt2D4Nwb6-62">
          <mxGeometry y="380" width="80" height="80" as="geometry" />
        </mxCell>
        <mxCell id="s0a9IcQEDq-eL0me1gnV-17" value="Михаил Иванов" style="ellipse;whiteSpace=wrap;html=1;aspect=fixed;container=0;" vertex="1" parent="s0a9IcQEDq-eL0me1gnV-16">
          <mxGeometry width="80" height="80" as="geometry" />
        </mxCell>
        <mxCell id="s0a9IcQEDq-eL0me1gnV-18" value="21" style="ellipse;whiteSpace=wrap;html=1;aspect=fixed;" vertex="1" parent="s0a9IcQEDq-eL0me1gnV-16">
          <mxGeometry x="30" width="20" height="20" as="geometry" />
        </mxCell>
        <mxCell id="rCrvyMO-_q0wt2D4Nwb6-1" value="" style="group" vertex="1" connectable="0" parent="rCrvyMO-_q0wt2D4Nwb6-62">
          <mxGeometry x="120" y="380" width="80" height="80" as="geometry" />
        </mxCell>
        <mxCell id="rCrvyMO-_q0wt2D4Nwb6-2" value="Екатерина Смирнова" style="ellipse;whiteSpace=wrap;html=1;aspect=fixed;container=0;" vertex="1" parent="rCrvyMO-_q0wt2D4Nwb6-1">
          <mxGeometry width="80" height="80" as="geometry" />
        </mxCell>
        <mxCell id="rCrvyMO-_q0wt2D4Nwb6-3" value="22" style="ellipse;whiteSpace=wrap;html=1;aspect=fixed;" vertex="1" parent="rCrvyMO-_q0wt2D4Nwb6-1">
          <mxGeometry x="30" width="20" height="20" as="geometry" />
        </mxCell>
        <mxCell id="rCrvyMO-_q0wt2D4Nwb6-4" value="" style="group" vertex="1" connectable="0" parent="rCrvyMO-_q0wt2D4Nwb6-62">
          <mxGeometry x="260" y="380" width="80" height="80" as="geometry" />
        </mxCell>
        <mxCell id="rCrvyMO-_q0wt2D4Nwb6-5" value="Алексей Кузнецов" style="ellipse;whiteSpace=wrap;html=1;aspect=fixed;container=0;" vertex="1" parent="rCrvyMO-_q0wt2D4Nwb6-4">
          <mxGeometry width="80" height="80" as="geometry" />
        </mxCell>
        <mxCell id="rCrvyMO-_q0wt2D4Nwb6-6" value="23" style="ellipse;whiteSpace=wrap;html=1;aspect=fixed;" vertex="1" parent="rCrvyMO-_q0wt2D4Nwb6-4">
          <mxGeometry x="30" width="20" height="20" as="geometry" />
        </mxCell>
        <mxCell id="rCrvyMO-_q0wt2D4Nwb6-7" value="" style="group" vertex="1" connectable="0" parent="rCrvyMO-_q0wt2D4Nwb6-62">
          <mxGeometry y="510" width="80" height="80" as="geometry" />
        </mxCell>
        <mxCell id="rCrvyMO-_q0wt2D4Nwb6-8" value="Наталья Попова" style="ellipse;whiteSpace=wrap;html=1;aspect=fixed;container=0;" vertex="1" parent="rCrvyMO-_q0wt2D4Nwb6-7">
          <mxGeometry width="80" height="80" as="geometry" />
        </mxCell>
        <mxCell id="rCrvyMO-_q0wt2D4Nwb6-9" value="24" style="ellipse;whiteSpace=wrap;html=1;aspect=fixed;" vertex="1" parent="rCrvyMO-_q0wt2D4Nwb6-7">
          <mxGeometry x="30" width="20" height="20" as="geometry" />
        </mxCell>
        <mxCell id="rCrvyMO-_q0wt2D4Nwb6-10" value="" style="group" vertex="1" connectable="0" parent="rCrvyMO-_q0wt2D4Nwb6-62">
          <mxGeometry x="120" y="510" width="80" height="80" as="geometry" />
        </mxCell>
        <mxCell id="rCrvyMO-_q0wt2D4Nwb6-11" value="Иван Васильев" style="ellipse;whiteSpace=wrap;html=1;aspect=fixed;container=0;" vertex="1" parent="rCrvyMO-_q0wt2D4Nwb6-10">
          <mxGeometry width="80" height="80" as="geometry" />
        </mxCell>
        <mxCell id="rCrvyMO-_q0wt2D4Nwb6-12" value="25" style="ellipse;whiteSpace=wrap;html=1;aspect=fixed;" vertex="1" parent="rCrvyMO-_q0wt2D4Nwb6-10">
          <mxGeometry x="30" width="20" height="20" as="geometry" />
        </mxCell>
        <mxCell id="rCrvyMO-_q0wt2D4Nwb6-13" value="" style="group" vertex="1" connectable="0" parent="rCrvyMO-_q0wt2D4Nwb6-62">
          <mxGeometry x="260" y="510" width="80" height="80" as="geometry" />
        </mxCell>
        <mxCell id="rCrvyMO-_q0wt2D4Nwb6-14" value="Анна&lt;div&gt;Петрова&lt;/div&gt;" style="ellipse;whiteSpace=wrap;html=1;aspect=fixed;container=0;" vertex="1" parent="rCrvyMO-_q0wt2D4Nwb6-13">
          <mxGeometry width="80" height="80" as="geometry" />
        </mxCell>
        <mxCell id="rCrvyMO-_q0wt2D4Nwb6-15" value="26" style="ellipse;whiteSpace=wrap;html=1;aspect=fixed;" vertex="1" parent="rCrvyMO-_q0wt2D4Nwb6-13">
          <mxGeometry x="30" width="20" height="20" as="geometry" />
        </mxCell>
        <mxCell id="rCrvyMO-_q0wt2D4Nwb6-16" value="" style="group" vertex="1" connectable="0" parent="rCrvyMO-_q0wt2D4Nwb6-62">
          <mxGeometry y="630" width="80" height="80" as="geometry" />
        </mxCell>
        <mxCell id="rCrvyMO-_q0wt2D4Nwb6-17" value="Сергей Соколов" style="ellipse;whiteSpace=wrap;html=1;aspect=fixed;container=0;" vertex="1" parent="rCrvyMO-_q0wt2D4Nwb6-16">
          <mxGeometry width="80" height="80" as="geometry" />
        </mxCell>
        <mxCell id="rCrvyMO-_q0wt2D4Nwb6-18" value="27" style="ellipse;whiteSpace=wrap;html=1;aspect=fixed;" vertex="1" parent="rCrvyMO-_q0wt2D4Nwb6-16">
          <mxGeometry x="30" width="20" height="20" as="geometry" />
        </mxCell>
        <mxCell id="rCrvyMO-_q0wt2D4Nwb6-19" value="" style="group" vertex="1" connectable="0" parent="rCrvyMO-_q0wt2D4Nwb6-62">
          <mxGeometry x="260" y="630" width="80" height="80" as="geometry" />
        </mxCell>
        <mxCell id="rCrvyMO-_q0wt2D4Nwb6-20" value="Ольга Михайлова" style="ellipse;whiteSpace=wrap;html=1;aspect=fixed;container=0;" vertex="1" parent="rCrvyMO-_q0wt2D4Nwb6-19">
          <mxGeometry width="80" height="80" as="geometry" />
        </mxCell>
        <mxCell id="rCrvyMO-_q0wt2D4Nwb6-21" value="28" style="ellipse;whiteSpace=wrap;html=1;aspect=fixed;" vertex="1" parent="rCrvyMO-_q0wt2D4Nwb6-19">
          <mxGeometry x="30" width="20" height="20" as="geometry" />
        </mxCell>
        <mxCell id="rCrvyMO-_q0wt2D4Nwb6-22" value="" style="group" vertex="1" connectable="0" parent="rCrvyMO-_q0wt2D4Nwb6-62">
          <mxGeometry x="380" y="630" width="80" height="80" as="geometry" />
        </mxCell>
        <mxCell id="rCrvyMO-_q0wt2D4Nwb6-23" value="Дмитрий Новиков" style="ellipse;whiteSpace=wrap;html=1;aspect=fixed;container=0;" vertex="1" parent="rCrvyMO-_q0wt2D4Nwb6-22">
          <mxGeometry width="80" height="80" as="geometry" />
        </mxCell>
        <mxCell id="rCrvyMO-_q0wt2D4Nwb6-24" value="29" style="ellipse;whiteSpace=wrap;html=1;aspect=fixed;" vertex="1" parent="rCrvyMO-_q0wt2D4Nwb6-22">
          <mxGeometry x="30" width="20" height="20" as="geometry" />
        </mxCell>
        <mxCell id="rCrvyMO-_q0wt2D4Nwb6-25" value="" style="group" vertex="1" connectable="0" parent="rCrvyMO-_q0wt2D4Nwb6-62">
          <mxGeometry x="380" y="450" width="80" height="80" as="geometry" />
        </mxCell>
        <mxCell id="rCrvyMO-_q0wt2D4Nwb6-26" value="Елена&lt;div&gt;Мороз&lt;/div&gt;" style="ellipse;whiteSpace=wrap;html=1;aspect=fixed;container=0;" vertex="1" parent="rCrvyMO-_q0wt2D4Nwb6-25">
          <mxGeometry width="80" height="80" as="geometry" />
        </mxCell>
        <mxCell id="rCrvyMO-_q0wt2D4Nwb6-27" value="30" style="ellipse;whiteSpace=wrap;html=1;aspect=fixed;" vertex="1" parent="rCrvyMO-_q0wt2D4Nwb6-25">
          <mxGeometry x="30" width="20" height="20" as="geometry" />
        </mxCell>
        <mxCell id="rCrvyMO-_q0wt2D4Nwb6-28" value="" style="endArrow=classic;html=1;rounded=0;exitX=1;exitY=0.5;exitDx=0;exitDy=0;entryX=0;entryY=0.5;entryDx=0;entryDy=0;" edge="1" parent="rCrvyMO-_q0wt2D4Nwb6-62" source="5BZwUSSOYSfOxqoJ1sX4-5" target="5BZwUSSOYSfOxqoJ1sX4-2">
          <mxGeometry width="50" height="50" relative="1" as="geometry">
            <mxPoint x="80" y="150" as="sourcePoint" />
            <mxPoint x="130" y="100" as="targetPoint" />
          </mxGeometry>
        </mxCell>
        <mxCell id="rCrvyMO-_q0wt2D4Nwb6-29" value="" style="endArrow=classic;html=1;rounded=0;exitX=0.5;exitY=1;exitDx=0;exitDy=0;entryX=0.5;entryY=0;entryDx=0;entryDy=0;" edge="1" parent="rCrvyMO-_q0wt2D4Nwb6-62" source="5BZwUSSOYSfOxqoJ1sX4-2" target="5BZwUSSOYSfOxqoJ1sX4-17">
          <mxGeometry width="50" height="50" relative="1" as="geometry">
            <mxPoint x="260" y="170" as="sourcePoint" />
            <mxPoint x="310" y="120" as="targetPoint" />
          </mxGeometry>
        </mxCell>
        <mxCell id="rCrvyMO-_q0wt2D4Nwb6-30" value="" style="endArrow=classic;html=1;rounded=0;exitX=0.5;exitY=1;exitDx=0;exitDy=0;entryX=0.5;entryY=0;entryDx=0;entryDy=0;" edge="1" parent="rCrvyMO-_q0wt2D4Nwb6-62" source="5BZwUSSOYSfOxqoJ1sX4-11" target="5BZwUSSOYSfOxqoJ1sX4-21">
          <mxGeometry width="50" height="50" relative="1" as="geometry">
            <mxPoint x="440" y="180" as="sourcePoint" />
            <mxPoint x="490" y="130" as="targetPoint" />
          </mxGeometry>
        </mxCell>
        <mxCell id="rCrvyMO-_q0wt2D4Nwb6-31" value="" style="endArrow=classic;html=1;rounded=0;exitX=0.5;exitY=0;exitDx=0;exitDy=0;entryX=0.5;entryY=1;entryDx=0;entryDy=0;" edge="1" parent="rCrvyMO-_q0wt2D4Nwb6-62" source="5BZwUSSOYSfOxqoJ1sX4-8" target="5BZwUSSOYSfOxqoJ1sX4-5">
          <mxGeometry width="50" height="50" relative="1" as="geometry">
            <mxPoint x="410" y="160" as="sourcePoint" />
            <mxPoint x="460" y="110" as="targetPoint" />
          </mxGeometry>
        </mxCell>
        <mxCell id="rCrvyMO-_q0wt2D4Nwb6-32" value="" style="endArrow=classic;html=1;rounded=0;exitX=1;exitY=0.5;exitDx=0;exitDy=0;entryX=0;entryY=0.5;entryDx=0;entryDy=0;" edge="1" parent="rCrvyMO-_q0wt2D4Nwb6-62" source="5BZwUSSOYSfOxqoJ1sX4-17" target="5BZwUSSOYSfOxqoJ1sX4-20">
          <mxGeometry width="50" height="50" relative="1" as="geometry">
            <mxPoint x="430" y="160" as="sourcePoint" />
            <mxPoint x="480" y="110" as="targetPoint" />
          </mxGeometry>
        </mxCell>
        <mxCell id="rCrvyMO-_q0wt2D4Nwb6-33" value="" style="endArrow=classic;html=1;rounded=0;exitX=0;exitY=0;exitDx=0;exitDy=0;entryX=1;entryY=1;entryDx=0;entryDy=0;" edge="1" parent="rCrvyMO-_q0wt2D4Nwb6-62" source="5BZwUSSOYSfOxqoJ1sX4-20" target="5BZwUSSOYSfOxqoJ1sX4-2">
          <mxGeometry width="50" height="50" relative="1" as="geometry">
            <mxPoint x="450" y="160" as="sourcePoint" />
            <mxPoint x="500" y="110" as="targetPoint" />
          </mxGeometry>
        </mxCell>
        <mxCell id="rCrvyMO-_q0wt2D4Nwb6-34" value="" style="endArrow=classic;html=1;rounded=0;exitX=0.5;exitY=0;exitDx=0;exitDy=0;entryX=0.5;entryY=1;entryDx=0;entryDy=0;" edge="1" parent="rCrvyMO-_q0wt2D4Nwb6-62" source="5BZwUSSOYSfOxqoJ1sX4-15" target="5BZwUSSOYSfOxqoJ1sX4-8">
          <mxGeometry width="50" height="50" relative="1" as="geometry">
            <mxPoint x="120" y="300" as="sourcePoint" />
            <mxPoint x="170" y="250" as="targetPoint" />
          </mxGeometry>
        </mxCell>
        <mxCell id="rCrvyMO-_q0wt2D4Nwb6-35" value="" style="endArrow=classic;html=1;rounded=0;entryX=1;entryY=0.5;entryDx=0;entryDy=0;exitX=0;exitY=0.5;exitDx=0;exitDy=0;" edge="1" parent="rCrvyMO-_q0wt2D4Nwb6-62" source="4udN8GL-L_HQCWTWzwoZ-8" target="5BZwUSSOYSfOxqoJ1sX4-14">
          <mxGeometry width="50" height="50" relative="1" as="geometry">
            <mxPoint x="300" y="340" as="sourcePoint" />
            <mxPoint x="350" y="290" as="targetPoint" />
          </mxGeometry>
        </mxCell>
        <mxCell id="rCrvyMO-_q0wt2D4Nwb6-36" value="" style="endArrow=classic;html=1;rounded=0;entryX=1;entryY=0.5;entryDx=0;entryDy=0;exitX=0;exitY=0.5;exitDx=0;exitDy=0;" edge="1" parent="rCrvyMO-_q0wt2D4Nwb6-62" source="4udN8GL-L_HQCWTWzwoZ-2" target="4udN8GL-L_HQCWTWzwoZ-8">
          <mxGeometry width="50" height="50" relative="1" as="geometry">
            <mxPoint x="210" y="410" as="sourcePoint" />
            <mxPoint x="260" y="360" as="targetPoint" />
          </mxGeometry>
        </mxCell>
        <mxCell id="rCrvyMO-_q0wt2D4Nwb6-37" value="" style="endArrow=classic;html=1;rounded=0;entryX=1;entryY=0.5;entryDx=0;entryDy=0;" edge="1" parent="rCrvyMO-_q0wt2D4Nwb6-62" source="4udN8GL-L_HQCWTWzwoZ-5" target="4udN8GL-L_HQCWTWzwoZ-2">
          <mxGeometry width="50" height="50" relative="1" as="geometry">
            <mxPoint x="390" y="260" as="sourcePoint" />
            <mxPoint x="440" y="210" as="targetPoint" />
          </mxGeometry>
        </mxCell>
        <mxCell id="rCrvyMO-_q0wt2D4Nwb6-38" value="" style="endArrow=classic;html=1;rounded=0;exitX=0;exitY=0.5;exitDx=0;exitDy=0;entryX=1;entryY=0.5;entryDx=0;entryDy=0;" edge="1" parent="rCrvyMO-_q0wt2D4Nwb6-62" source="4udN8GL-L_HQCWTWzwoZ-11" target="4udN8GL-L_HQCWTWzwoZ-14">
          <mxGeometry width="50" height="50" relative="1" as="geometry">
            <mxPoint x="580" y="850" as="sourcePoint" />
            <mxPoint x="630" y="800" as="targetPoint" />
          </mxGeometry>
        </mxCell>
        <mxCell id="rCrvyMO-_q0wt2D4Nwb6-39" value="" style="endArrow=classic;html=1;rounded=0;exitX=0;exitY=0.5;exitDx=0;exitDy=0;entryX=1;entryY=0.5;entryDx=0;entryDy=0;" edge="1" parent="rCrvyMO-_q0wt2D4Nwb6-62" source="4udN8GL-L_HQCWTWzwoZ-14" target="4udN8GL-L_HQCWTWzwoZ-23">
          <mxGeometry width="50" height="50" relative="1" as="geometry">
            <mxPoint x="380" y="750" as="sourcePoint" />
            <mxPoint x="430" y="700" as="targetPoint" />
          </mxGeometry>
        </mxCell>
        <mxCell id="rCrvyMO-_q0wt2D4Nwb6-40" value="" style="endArrow=classic;html=1;rounded=0;exitX=1;exitY=0.5;exitDx=0;exitDy=0;entryX=0;entryY=0.5;entryDx=0;entryDy=0;" edge="1" parent="rCrvyMO-_q0wt2D4Nwb6-62" source="4udN8GL-L_HQCWTWzwoZ-17" target="s0a9IcQEDq-eL0me1gnV-2">
          <mxGeometry width="50" height="50" relative="1" as="geometry">
            <mxPoint x="250" y="920" as="sourcePoint" />
            <mxPoint x="140" y="890" as="targetPoint" />
          </mxGeometry>
        </mxCell>
        <mxCell id="rCrvyMO-_q0wt2D4Nwb6-41" value="" style="endArrow=classic;html=1;rounded=0;exitX=0.5;exitY=0;exitDx=0;exitDy=0;" edge="1" parent="rCrvyMO-_q0wt2D4Nwb6-62" source="4udN8GL-L_HQCWTWzwoZ-21" target="4udN8GL-L_HQCWTWzwoZ-11">
          <mxGeometry width="50" height="50" relative="1" as="geometry">
            <mxPoint x="580" y="920" as="sourcePoint" />
            <mxPoint x="630" y="870" as="targetPoint" />
          </mxGeometry>
        </mxCell>
        <mxCell id="rCrvyMO-_q0wt2D4Nwb6-42" value="" style="endArrow=classic;html=1;rounded=0;exitX=0.5;exitY=1;exitDx=0;exitDy=0;entryX=0.5;entryY=0;entryDx=0;entryDy=0;" edge="1" parent="rCrvyMO-_q0wt2D4Nwb6-62" source="4udN8GL-L_HQCWTWzwoZ-23" target="s0a9IcQEDq-eL0me1gnV-2">
          <mxGeometry width="50" height="50" relative="1" as="geometry">
            <mxPoint x="250" y="990" as="sourcePoint" />
            <mxPoint x="300" y="940" as="targetPoint" />
          </mxGeometry>
        </mxCell>
        <mxCell id="rCrvyMO-_q0wt2D4Nwb6-43" value="" style="endArrow=classic;html=1;rounded=0;exitX=1;exitY=0;exitDx=0;exitDy=0;entryX=0;entryY=1;entryDx=0;entryDy=0;" edge="1" parent="rCrvyMO-_q0wt2D4Nwb6-62" source="s0a9IcQEDq-eL0me1gnV-2" target="4udN8GL-L_HQCWTWzwoZ-14">
          <mxGeometry width="50" height="50" relative="1" as="geometry">
            <mxPoint x="290" y="960" as="sourcePoint" />
            <mxPoint x="340" y="910" as="targetPoint" />
          </mxGeometry>
        </mxCell>
        <mxCell id="rCrvyMO-_q0wt2D4Nwb6-44" value="" style="endArrow=classic;html=1;rounded=0;entryX=1;entryY=0.5;entryDx=0;entryDy=0;exitX=0;exitY=0.5;exitDx=0;exitDy=0;" edge="1" parent="rCrvyMO-_q0wt2D4Nwb6-62" source="s0a9IcQEDq-eL0me1gnV-5" target="4udN8GL-L_HQCWTWzwoZ-20">
          <mxGeometry width="50" height="50" relative="1" as="geometry">
            <mxPoint x="530" y="1070" as="sourcePoint" />
            <mxPoint x="580" y="1020" as="targetPoint" />
          </mxGeometry>
        </mxCell>
        <mxCell id="rCrvyMO-_q0wt2D4Nwb6-45" value="" style="endArrow=classic;html=1;rounded=0;exitX=0.5;exitY=1;exitDx=0;exitDy=0;" edge="1" parent="rCrvyMO-_q0wt2D4Nwb6-62" source="s0a9IcQEDq-eL0me1gnV-8" target="s0a9IcQEDq-eL0me1gnV-6">
          <mxGeometry width="50" height="50" relative="1" as="geometry">
            <mxPoint x="630" y="850" as="sourcePoint" />
            <mxPoint x="680" y="800" as="targetPoint" />
          </mxGeometry>
        </mxCell>
        <mxCell id="rCrvyMO-_q0wt2D4Nwb6-46" value="" style="endArrow=classic;html=1;rounded=0;entryX=1;entryY=0.5;entryDx=0;entryDy=0;exitX=0;exitY=0.5;exitDx=0;exitDy=0;" edge="1" parent="rCrvyMO-_q0wt2D4Nwb6-62" source="s0a9IcQEDq-eL0me1gnV-11" target="s0a9IcQEDq-eL0me1gnV-8">
          <mxGeometry width="50" height="50" relative="1" as="geometry">
            <mxPoint x="670" y="940" as="sourcePoint" />
            <mxPoint x="720" y="890" as="targetPoint" />
          </mxGeometry>
        </mxCell>
        <mxCell id="rCrvyMO-_q0wt2D4Nwb6-47" value="" style="endArrow=classic;html=1;rounded=0;entryX=0.5;entryY=1;entryDx=0;entryDy=0;exitX=0.5;exitY=0;exitDx=0;exitDy=0;" edge="1" parent="rCrvyMO-_q0wt2D4Nwb6-62" source="s0a9IcQEDq-eL0me1gnV-15" target="s0a9IcQEDq-eL0me1gnV-11">
          <mxGeometry width="50" height="50" relative="1" as="geometry">
            <mxPoint x="630" y="1040" as="sourcePoint" />
            <mxPoint x="680" y="990" as="targetPoint" />
          </mxGeometry>
        </mxCell>
        <mxCell id="rCrvyMO-_q0wt2D4Nwb6-48" value="" style="endArrow=classic;html=1;rounded=0;exitX=1;exitY=0.5;exitDx=0;exitDy=0;entryX=0;entryY=0.5;entryDx=0;entryDy=0;" edge="1" parent="rCrvyMO-_q0wt2D4Nwb6-62" source="s0a9IcQEDq-eL0me1gnV-17" target="rCrvyMO-_q0wt2D4Nwb6-2">
          <mxGeometry width="50" height="50" relative="1" as="geometry">
            <mxPoint x="440" y="500" as="sourcePoint" />
            <mxPoint x="490" y="450" as="targetPoint" />
          </mxGeometry>
        </mxCell>
        <mxCell id="rCrvyMO-_q0wt2D4Nwb6-49" value="" style="endArrow=classic;html=1;rounded=0;exitX=0.5;exitY=1;exitDx=0;exitDy=0;entryX=0.5;entryY=0;entryDx=0;entryDy=0;" edge="1" parent="rCrvyMO-_q0wt2D4Nwb6-62" source="rCrvyMO-_q0wt2D4Nwb6-2" target="rCrvyMO-_q0wt2D4Nwb6-12">
          <mxGeometry width="50" height="50" relative="1" as="geometry">
            <mxPoint x="440" y="480" as="sourcePoint" />
            <mxPoint x="490" y="430" as="targetPoint" />
          </mxGeometry>
        </mxCell>
        <mxCell id="rCrvyMO-_q0wt2D4Nwb6-50" value="" style="endArrow=classic;html=1;rounded=0;exitX=0.5;exitY=1;exitDx=0;exitDy=0;" edge="1" parent="rCrvyMO-_q0wt2D4Nwb6-62" source="rCrvyMO-_q0wt2D4Nwb6-5" target="rCrvyMO-_q0wt2D4Nwb6-15">
          <mxGeometry width="50" height="50" relative="1" as="geometry">
            <mxPoint x="520" y="560" as="sourcePoint" />
            <mxPoint x="570" y="510" as="targetPoint" />
          </mxGeometry>
        </mxCell>
        <mxCell id="rCrvyMO-_q0wt2D4Nwb6-51" value="" style="endArrow=classic;html=1;rounded=0;exitX=0.5;exitY=0;exitDx=0;exitDy=0;entryX=0.5;entryY=1;entryDx=0;entryDy=0;" edge="1" parent="rCrvyMO-_q0wt2D4Nwb6-62" source="rCrvyMO-_q0wt2D4Nwb6-9" target="s0a9IcQEDq-eL0me1gnV-17">
          <mxGeometry width="50" height="50" relative="1" as="geometry">
            <mxPoint x="410" y="510" as="sourcePoint" />
            <mxPoint x="460" y="460" as="targetPoint" />
          </mxGeometry>
        </mxCell>
        <mxCell id="rCrvyMO-_q0wt2D4Nwb6-52" value="" style="endArrow=classic;html=1;rounded=0;exitX=1;exitY=0.5;exitDx=0;exitDy=0;entryX=0;entryY=0.5;entryDx=0;entryDy=0;" edge="1" parent="rCrvyMO-_q0wt2D4Nwb6-62" source="rCrvyMO-_q0wt2D4Nwb6-11" target="rCrvyMO-_q0wt2D4Nwb6-14">
          <mxGeometry width="50" height="50" relative="1" as="geometry">
            <mxPoint x="580" y="550" as="sourcePoint" />
            <mxPoint x="630" y="500" as="targetPoint" />
          </mxGeometry>
        </mxCell>
        <mxCell id="rCrvyMO-_q0wt2D4Nwb6-53" value="" style="endArrow=classic;html=1;rounded=0;exitX=0;exitY=0;exitDx=0;exitDy=0;entryX=1;entryY=1;entryDx=0;entryDy=0;" edge="1" parent="rCrvyMO-_q0wt2D4Nwb6-62" source="rCrvyMO-_q0wt2D4Nwb6-14" target="rCrvyMO-_q0wt2D4Nwb6-2">
          <mxGeometry width="50" height="50" relative="1" as="geometry">
            <mxPoint x="470" y="530" as="sourcePoint" />
            <mxPoint x="520" y="480" as="targetPoint" />
          </mxGeometry>
        </mxCell>
        <mxCell id="rCrvyMO-_q0wt2D4Nwb6-54" value="" style="endArrow=classic;html=1;rounded=0;entryX=0.5;entryY=1;entryDx=0;entryDy=0;exitX=0.5;exitY=0;exitDx=0;exitDy=0;" edge="1" parent="rCrvyMO-_q0wt2D4Nwb6-62" source="rCrvyMO-_q0wt2D4Nwb6-18" target="rCrvyMO-_q0wt2D4Nwb6-8">
          <mxGeometry width="50" height="50" relative="1" as="geometry">
            <mxPoint x="510" y="640" as="sourcePoint" />
            <mxPoint x="560" y="590" as="targetPoint" />
          </mxGeometry>
        </mxCell>
        <mxCell id="rCrvyMO-_q0wt2D4Nwb6-55" value="" style="endArrow=classic;html=1;rounded=0;entryX=1;entryY=0.5;entryDx=0;entryDy=0;exitX=0;exitY=0.5;exitDx=0;exitDy=0;" edge="1" parent="rCrvyMO-_q0wt2D4Nwb6-62" source="rCrvyMO-_q0wt2D4Nwb6-20" target="rCrvyMO-_q0wt2D4Nwb6-17">
          <mxGeometry width="50" height="50" relative="1" as="geometry">
            <mxPoint x="180" y="680" as="sourcePoint" />
            <mxPoint x="230" y="630" as="targetPoint" />
          </mxGeometry>
        </mxCell>
        <mxCell id="rCrvyMO-_q0wt2D4Nwb6-56" value="" style="endArrow=classic;html=1;rounded=0;exitX=0;exitY=0.5;exitDx=0;exitDy=0;entryX=1;entryY=0.5;entryDx=0;entryDy=0;" edge="1" parent="rCrvyMO-_q0wt2D4Nwb6-62" source="rCrvyMO-_q0wt2D4Nwb6-23" target="rCrvyMO-_q0wt2D4Nwb6-20">
          <mxGeometry width="50" height="50" relative="1" as="geometry">
            <mxPoint x="510" y="610" as="sourcePoint" />
            <mxPoint x="560" y="560" as="targetPoint" />
          </mxGeometry>
        </mxCell>
        <mxCell id="rCrvyMO-_q0wt2D4Nwb6-57" value="" style="endArrow=classic;html=1;rounded=0;exitX=0.5;exitY=1;exitDx=0;exitDy=0;entryX=0.5;entryY=0;entryDx=0;entryDy=0;" edge="1" parent="rCrvyMO-_q0wt2D4Nwb6-62" source="rCrvyMO-_q0wt2D4Nwb6-26" target="rCrvyMO-_q0wt2D4Nwb6-24">
          <mxGeometry width="50" height="50" relative="1" as="geometry">
            <mxPoint x="480" y="570" as="sourcePoint" />
            <mxPoint x="530" y="520" as="targetPoint" />
          </mxGeometry>
        </mxCell>
        <mxCell id="rCrvyMO-_q0wt2D4Nwb6-58" value="" style="endArrow=classic;html=1;rounded=0;exitX=0.5;exitY=1;exitDx=0;exitDy=0;entryX=0.5;entryY=0;entryDx=0;entryDy=0;" edge="1" parent="rCrvyMO-_q0wt2D4Nwb6-62" source="4udN8GL-L_HQCWTWzwoZ-5" target="rCrvyMO-_q0wt2D4Nwb6-27">
          <mxGeometry width="50" height="50" relative="1" as="geometry">
            <mxPoint x="630" y="460" as="sourcePoint" />
            <mxPoint x="680" y="410" as="targetPoint" />
          </mxGeometry>
        </mxCell>
        <mxCell id="rCrvyMO-_q0wt2D4Nwb6-60" value="" style="endArrow=classic;html=1;rounded=0;exitX=0.5;exitY=1;exitDx=0;exitDy=0;entryX=0.5;entryY=0;entryDx=0;entryDy=0;" edge="1" parent="rCrvyMO-_q0wt2D4Nwb6-62" source="rCrvyMO-_q0wt2D4Nwb6-20" target="4udN8GL-L_HQCWTWzwoZ-15">
          <mxGeometry width="50" height="50" relative="1" as="geometry">
            <mxPoint x="480" y="720" as="sourcePoint" />
            <mxPoint x="530" y="670" as="targetPoint" />
          </mxGeometry>
        </mxCell>
        <mxCell id="rCrvyMO-_q0wt2D4Nwb6-61" value="" style="endArrow=classic;html=1;rounded=0;exitX=0.5;exitY=0;exitDx=0;exitDy=0;entryX=0.5;entryY=1;entryDx=0;entryDy=0;" edge="1" parent="rCrvyMO-_q0wt2D4Nwb6-62" source="4udN8GL-L_HQCWTWzwoZ-11" target="rCrvyMO-_q0wt2D4Nwb6-23">
          <mxGeometry width="50" height="50" relative="1" as="geometry">
            <mxPoint x="470" y="740" as="sourcePoint" />
            <mxPoint x="520" y="690" as="targetPoint" />
          </mxGeometry>
        </mxCell>
      </root>
    </mxGraphModel>
  </diagram>
  <diagram id="UpWgUTsdI18lWklbDU9n" name="Находится в">
    <mxGraphModel dx="1024" dy="597" grid="1" gridSize="10" guides="1" tooltips="1" connect="1" arrows="1" fold="1" page="1" pageScale="1" pageWidth="827" pageHeight="1169" math="0" shadow="0">
      <root>
        <mxCell id="0" />
        <mxCell id="1" parent="0" />
        <mxCell id="NpwBhYP3iQq3_8gegcXe-88" value="" style="group;movable=0;resizable=0;rotatable=0;deletable=0;editable=0;locked=1;connectable=0;" vertex="1" connectable="0" parent="1">
          <mxGeometry x="50" y="40" width="700" height="450" as="geometry" />
        </mxCell>
        <mxCell id="NpwBhYP3iQq3_8gegcXe-24" value="" style="group" vertex="1" connectable="0" parent="NpwBhYP3iQq3_8gegcXe-88">
          <mxGeometry width="190" height="160" as="geometry" />
        </mxCell>
        <mxCell id="NpwBhYP3iQq3_8gegcXe-1" value="" style="group" vertex="1" connectable="0" parent="NpwBhYP3iQq3_8gegcXe-24">
          <mxGeometry x="60" width="70" height="50" as="geometry" />
        </mxCell>
        <mxCell id="e3R3LO29of0bzXxyrNew-1" value="&lt;div&gt;&lt;br&gt;&lt;/div&gt;Минск" style="rounded=0;whiteSpace=wrap;html=1;" vertex="1" parent="NpwBhYP3iQq3_8gegcXe-1">
          <mxGeometry width="70" height="50" as="geometry" />
        </mxCell>
        <mxCell id="e3R3LO29of0bzXxyrNew-2" value="1" style="rounded=0;whiteSpace=wrap;html=1;" vertex="1" parent="NpwBhYP3iQq3_8gegcXe-1">
          <mxGeometry x="20" width="30" height="20" as="geometry" />
        </mxCell>
        <mxCell id="NpwBhYP3iQq3_8gegcXe-2" value="" style="group" vertex="1" connectable="0" parent="NpwBhYP3iQq3_8gegcXe-24">
          <mxGeometry y="80" width="70" height="50" as="geometry" />
        </mxCell>
        <mxCell id="e3R3LO29of0bzXxyrNew-7" value="&lt;font style=&quot;font-size: 9px;&quot;&gt;Myloverberry&lt;/font&gt;&lt;div style=&quot;font-size: 9px;&quot;&gt;&lt;font style=&quot;font-size: 9px;&quot;&gt;Минск&lt;/font&gt;&lt;/div&gt;" style="shape=hexagon;perimeter=hexagonPerimeter2;whiteSpace=wrap;html=1;fixedSize=1;" vertex="1" parent="NpwBhYP3iQq3_8gegcXe-2">
          <mxGeometry width="70" height="50" as="geometry" />
        </mxCell>
        <mxCell id="e3R3LO29of0bzXxyrNew-9" value="&lt;font style=&quot;font-size: 8px;&quot;&gt;1&lt;/font&gt;" style="rounded=0;whiteSpace=wrap;html=1;" vertex="1" parent="NpwBhYP3iQq3_8gegcXe-2">
          <mxGeometry x="25" width="20" height="10" as="geometry" />
        </mxCell>
        <mxCell id="NpwBhYP3iQq3_8gegcXe-3" value="" style="group" vertex="1" connectable="0" parent="NpwBhYP3iQq3_8gegcXe-24">
          <mxGeometry x="60" y="110" width="70" height="50" as="geometry" />
        </mxCell>
        <mxCell id="e3R3LO29of0bzXxyrNew-44" value="&lt;font style=&quot;font-size: 9px;&quot;&gt;Paragraph&lt;br&gt;&lt;/font&gt;&lt;div style=&quot;font-size: 9px;&quot;&gt;&lt;font style=&quot;font-size: 9px;&quot;&gt;Минск&lt;/font&gt;&lt;/div&gt;" style="shape=hexagon;perimeter=hexagonPerimeter2;whiteSpace=wrap;html=1;fixedSize=1;" vertex="1" parent="NpwBhYP3iQq3_8gegcXe-3">
          <mxGeometry width="70" height="50" as="geometry" />
        </mxCell>
        <mxCell id="e3R3LO29of0bzXxyrNew-45" value="&lt;font style=&quot;font-size: 8px;&quot;&gt;2&lt;/font&gt;" style="rounded=0;whiteSpace=wrap;html=1;" vertex="1" parent="NpwBhYP3iQq3_8gegcXe-3">
          <mxGeometry x="25" width="20" height="10" as="geometry" />
        </mxCell>
        <mxCell id="NpwBhYP3iQq3_8gegcXe-4" value="" style="group" vertex="1" connectable="0" parent="NpwBhYP3iQq3_8gegcXe-24">
          <mxGeometry x="120" y="80" width="70" height="50" as="geometry" />
        </mxCell>
        <mxCell id="e3R3LO29of0bzXxyrNew-48" value="&lt;font style=&quot;font-size: 9px;&quot;&gt;LoveMyrr&lt;br&gt;&lt;/font&gt;&lt;div style=&quot;font-size: 9px;&quot;&gt;&lt;font style=&quot;font-size: 9px;&quot;&gt;Минск&lt;/font&gt;&lt;/div&gt;" style="shape=hexagon;perimeter=hexagonPerimeter2;whiteSpace=wrap;html=1;fixedSize=1;" vertex="1" parent="NpwBhYP3iQq3_8gegcXe-4">
          <mxGeometry width="70" height="50" as="geometry" />
        </mxCell>
        <mxCell id="e3R3LO29of0bzXxyrNew-49" value="&lt;font style=&quot;font-size: 8px;&quot;&gt;3&lt;/font&gt;" style="rounded=0;whiteSpace=wrap;html=1;" vertex="1" parent="NpwBhYP3iQq3_8gegcXe-4">
          <mxGeometry x="25" width="20" height="10" as="geometry" />
        </mxCell>
        <mxCell id="NpwBhYP3iQq3_8gegcXe-21" style="edgeStyle=orthogonalEdgeStyle;rounded=0;orthogonalLoop=1;jettySize=auto;html=1;entryX=0.5;entryY=1;entryDx=0;entryDy=0;" edge="1" parent="NpwBhYP3iQq3_8gegcXe-24" source="e3R3LO29of0bzXxyrNew-9" target="e3R3LO29of0bzXxyrNew-1">
          <mxGeometry relative="1" as="geometry">
            <Array as="points">
              <mxPoint x="35" y="70" />
              <mxPoint x="95" y="70" />
            </Array>
          </mxGeometry>
        </mxCell>
        <mxCell id="NpwBhYP3iQq3_8gegcXe-22" style="edgeStyle=orthogonalEdgeStyle;rounded=0;orthogonalLoop=1;jettySize=auto;html=1;entryX=0.5;entryY=1;entryDx=0;entryDy=0;" edge="1" parent="NpwBhYP3iQq3_8gegcXe-24" source="e3R3LO29of0bzXxyrNew-45" target="e3R3LO29of0bzXxyrNew-1">
          <mxGeometry relative="1" as="geometry" />
        </mxCell>
        <mxCell id="NpwBhYP3iQq3_8gegcXe-23" style="edgeStyle=orthogonalEdgeStyle;rounded=0;orthogonalLoop=1;jettySize=auto;html=1;" edge="1" parent="NpwBhYP3iQq3_8gegcXe-24" source="e3R3LO29of0bzXxyrNew-49" target="e3R3LO29of0bzXxyrNew-1">
          <mxGeometry relative="1" as="geometry">
            <Array as="points">
              <mxPoint x="155" y="70" />
              <mxPoint x="95" y="70" />
            </Array>
          </mxGeometry>
        </mxCell>
        <mxCell id="NpwBhYP3iQq3_8gegcXe-27" value="" style="group" vertex="1" connectable="0" parent="NpwBhYP3iQq3_8gegcXe-88">
          <mxGeometry x="340" width="150" height="130" as="geometry" />
        </mxCell>
        <mxCell id="NpwBhYP3iQq3_8gegcXe-8" value="" style="group" vertex="1" connectable="0" parent="NpwBhYP3iQq3_8gegcXe-27">
          <mxGeometry x="40" width="70" height="50" as="geometry" />
        </mxCell>
        <mxCell id="e3R3LO29of0bzXxyrNew-54" value="&lt;div&gt;&lt;/div&gt;&lt;div&gt;&lt;br&gt;&lt;/div&gt;&lt;div&gt;Могилев&lt;/div&gt;" style="rounded=0;whiteSpace=wrap;html=1;" vertex="1" parent="NpwBhYP3iQq3_8gegcXe-8">
          <mxGeometry width="70" height="50" as="geometry" />
        </mxCell>
        <mxCell id="e3R3LO29of0bzXxyrNew-55" value="3" style="rounded=0;whiteSpace=wrap;html=1;" vertex="1" parent="NpwBhYP3iQq3_8gegcXe-8">
          <mxGeometry x="20" width="30" height="20" as="geometry" />
        </mxCell>
        <mxCell id="NpwBhYP3iQq3_8gegcXe-14" value="" style="group" vertex="1" connectable="0" parent="NpwBhYP3iQq3_8gegcXe-27">
          <mxGeometry x="80" y="80" width="70" height="50" as="geometry" />
        </mxCell>
        <mxCell id="e3R3LO29of0bzXxyrNew-60" value="&lt;font style=&quot;font-size: 9px;&quot;&gt;Varka&lt;br&gt;&lt;/font&gt;&lt;div style=&quot;font-size: 9px;&quot;&gt;&lt;font style=&quot;font-size: 9px;&quot;&gt;Могилев&lt;/font&gt;&lt;/div&gt;" style="shape=hexagon;perimeter=hexagonPerimeter2;whiteSpace=wrap;html=1;fixedSize=1;" vertex="1" parent="NpwBhYP3iQq3_8gegcXe-14">
          <mxGeometry width="70" height="50" as="geometry" />
        </mxCell>
        <mxCell id="e3R3LO29of0bzXxyrNew-61" value="&lt;span style=&quot;font-size: 8px;&quot;&gt;6&lt;/span&gt;" style="rounded=0;whiteSpace=wrap;html=1;" vertex="1" parent="NpwBhYP3iQq3_8gegcXe-14">
          <mxGeometry x="25" width="20" height="10" as="geometry" />
        </mxCell>
        <mxCell id="NpwBhYP3iQq3_8gegcXe-16" value="" style="group" vertex="1" connectable="0" parent="NpwBhYP3iQq3_8gegcXe-27">
          <mxGeometry y="80" width="70" height="50" as="geometry" />
        </mxCell>
        <mxCell id="e3R3LO29of0bzXxyrNew-52" value="&lt;font style=&quot;font-size: 9px;&quot;&gt;CoffeeMouse&lt;br&gt;&lt;/font&gt;&lt;div style=&quot;font-size: 9px;&quot;&gt;&lt;font style=&quot;font-size: 9px;&quot;&gt;Могилев&lt;/font&gt;&lt;/div&gt;" style="shape=hexagon;perimeter=hexagonPerimeter2;whiteSpace=wrap;html=1;fixedSize=1;" vertex="1" parent="NpwBhYP3iQq3_8gegcXe-16">
          <mxGeometry width="70" height="50" as="geometry" />
        </mxCell>
        <mxCell id="e3R3LO29of0bzXxyrNew-53" value="&lt;font style=&quot;font-size: 8px;&quot;&gt;4&lt;/font&gt;" style="rounded=0;whiteSpace=wrap;html=1;" vertex="1" parent="NpwBhYP3iQq3_8gegcXe-16">
          <mxGeometry x="25" width="20" height="10" as="geometry" />
        </mxCell>
        <mxCell id="NpwBhYP3iQq3_8gegcXe-25" style="edgeStyle=orthogonalEdgeStyle;rounded=0;orthogonalLoop=1;jettySize=auto;html=1;" edge="1" parent="NpwBhYP3iQq3_8gegcXe-27" source="e3R3LO29of0bzXxyrNew-52" target="e3R3LO29of0bzXxyrNew-54">
          <mxGeometry relative="1" as="geometry">
            <Array as="points">
              <mxPoint x="35" y="70" />
              <mxPoint x="75" y="70" />
            </Array>
          </mxGeometry>
        </mxCell>
        <mxCell id="NpwBhYP3iQq3_8gegcXe-26" style="edgeStyle=orthogonalEdgeStyle;rounded=0;orthogonalLoop=1;jettySize=auto;html=1;entryX=0.5;entryY=1;entryDx=0;entryDy=0;" edge="1" parent="NpwBhYP3iQq3_8gegcXe-27" source="e3R3LO29of0bzXxyrNew-60" target="e3R3LO29of0bzXxyrNew-54">
          <mxGeometry relative="1" as="geometry">
            <Array as="points">
              <mxPoint x="115" y="70" />
              <mxPoint x="75" y="70" />
            </Array>
          </mxGeometry>
        </mxCell>
        <mxCell id="NpwBhYP3iQq3_8gegcXe-30" value="" style="group" vertex="1" connectable="0" parent="NpwBhYP3iQq3_8gegcXe-88">
          <mxGeometry x="190" y="80" width="150" height="130" as="geometry" />
        </mxCell>
        <mxCell id="NpwBhYP3iQq3_8gegcXe-6" value="" style="group" vertex="1" connectable="0" parent="NpwBhYP3iQq3_8gegcXe-30">
          <mxGeometry x="40" width="70" height="50" as="geometry" />
        </mxCell>
        <mxCell id="e3R3LO29of0bzXxyrNew-46" value="&lt;div&gt;&lt;/div&gt;&lt;div&gt;&lt;br&gt;&lt;/div&gt;&lt;div&gt;Гомель&lt;/div&gt;" style="rounded=0;whiteSpace=wrap;html=1;" vertex="1" parent="NpwBhYP3iQq3_8gegcXe-6">
          <mxGeometry width="70" height="50" as="geometry" />
        </mxCell>
        <mxCell id="e3R3LO29of0bzXxyrNew-47" value="2" style="rounded=0;whiteSpace=wrap;html=1;" vertex="1" parent="NpwBhYP3iQq3_8gegcXe-6">
          <mxGeometry x="20" width="30" height="20" as="geometry" />
        </mxCell>
        <mxCell id="NpwBhYP3iQq3_8gegcXe-17" value="" style="group" vertex="1" connectable="0" parent="NpwBhYP3iQq3_8gegcXe-30">
          <mxGeometry y="80" width="70" height="50" as="geometry" />
        </mxCell>
        <mxCell id="e3R3LO29of0bzXxyrNew-64" value="&lt;font style=&quot;font-size: 9px;&quot;&gt;Cofix&lt;br&gt;&lt;/font&gt;&lt;div style=&quot;font-size: 9px;&quot;&gt;&lt;font style=&quot;font-size: 9px;&quot;&gt;Гомель&lt;/font&gt;&lt;/div&gt;" style="shape=hexagon;perimeter=hexagonPerimeter2;whiteSpace=wrap;html=1;fixedSize=1;" vertex="1" parent="NpwBhYP3iQq3_8gegcXe-17">
          <mxGeometry width="70" height="50" as="geometry" />
        </mxCell>
        <mxCell id="e3R3LO29of0bzXxyrNew-65" value="&lt;font style=&quot;font-size: 8px;&quot;&gt;7&lt;/font&gt;" style="rounded=0;whiteSpace=wrap;html=1;" vertex="1" parent="NpwBhYP3iQq3_8gegcXe-17">
          <mxGeometry x="25" width="20" height="10" as="geometry" />
        </mxCell>
        <mxCell id="NpwBhYP3iQq3_8gegcXe-18" value="" style="group" vertex="1" connectable="0" parent="NpwBhYP3iQq3_8gegcXe-30">
          <mxGeometry x="80" y="80" width="70" height="50" as="geometry" />
        </mxCell>
        <mxCell id="e3R3LO29of0bzXxyrNew-68" value="&lt;font style=&quot;font-size: 9px;&quot;&gt;Lavazza&lt;br&gt;&lt;/font&gt;&lt;div style=&quot;font-size: 9px;&quot;&gt;&lt;font style=&quot;font-size: 9px;&quot;&gt;Гомель&lt;/font&gt;&lt;/div&gt;" style="shape=hexagon;perimeter=hexagonPerimeter2;whiteSpace=wrap;html=1;fixedSize=1;" vertex="1" parent="NpwBhYP3iQq3_8gegcXe-18">
          <mxGeometry width="70" height="50" as="geometry" />
        </mxCell>
        <mxCell id="e3R3LO29of0bzXxyrNew-69" value="&lt;font style=&quot;font-size: 8px;&quot;&gt;8&lt;/font&gt;" style="rounded=0;whiteSpace=wrap;html=1;" vertex="1" parent="NpwBhYP3iQq3_8gegcXe-18">
          <mxGeometry x="25" width="20" height="10" as="geometry" />
        </mxCell>
        <mxCell id="NpwBhYP3iQq3_8gegcXe-28" style="edgeStyle=orthogonalEdgeStyle;rounded=0;orthogonalLoop=1;jettySize=auto;html=1;" edge="1" parent="NpwBhYP3iQq3_8gegcXe-30" source="e3R3LO29of0bzXxyrNew-64" target="e3R3LO29of0bzXxyrNew-46">
          <mxGeometry relative="1" as="geometry">
            <Array as="points">
              <mxPoint x="35" y="70" />
              <mxPoint x="75" y="70" />
            </Array>
          </mxGeometry>
        </mxCell>
        <mxCell id="NpwBhYP3iQq3_8gegcXe-29" style="edgeStyle=orthogonalEdgeStyle;rounded=0;orthogonalLoop=1;jettySize=auto;html=1;entryX=0.5;entryY=1;entryDx=0;entryDy=0;" edge="1" parent="NpwBhYP3iQq3_8gegcXe-30" source="e3R3LO29of0bzXxyrNew-69" target="e3R3LO29of0bzXxyrNew-46">
          <mxGeometry relative="1" as="geometry">
            <Array as="points">
              <mxPoint x="115" y="70" />
              <mxPoint x="75" y="70" />
            </Array>
          </mxGeometry>
        </mxCell>
        <mxCell id="NpwBhYP3iQq3_8gegcXe-32" value="" style="group" vertex="1" connectable="0" parent="NpwBhYP3iQq3_8gegcXe-88">
          <mxGeometry x="530" y="70" width="70" height="130" as="geometry" />
        </mxCell>
        <mxCell id="NpwBhYP3iQq3_8gegcXe-9" value="" style="group" vertex="1" connectable="0" parent="NpwBhYP3iQq3_8gegcXe-32">
          <mxGeometry width="70" height="50" as="geometry" />
        </mxCell>
        <mxCell id="e3R3LO29of0bzXxyrNew-58" value="&lt;div&gt;&lt;/div&gt;&lt;div&gt;&lt;br&gt;&lt;/div&gt;&lt;div&gt;Витебск&lt;/div&gt;" style="rounded=0;whiteSpace=wrap;html=1;" vertex="1" parent="NpwBhYP3iQq3_8gegcXe-9">
          <mxGeometry width="70" height="50" as="geometry" />
        </mxCell>
        <mxCell id="e3R3LO29of0bzXxyrNew-59" value="4" style="rounded=0;whiteSpace=wrap;html=1;" vertex="1" parent="NpwBhYP3iQq3_8gegcXe-9">
          <mxGeometry x="20" width="30" height="20" as="geometry" />
        </mxCell>
        <mxCell id="NpwBhYP3iQq3_8gegcXe-15" value="" style="group" vertex="1" connectable="0" parent="NpwBhYP3iQq3_8gegcXe-32">
          <mxGeometry y="80" width="70" height="50" as="geometry" />
        </mxCell>
        <mxCell id="e3R3LO29of0bzXxyrNew-56" value="&lt;font style=&quot;font-size: 9px;&quot;&gt;Stories&lt;br&gt;&lt;/font&gt;&lt;div style=&quot;font-size: 9px;&quot;&gt;&lt;font style=&quot;font-size: 9px;&quot;&gt;Витебск&lt;/font&gt;&lt;/div&gt;" style="shape=hexagon;perimeter=hexagonPerimeter2;whiteSpace=wrap;html=1;fixedSize=1;" vertex="1" parent="NpwBhYP3iQq3_8gegcXe-15">
          <mxGeometry width="70" height="50" as="geometry" />
        </mxCell>
        <mxCell id="e3R3LO29of0bzXxyrNew-57" value="&lt;font style=&quot;font-size: 8px;&quot;&gt;5&lt;/font&gt;" style="rounded=0;whiteSpace=wrap;html=1;" vertex="1" parent="NpwBhYP3iQq3_8gegcXe-15">
          <mxGeometry x="25" width="20" height="10" as="geometry" />
        </mxCell>
        <mxCell id="NpwBhYP3iQq3_8gegcXe-31" style="edgeStyle=orthogonalEdgeStyle;rounded=0;orthogonalLoop=1;jettySize=auto;html=1;" edge="1" parent="NpwBhYP3iQq3_8gegcXe-32" source="e3R3LO29of0bzXxyrNew-56" target="e3R3LO29of0bzXxyrNew-58">
          <mxGeometry relative="1" as="geometry" />
        </mxCell>
        <mxCell id="NpwBhYP3iQq3_8gegcXe-53" value="" style="group" vertex="1" connectable="0" parent="NpwBhYP3iQq3_8gegcXe-88">
          <mxGeometry x="340" y="240" width="150" height="130" as="geometry" />
        </mxCell>
        <mxCell id="NpwBhYP3iQq3_8gegcXe-10" value="" style="group" vertex="1" connectable="0" parent="NpwBhYP3iQq3_8gegcXe-53">
          <mxGeometry x="40" width="70" height="50" as="geometry" />
        </mxCell>
        <mxCell id="e3R3LO29of0bzXxyrNew-62" value="&lt;div&gt;&lt;/div&gt;&lt;div&gt;&lt;br&gt;&lt;/div&gt;&lt;div&gt;Борисов&lt;/div&gt;" style="rounded=0;whiteSpace=wrap;html=1;" vertex="1" parent="NpwBhYP3iQq3_8gegcXe-10">
          <mxGeometry width="70" height="50" as="geometry" />
        </mxCell>
        <mxCell id="e3R3LO29of0bzXxyrNew-63" value="8" style="rounded=0;whiteSpace=wrap;html=1;" vertex="1" parent="NpwBhYP3iQq3_8gegcXe-10">
          <mxGeometry x="20" width="30" height="20" as="geometry" />
        </mxCell>
        <mxCell id="NpwBhYP3iQq3_8gegcXe-47" value="" style="group" vertex="1" connectable="0" parent="NpwBhYP3iQq3_8gegcXe-53">
          <mxGeometry y="80" width="70" height="50" as="geometry" />
        </mxCell>
        <mxCell id="NpwBhYP3iQq3_8gegcXe-42" value="&lt;font style=&quot;font-size: 9px;&quot;&gt;Чашка&lt;br&gt;&lt;/font&gt;&lt;div style=&quot;font-size: 9px;&quot;&gt;&lt;font style=&quot;font-size: 9px;&quot;&gt;Борисов&lt;/font&gt;&lt;/div&gt;" style="shape=hexagon;perimeter=hexagonPerimeter2;whiteSpace=wrap;html=1;fixedSize=1;" vertex="1" parent="NpwBhYP3iQq3_8gegcXe-47">
          <mxGeometry width="70" height="50" as="geometry" />
        </mxCell>
        <mxCell id="NpwBhYP3iQq3_8gegcXe-46" value="&lt;span style=&quot;font-size: 8px;&quot;&gt;11&lt;/span&gt;" style="rounded=0;whiteSpace=wrap;html=1;" vertex="1" parent="NpwBhYP3iQq3_8gegcXe-47">
          <mxGeometry x="25" width="20" height="10" as="geometry" />
        </mxCell>
        <mxCell id="NpwBhYP3iQq3_8gegcXe-48" value="" style="group" vertex="1" connectable="0" parent="NpwBhYP3iQq3_8gegcXe-53">
          <mxGeometry x="80" y="80" width="70" height="50" as="geometry" />
        </mxCell>
        <mxCell id="NpwBhYP3iQq3_8gegcXe-49" value="&lt;font style=&quot;font-size: 9px;&quot;&gt;Сторис&lt;br&gt;&lt;/font&gt;&lt;div style=&quot;font-size: 9px;&quot;&gt;&lt;font style=&quot;font-size: 9px;&quot;&gt;Борисов&lt;/font&gt;&lt;/div&gt;" style="shape=hexagon;perimeter=hexagonPerimeter2;whiteSpace=wrap;html=1;fixedSize=1;" vertex="1" parent="NpwBhYP3iQq3_8gegcXe-48">
          <mxGeometry width="70" height="50" as="geometry" />
        </mxCell>
        <mxCell id="NpwBhYP3iQq3_8gegcXe-50" value="&lt;span style=&quot;font-size: 8px;&quot;&gt;12&lt;/span&gt;" style="rounded=0;whiteSpace=wrap;html=1;" vertex="1" parent="NpwBhYP3iQq3_8gegcXe-48">
          <mxGeometry x="25" width="20" height="10" as="geometry" />
        </mxCell>
        <mxCell id="NpwBhYP3iQq3_8gegcXe-51" style="edgeStyle=orthogonalEdgeStyle;rounded=0;orthogonalLoop=1;jettySize=auto;html=1;entryX=0.5;entryY=1;entryDx=0;entryDy=0;" edge="1" parent="NpwBhYP3iQq3_8gegcXe-53" source="NpwBhYP3iQq3_8gegcXe-42" target="e3R3LO29of0bzXxyrNew-62">
          <mxGeometry relative="1" as="geometry">
            <Array as="points">
              <mxPoint x="35" y="70" />
              <mxPoint x="75" y="70" />
            </Array>
          </mxGeometry>
        </mxCell>
        <mxCell id="NpwBhYP3iQq3_8gegcXe-52" style="edgeStyle=orthogonalEdgeStyle;rounded=0;orthogonalLoop=1;jettySize=auto;html=1;entryX=0.5;entryY=1;entryDx=0;entryDy=0;" edge="1" parent="NpwBhYP3iQq3_8gegcXe-53" source="NpwBhYP3iQq3_8gegcXe-49" target="e3R3LO29of0bzXxyrNew-62">
          <mxGeometry relative="1" as="geometry">
            <Array as="points">
              <mxPoint x="115" y="70" />
              <mxPoint x="75" y="70" />
            </Array>
          </mxGeometry>
        </mxCell>
        <mxCell id="NpwBhYP3iQq3_8gegcXe-61" value="" style="group" vertex="1" connectable="0" parent="NpwBhYP3iQq3_8gegcXe-88">
          <mxGeometry y="240" width="190" height="160" as="geometry" />
        </mxCell>
        <mxCell id="NpwBhYP3iQq3_8gegcXe-37" style="edgeStyle=orthogonalEdgeStyle;rounded=0;orthogonalLoop=1;jettySize=auto;html=1;" edge="1" parent="NpwBhYP3iQq3_8gegcXe-61" source="e3R3LO29of0bzXxyrNew-73" target="e3R3LO29of0bzXxyrNew-50">
          <mxGeometry relative="1" as="geometry">
            <Array as="points">
              <mxPoint x="35" y="70" />
              <mxPoint x="95" y="70" />
            </Array>
          </mxGeometry>
        </mxCell>
        <mxCell id="NpwBhYP3iQq3_8gegcXe-39" style="edgeStyle=orthogonalEdgeStyle;rounded=0;orthogonalLoop=1;jettySize=auto;html=1;" edge="1" parent="NpwBhYP3iQq3_8gegcXe-61" source="NpwBhYP3iQq3_8gegcXe-35" target="e3R3LO29of0bzXxyrNew-50">
          <mxGeometry relative="1" as="geometry">
            <Array as="points">
              <mxPoint x="155" y="70" />
              <mxPoint x="95" y="70" />
            </Array>
          </mxGeometry>
        </mxCell>
        <mxCell id="e3R3LO29of0bzXxyrNew-72" value="&lt;font style=&quot;font-size: 9px;&quot;&gt;Nofilters&lt;br&gt;&lt;/font&gt;&lt;div style=&quot;font-size: 9px;&quot;&gt;&lt;font style=&quot;font-size: 9px;&quot;&gt;Гродно&lt;/font&gt;&lt;/div&gt;" style="shape=hexagon;perimeter=hexagonPerimeter2;whiteSpace=wrap;html=1;fixedSize=1;" vertex="1" parent="NpwBhYP3iQq3_8gegcXe-61">
          <mxGeometry y="80" width="70" height="50" as="geometry" />
        </mxCell>
        <mxCell id="e3R3LO29of0bzXxyrNew-73" value="&lt;font style=&quot;font-size: 8px;&quot;&gt;9&lt;/font&gt;" style="rounded=0;whiteSpace=wrap;html=1;" vertex="1" parent="NpwBhYP3iQq3_8gegcXe-61">
          <mxGeometry x="25" y="80" width="20" height="10" as="geometry" />
        </mxCell>
        <mxCell id="e3R3LO29of0bzXxyrNew-76" value="&lt;font style=&quot;font-size: 9px;&quot;&gt;Memories&lt;br&gt;&lt;/font&gt;&lt;div style=&quot;font-size: 9px;&quot;&gt;&lt;font style=&quot;font-size: 9px;&quot;&gt;Гродно&lt;/font&gt;&lt;/div&gt;" style="shape=hexagon;perimeter=hexagonPerimeter2;whiteSpace=wrap;html=1;fixedSize=1;" vertex="1" parent="NpwBhYP3iQq3_8gegcXe-61">
          <mxGeometry x="60" y="110" width="70" height="50" as="geometry" />
        </mxCell>
        <mxCell id="NpwBhYP3iQq3_8gegcXe-40" style="edgeStyle=orthogonalEdgeStyle;rounded=0;orthogonalLoop=1;jettySize=auto;html=1;entryX=0.5;entryY=1;entryDx=0;entryDy=0;" edge="1" parent="NpwBhYP3iQq3_8gegcXe-61" source="e3R3LO29of0bzXxyrNew-77" target="e3R3LO29of0bzXxyrNew-50">
          <mxGeometry relative="1" as="geometry">
            <mxPoint x="95" y="60.000000000000114" as="targetPoint" />
          </mxGeometry>
        </mxCell>
        <mxCell id="e3R3LO29of0bzXxyrNew-77" value="&lt;font style=&quot;font-size: 8px;&quot;&gt;10&lt;/font&gt;" style="rounded=0;whiteSpace=wrap;html=1;" vertex="1" parent="NpwBhYP3iQq3_8gegcXe-61">
          <mxGeometry x="85" y="110" width="20" height="10" as="geometry" />
        </mxCell>
        <mxCell id="NpwBhYP3iQq3_8gegcXe-35" value="&lt;div&gt;&lt;font style=&quot;font-size: 9px;&quot;&gt;&lt;br&gt;&lt;/font&gt;&lt;/div&gt;&lt;font style=&quot;font-size: 9px;&quot;&gt;Бодрокофеин&lt;br&gt;&lt;/font&gt;&lt;div style=&quot;font-size: 9px;&quot;&gt;&lt;font style=&quot;font-size: 9px;&quot;&gt;Гродно&lt;/font&gt;&lt;/div&gt;" style="shape=hexagon;perimeter=hexagonPerimeter2;whiteSpace=wrap;html=1;fixedSize=1;" vertex="1" parent="NpwBhYP3iQq3_8gegcXe-61">
          <mxGeometry x="120" y="80" width="70" height="50" as="geometry" />
        </mxCell>
        <mxCell id="NpwBhYP3iQq3_8gegcXe-36" value="&lt;font style=&quot;font-size: 8px;&quot;&gt;10&lt;/font&gt;" style="rounded=0;whiteSpace=wrap;html=1;" vertex="1" parent="NpwBhYP3iQq3_8gegcXe-61">
          <mxGeometry x="145" y="80" width="20" height="10" as="geometry" />
        </mxCell>
        <mxCell id="NpwBhYP3iQq3_8gegcXe-60" value="" style="group" vertex="1" connectable="0" parent="NpwBhYP3iQq3_8gegcXe-61">
          <mxGeometry x="60" width="70" height="50" as="geometry" />
        </mxCell>
        <mxCell id="e3R3LO29of0bzXxyrNew-50" value="&lt;div&gt;&lt;/div&gt;&lt;div&gt;&lt;br&gt;&lt;/div&gt;&lt;div&gt;Гродно&lt;/div&gt;" style="rounded=0;whiteSpace=wrap;html=1;" vertex="1" parent="NpwBhYP3iQq3_8gegcXe-60">
          <mxGeometry width="70" height="50" as="geometry" />
        </mxCell>
        <mxCell id="e3R3LO29of0bzXxyrNew-51" value="5" style="rounded=0;whiteSpace=wrap;html=1;" vertex="1" parent="NpwBhYP3iQq3_8gegcXe-60">
          <mxGeometry x="20" width="30" height="20" as="geometry" />
        </mxCell>
        <mxCell id="NpwBhYP3iQq3_8gegcXe-71" value="" style="group" vertex="1" connectable="0" parent="NpwBhYP3iQq3_8gegcXe-88">
          <mxGeometry x="190" y="320" width="150" height="130" as="geometry" />
        </mxCell>
        <mxCell id="NpwBhYP3iQq3_8gegcXe-5" value="" style="group" vertex="1" connectable="0" parent="NpwBhYP3iQq3_8gegcXe-71">
          <mxGeometry x="40" width="70" height="50" as="geometry" />
        </mxCell>
        <mxCell id="e3R3LO29of0bzXxyrNew-42" value="&lt;div&gt;&lt;br&gt;&lt;/div&gt;Брест&lt;div&gt;&lt;/div&gt;" style="rounded=0;whiteSpace=wrap;html=1;" vertex="1" parent="NpwBhYP3iQq3_8gegcXe-5">
          <mxGeometry width="70" height="50" as="geometry" />
        </mxCell>
        <mxCell id="e3R3LO29of0bzXxyrNew-43" value="6" style="rounded=0;whiteSpace=wrap;html=1;" vertex="1" parent="NpwBhYP3iQq3_8gegcXe-5">
          <mxGeometry x="20" width="30" height="20" as="geometry" />
        </mxCell>
        <mxCell id="NpwBhYP3iQq3_8gegcXe-62" value="" style="group" vertex="1" connectable="0" parent="NpwBhYP3iQq3_8gegcXe-71">
          <mxGeometry y="80" width="70" height="50" as="geometry" />
        </mxCell>
        <mxCell id="NpwBhYP3iQq3_8gegcXe-63" value="&lt;font style=&quot;font-size: 9px;&quot;&gt;Березка&lt;br&gt;&lt;/font&gt;&lt;div style=&quot;font-size: 9px;&quot;&gt;&lt;font style=&quot;font-size: 9px;&quot;&gt;Брест&lt;/font&gt;&lt;/div&gt;" style="shape=hexagon;perimeter=hexagonPerimeter2;whiteSpace=wrap;html=1;fixedSize=1;" vertex="1" parent="NpwBhYP3iQq3_8gegcXe-62">
          <mxGeometry width="70" height="50" as="geometry" />
        </mxCell>
        <mxCell id="NpwBhYP3iQq3_8gegcXe-64" value="&lt;font style=&quot;font-size: 8px;&quot;&gt;13&lt;/font&gt;" style="rounded=0;whiteSpace=wrap;html=1;" vertex="1" parent="NpwBhYP3iQq3_8gegcXe-62">
          <mxGeometry x="25" width="20" height="10" as="geometry" />
        </mxCell>
        <mxCell id="NpwBhYP3iQq3_8gegcXe-65" value="" style="group" vertex="1" connectable="0" parent="NpwBhYP3iQq3_8gegcXe-71">
          <mxGeometry x="80" y="80" width="70" height="50" as="geometry" />
        </mxCell>
        <mxCell id="NpwBhYP3iQq3_8gegcXe-66" value="&lt;font style=&quot;font-size: 9px;&quot;&gt;Турка&lt;/font&gt;&lt;div style=&quot;font-size: 9px;&quot;&gt;&lt;font style=&quot;font-size: 9px;&quot;&gt;Брест&lt;/font&gt;&lt;/div&gt;" style="shape=hexagon;perimeter=hexagonPerimeter2;whiteSpace=wrap;html=1;fixedSize=1;" vertex="1" parent="NpwBhYP3iQq3_8gegcXe-65">
          <mxGeometry width="70" height="50" as="geometry" />
        </mxCell>
        <mxCell id="NpwBhYP3iQq3_8gegcXe-67" value="&lt;font style=&quot;font-size: 8px;&quot;&gt;14&lt;/font&gt;" style="rounded=0;whiteSpace=wrap;html=1;" vertex="1" parent="NpwBhYP3iQq3_8gegcXe-65">
          <mxGeometry x="25" width="20" height="10" as="geometry" />
        </mxCell>
        <mxCell id="NpwBhYP3iQq3_8gegcXe-68" style="edgeStyle=orthogonalEdgeStyle;rounded=0;orthogonalLoop=1;jettySize=auto;html=1;" edge="1" parent="NpwBhYP3iQq3_8gegcXe-71" source="NpwBhYP3iQq3_8gegcXe-64" target="e3R3LO29of0bzXxyrNew-42">
          <mxGeometry relative="1" as="geometry">
            <Array as="points">
              <mxPoint x="35" y="70" />
              <mxPoint x="75" y="70" />
            </Array>
          </mxGeometry>
        </mxCell>
        <mxCell id="NpwBhYP3iQq3_8gegcXe-70" style="edgeStyle=orthogonalEdgeStyle;rounded=0;orthogonalLoop=1;jettySize=auto;html=1;entryX=0.5;entryY=1;entryDx=0;entryDy=0;" edge="1" parent="NpwBhYP3iQq3_8gegcXe-71" source="NpwBhYP3iQq3_8gegcXe-66" target="e3R3LO29of0bzXxyrNew-42">
          <mxGeometry relative="1" as="geometry">
            <Array as="points">
              <mxPoint x="115" y="70" />
              <mxPoint x="75" y="70" />
            </Array>
          </mxGeometry>
        </mxCell>
        <mxCell id="NpwBhYP3iQq3_8gegcXe-84" value="" style="group" vertex="1" connectable="0" parent="NpwBhYP3iQq3_8gegcXe-88">
          <mxGeometry x="630" width="70" height="130" as="geometry" />
        </mxCell>
        <mxCell id="NpwBhYP3iQq3_8gegcXe-11" value="" style="group" vertex="1" connectable="0" parent="NpwBhYP3iQq3_8gegcXe-84">
          <mxGeometry width="70" height="50" as="geometry" />
        </mxCell>
        <mxCell id="e3R3LO29of0bzXxyrNew-66" value="&lt;div&gt;&lt;/div&gt;&lt;div&gt;&lt;br&gt;&lt;/div&gt;&lt;div&gt;Мозырь&lt;/div&gt;" style="rounded=0;whiteSpace=wrap;html=1;" vertex="1" parent="NpwBhYP3iQq3_8gegcXe-11">
          <mxGeometry width="70" height="50" as="geometry" />
        </mxCell>
        <mxCell id="e3R3LO29of0bzXxyrNew-67" value="9" style="rounded=0;whiteSpace=wrap;html=1;" vertex="1" parent="NpwBhYP3iQq3_8gegcXe-11">
          <mxGeometry x="20" width="30" height="20" as="geometry" />
        </mxCell>
        <mxCell id="NpwBhYP3iQq3_8gegcXe-72" value="" style="group" vertex="1" connectable="0" parent="NpwBhYP3iQq3_8gegcXe-84">
          <mxGeometry y="80" width="70" height="50" as="geometry" />
        </mxCell>
        <mxCell id="NpwBhYP3iQq3_8gegcXe-73" value="&lt;div&gt;&lt;font style=&quot;font-size: 9px;&quot;&gt;&lt;br&gt;&lt;/font&gt;&lt;/div&gt;&lt;font style=&quot;font-size: 9px;&quot;&gt;Воспоминания&lt;br&gt;&lt;/font&gt;&lt;div style=&quot;font-size: 9px;&quot;&gt;&lt;font style=&quot;font-size: 9px;&quot;&gt;Мозырь&lt;/font&gt;&lt;/div&gt;" style="shape=hexagon;perimeter=hexagonPerimeter2;whiteSpace=wrap;html=1;fixedSize=1;" vertex="1" parent="NpwBhYP3iQq3_8gegcXe-72">
          <mxGeometry width="70" height="50" as="geometry" />
        </mxCell>
        <mxCell id="NpwBhYP3iQq3_8gegcXe-74" value="&lt;font style=&quot;font-size: 8px;&quot;&gt;15&lt;/font&gt;" style="rounded=0;whiteSpace=wrap;html=1;" vertex="1" parent="NpwBhYP3iQq3_8gegcXe-72">
          <mxGeometry x="25" width="20" height="10" as="geometry" />
        </mxCell>
        <mxCell id="NpwBhYP3iQq3_8gegcXe-81" style="edgeStyle=orthogonalEdgeStyle;rounded=0;orthogonalLoop=1;jettySize=auto;html=1;entryX=0.5;entryY=1;entryDx=0;entryDy=0;" edge="1" parent="NpwBhYP3iQq3_8gegcXe-84" source="NpwBhYP3iQq3_8gegcXe-73" target="e3R3LO29of0bzXxyrNew-66">
          <mxGeometry relative="1" as="geometry" />
        </mxCell>
        <mxCell id="NpwBhYP3iQq3_8gegcXe-85" value="" style="group" vertex="1" connectable="0" parent="NpwBhYP3iQq3_8gegcXe-88">
          <mxGeometry x="530" y="320" width="70" height="130" as="geometry" />
        </mxCell>
        <mxCell id="NpwBhYP3iQq3_8gegcXe-12" value="" style="group" vertex="1" connectable="0" parent="NpwBhYP3iQq3_8gegcXe-85">
          <mxGeometry width="70" height="50" as="geometry" />
        </mxCell>
        <mxCell id="e3R3LO29of0bzXxyrNew-70" value="&lt;div&gt;&lt;/div&gt;&lt;div&gt;&lt;br&gt;&lt;/div&gt;&lt;div&gt;Барановичи&lt;/div&gt;" style="rounded=0;whiteSpace=wrap;html=1;" vertex="1" parent="NpwBhYP3iQq3_8gegcXe-12">
          <mxGeometry width="70" height="50" as="geometry" />
        </mxCell>
        <mxCell id="e3R3LO29of0bzXxyrNew-71" value="7" style="rounded=0;whiteSpace=wrap;html=1;" vertex="1" parent="NpwBhYP3iQq3_8gegcXe-12">
          <mxGeometry x="20" width="30" height="20" as="geometry" />
        </mxCell>
        <mxCell id="NpwBhYP3iQq3_8gegcXe-75" value="" style="group" vertex="1" connectable="0" parent="NpwBhYP3iQq3_8gegcXe-85">
          <mxGeometry y="80" width="70" height="50" as="geometry" />
        </mxCell>
        <mxCell id="NpwBhYP3iQq3_8gegcXe-76" value="&lt;font style=&quot;font-size: 9px;&quot;&gt;КофеСаунд&lt;/font&gt;&lt;div style=&quot;font-size: 9px;&quot;&gt;&lt;font style=&quot;font-size: 9px;&quot;&gt;Барановичи&lt;/font&gt;&lt;/div&gt;" style="shape=hexagon;perimeter=hexagonPerimeter2;whiteSpace=wrap;html=1;fixedSize=1;" vertex="1" parent="NpwBhYP3iQq3_8gegcXe-75">
          <mxGeometry width="70" height="50" as="geometry" />
        </mxCell>
        <mxCell id="NpwBhYP3iQq3_8gegcXe-77" value="&lt;font style=&quot;font-size: 8px;&quot;&gt;16&lt;/font&gt;" style="rounded=0;whiteSpace=wrap;html=1;" vertex="1" parent="NpwBhYP3iQq3_8gegcXe-75">
          <mxGeometry x="25" width="20" height="10" as="geometry" />
        </mxCell>
        <mxCell id="NpwBhYP3iQq3_8gegcXe-82" style="edgeStyle=orthogonalEdgeStyle;rounded=0;orthogonalLoop=1;jettySize=auto;html=1;entryX=0.5;entryY=1;entryDx=0;entryDy=0;" edge="1" parent="NpwBhYP3iQq3_8gegcXe-85" source="NpwBhYP3iQq3_8gegcXe-76" target="e3R3LO29of0bzXxyrNew-70">
          <mxGeometry relative="1" as="geometry" />
        </mxCell>
        <mxCell id="NpwBhYP3iQq3_8gegcXe-86" value="" style="group" vertex="1" connectable="0" parent="NpwBhYP3iQq3_8gegcXe-88">
          <mxGeometry x="630" y="240" width="70" height="130" as="geometry" />
        </mxCell>
        <mxCell id="NpwBhYP3iQq3_8gegcXe-13" value="" style="group" vertex="1" connectable="0" parent="NpwBhYP3iQq3_8gegcXe-86">
          <mxGeometry width="70" height="50" as="geometry" />
        </mxCell>
        <mxCell id="e3R3LO29of0bzXxyrNew-74" value="&lt;div&gt;&lt;/div&gt;&lt;div&gt;&lt;br&gt;&lt;/div&gt;&lt;div&gt;Орша&lt;/div&gt;" style="rounded=0;whiteSpace=wrap;html=1;" vertex="1" parent="NpwBhYP3iQq3_8gegcXe-13">
          <mxGeometry width="70" height="50" as="geometry" />
        </mxCell>
        <mxCell id="e3R3LO29of0bzXxyrNew-75" value="10" style="rounded=0;whiteSpace=wrap;html=1;" vertex="1" parent="NpwBhYP3iQq3_8gegcXe-13">
          <mxGeometry x="20" width="30" height="20" as="geometry" />
        </mxCell>
        <mxCell id="NpwBhYP3iQq3_8gegcXe-78" value="" style="group" vertex="1" connectable="0" parent="NpwBhYP3iQq3_8gegcXe-86">
          <mxGeometry y="80" width="70" height="50" as="geometry" />
        </mxCell>
        <mxCell id="NpwBhYP3iQq3_8gegcXe-79" value="&lt;font style=&quot;font-size: 9px;&quot;&gt;Hotfix&lt;/font&gt;&lt;div style=&quot;font-size: 9px;&quot;&gt;&lt;font style=&quot;font-size: 9px;&quot;&gt;Орша&lt;/font&gt;&lt;/div&gt;" style="shape=hexagon;perimeter=hexagonPerimeter2;whiteSpace=wrap;html=1;fixedSize=1;" vertex="1" parent="NpwBhYP3iQq3_8gegcXe-78">
          <mxGeometry width="70" height="50" as="geometry" />
        </mxCell>
        <mxCell id="NpwBhYP3iQq3_8gegcXe-80" value="&lt;font style=&quot;font-size: 8px;&quot;&gt;17&lt;/font&gt;" style="rounded=0;whiteSpace=wrap;html=1;" vertex="1" parent="NpwBhYP3iQq3_8gegcXe-78">
          <mxGeometry x="25" width="20" height="10" as="geometry" />
        </mxCell>
        <mxCell id="NpwBhYP3iQq3_8gegcXe-83" style="edgeStyle=orthogonalEdgeStyle;rounded=0;orthogonalLoop=1;jettySize=auto;html=1;entryX=0.5;entryY=1;entryDx=0;entryDy=0;" edge="1" parent="NpwBhYP3iQq3_8gegcXe-86" source="NpwBhYP3iQq3_8gegcXe-79" target="e3R3LO29of0bzXxyrNew-74">
          <mxGeometry relative="1" as="geometry" />
        </mxCell>
      </root>
    </mxGraphModel>
  </diagram>
  <diagram id="djUDWxthFa2kJOluEqhG" name="Поставляет в">
    <mxGraphModel dx="1247" dy="727" grid="1" gridSize="10" guides="1" tooltips="1" connect="1" arrows="1" fold="1" page="1" pageScale="1" pageWidth="827" pageHeight="1169" math="0" shadow="0">
      <root>
        <mxCell id="0" />
        <mxCell id="1" parent="0" />
        <mxCell id="GsneJW20h7BYV699IqLu-9" value="" style="group;movable=0;resizable=0;rotatable=0;deletable=0;editable=0;locked=1;connectable=0;" vertex="1" connectable="0" parent="1">
          <mxGeometry x="60" y="300" width="620" height="570" as="geometry" />
        </mxCell>
        <mxCell id="lj1tq4skUYszU8ZGq7pm-1" value="" style="group" vertex="1" connectable="0" parent="GsneJW20h7BYV699IqLu-9">
          <mxGeometry y="350" width="70" height="50" as="geometry" />
        </mxCell>
        <mxCell id="EL_ckhMDxpt_6HQ5DJ5w-87" value="&lt;div&gt;&lt;/div&gt;&lt;div style=&quot;font-size: 9px;&quot;&gt;&lt;font style=&quot;font-size: 9px;&quot;&gt;&lt;br&gt;&lt;/font&gt;&lt;/div&gt;&lt;div style=&quot;font-size: 9px;&quot;&gt;&lt;font style=&quot;font-size: 9px;&quot;&gt;Кофе-Трейд&lt;/font&gt;&lt;br&gt;&lt;/div&gt;" style="rounded=0;whiteSpace=wrap;html=1;" vertex="1" parent="lj1tq4skUYszU8ZGq7pm-1">
          <mxGeometry width="70" height="50" as="geometry" />
        </mxCell>
        <mxCell id="EL_ckhMDxpt_6HQ5DJ5w-88" value="10" style="rounded=0;whiteSpace=wrap;html=1;" vertex="1" parent="lj1tq4skUYszU8ZGq7pm-1">
          <mxGeometry x="20" width="30" height="20" as="geometry" />
        </mxCell>
        <mxCell id="lj1tq4skUYszU8ZGq7pm-2" value="" style="group" vertex="1" connectable="0" parent="GsneJW20h7BYV699IqLu-9">
          <mxGeometry y="170" width="70" height="50" as="geometry" />
        </mxCell>
        <mxCell id="EL_ckhMDxpt_6HQ5DJ5w-51" value="&lt;div&gt;&lt;/div&gt;&lt;div style=&quot;font-size: 9px;&quot;&gt;&lt;font style=&quot;font-size: 9px;&quot;&gt;&lt;br&gt;&lt;/font&gt;&lt;/div&gt;&lt;div style=&quot;font-size: 9px;&quot;&gt;&lt;font style=&quot;font-size: 9px;&quot;&gt;Кофеэкспорт&lt;/font&gt;&lt;br&gt;&lt;/div&gt;" style="rounded=0;whiteSpace=wrap;html=1;" vertex="1" parent="lj1tq4skUYszU8ZGq7pm-2">
          <mxGeometry width="70" height="50" as="geometry" />
        </mxCell>
        <mxCell id="EL_ckhMDxpt_6HQ5DJ5w-52" value="1" style="rounded=0;whiteSpace=wrap;html=1;" vertex="1" parent="lj1tq4skUYszU8ZGq7pm-2">
          <mxGeometry x="20" width="30" height="20" as="geometry" />
        </mxCell>
        <mxCell id="lj1tq4skUYszU8ZGq7pm-3" value="" style="group" vertex="1" connectable="0" parent="GsneJW20h7BYV699IqLu-9">
          <mxGeometry x="270" width="70" height="50" as="geometry" />
        </mxCell>
        <mxCell id="EL_ckhMDxpt_6HQ5DJ5w-55" value="&lt;div style=&quot;font-size: 9px;&quot;&gt;&lt;font style=&quot;font-size: 9px;&quot;&gt;&lt;br&gt;&lt;/font&gt;&lt;/div&gt;&lt;font style=&quot;font-size: 9px;&quot;&gt;Кофейный мир&lt;/font&gt;&lt;div&gt;&lt;/div&gt;&lt;div&gt;&lt;/div&gt;" style="rounded=0;whiteSpace=wrap;html=1;" vertex="1" parent="lj1tq4skUYszU8ZGq7pm-3">
          <mxGeometry width="70" height="50" as="geometry" />
        </mxCell>
        <mxCell id="EL_ckhMDxpt_6HQ5DJ5w-56" value="2" style="rounded=0;whiteSpace=wrap;html=1;" vertex="1" parent="lj1tq4skUYszU8ZGq7pm-3">
          <mxGeometry x="20" width="30" height="20" as="geometry" />
        </mxCell>
        <mxCell id="lj1tq4skUYszU8ZGq7pm-4" value="" style="group" vertex="1" connectable="0" parent="GsneJW20h7BYV699IqLu-9">
          <mxGeometry x="330" y="260" width="70" height="50" as="geometry" />
        </mxCell>
        <mxCell id="EL_ckhMDxpt_6HQ5DJ5w-59" value="&lt;div&gt;&lt;/div&gt;&lt;div style=&quot;font-size: 9px;&quot;&gt;&lt;font style=&quot;font-size: 9px;&quot;&gt;&lt;br&gt;&lt;/font&gt;&lt;/div&gt;&lt;div style=&quot;font-size: 9px;&quot;&gt;&lt;font style=&quot;font-size: 9px;&quot;&gt;Кофе-Хаус&lt;/font&gt;&lt;br&gt;&lt;/div&gt;" style="rounded=0;whiteSpace=wrap;html=1;" vertex="1" parent="lj1tq4skUYszU8ZGq7pm-4">
          <mxGeometry width="70" height="50" as="geometry" />
        </mxCell>
        <mxCell id="EL_ckhMDxpt_6HQ5DJ5w-60" value="3" style="rounded=0;whiteSpace=wrap;html=1;" vertex="1" parent="lj1tq4skUYszU8ZGq7pm-4">
          <mxGeometry x="20" width="30" height="20" as="geometry" />
        </mxCell>
        <mxCell id="lj1tq4skUYszU8ZGq7pm-5" value="" style="group" vertex="1" connectable="0" parent="GsneJW20h7BYV699IqLu-9">
          <mxGeometry x="440" width="70" height="50" as="geometry" />
        </mxCell>
        <mxCell id="EL_ckhMDxpt_6HQ5DJ5w-63" value="&lt;div&gt;&lt;/div&gt;&lt;div style=&quot;font-size: 9px;&quot;&gt;&lt;font style=&quot;font-size: 9px;&quot;&gt;&lt;br&gt;&lt;/font&gt;&lt;/div&gt;&lt;div style=&quot;font-size: 9px;&quot;&gt;&lt;font style=&quot;font-size: 9px;&quot;&gt;Кофеиновый&lt;/font&gt;&lt;br&gt;&lt;/div&gt;" style="rounded=0;whiteSpace=wrap;html=1;" vertex="1" parent="lj1tq4skUYszU8ZGq7pm-5">
          <mxGeometry width="70" height="50" as="geometry" />
        </mxCell>
        <mxCell id="EL_ckhMDxpt_6HQ5DJ5w-64" value="4" style="rounded=0;whiteSpace=wrap;html=1;" vertex="1" parent="lj1tq4skUYszU8ZGq7pm-5">
          <mxGeometry x="20" width="30" height="20" as="geometry" />
        </mxCell>
        <mxCell id="lj1tq4skUYszU8ZGq7pm-6" value="" style="group" vertex="1" connectable="0" parent="GsneJW20h7BYV699IqLu-9">
          <mxGeometry x="550" y="220" width="70" height="50" as="geometry" />
        </mxCell>
        <mxCell id="EL_ckhMDxpt_6HQ5DJ5w-67" value="&lt;div&gt;&lt;/div&gt;&lt;div style=&quot;font-size: 9px;&quot;&gt;&lt;font style=&quot;font-size: 9px;&quot;&gt;&lt;br&gt;&lt;/font&gt;&lt;/div&gt;&lt;div style=&quot;font-size: 9px;&quot;&gt;&lt;font style=&quot;font-size: 9px;&quot;&gt;Кофе-Престиж&lt;/font&gt;&lt;br&gt;&lt;/div&gt;" style="rounded=0;whiteSpace=wrap;html=1;" vertex="1" parent="lj1tq4skUYszU8ZGq7pm-6">
          <mxGeometry width="70" height="50" as="geometry" />
        </mxCell>
        <mxCell id="EL_ckhMDxpt_6HQ5DJ5w-68" value="5" style="rounded=0;whiteSpace=wrap;html=1;" vertex="1" parent="lj1tq4skUYszU8ZGq7pm-6">
          <mxGeometry x="20" width="30" height="20" as="geometry" />
        </mxCell>
        <mxCell id="lj1tq4skUYszU8ZGq7pm-7" value="" style="group" vertex="1" connectable="0" parent="GsneJW20h7BYV699IqLu-9">
          <mxGeometry x="330" y="340" width="70" height="50" as="geometry" />
        </mxCell>
        <mxCell id="EL_ckhMDxpt_6HQ5DJ5w-71" value="&lt;div&gt;&lt;/div&gt;&lt;div style=&quot;font-size: 9px;&quot;&gt;&lt;font style=&quot;font-size: 9px;&quot;&gt;&lt;br&gt;&lt;/font&gt;&lt;/div&gt;&lt;div style=&quot;font-size: 9px;&quot;&gt;&lt;font style=&quot;font-size: 9px;&quot;&gt;Кофе-Люкс&lt;/font&gt;&lt;br&gt;&lt;/div&gt;" style="rounded=0;whiteSpace=wrap;html=1;" vertex="1" parent="lj1tq4skUYszU8ZGq7pm-7">
          <mxGeometry width="70" height="50" as="geometry" />
        </mxCell>
        <mxCell id="EL_ckhMDxpt_6HQ5DJ5w-72" value="6" style="rounded=0;whiteSpace=wrap;html=1;" vertex="1" parent="lj1tq4skUYszU8ZGq7pm-7">
          <mxGeometry x="20" width="30" height="20" as="geometry" />
        </mxCell>
        <mxCell id="lj1tq4skUYszU8ZGq7pm-8" value="" style="group" vertex="1" connectable="0" parent="GsneJW20h7BYV699IqLu-9">
          <mxGeometry x="550" y="380" width="70" height="50" as="geometry" />
        </mxCell>
        <mxCell id="EL_ckhMDxpt_6HQ5DJ5w-75" value="&lt;div&gt;&lt;/div&gt;&lt;div style=&quot;font-size: 9px;&quot;&gt;&lt;font style=&quot;font-size: 9px;&quot;&gt;&lt;br&gt;&lt;/font&gt;&lt;/div&gt;&lt;div style=&quot;font-size: 9px;&quot;&gt;&lt;font style=&quot;font-size: 9px;&quot;&gt;Кофе-Элита&lt;/font&gt;&lt;br&gt;&lt;/div&gt;" style="rounded=0;whiteSpace=wrap;html=1;" vertex="1" parent="lj1tq4skUYszU8ZGq7pm-8">
          <mxGeometry width="70" height="50" as="geometry" />
        </mxCell>
        <mxCell id="EL_ckhMDxpt_6HQ5DJ5w-76" value="7" style="rounded=0;whiteSpace=wrap;html=1;" vertex="1" parent="lj1tq4skUYszU8ZGq7pm-8">
          <mxGeometry x="20" width="30" height="20" as="geometry" />
        </mxCell>
        <mxCell id="lj1tq4skUYszU8ZGq7pm-9" value="" style="group" vertex="1" connectable="0" parent="GsneJW20h7BYV699IqLu-9">
          <mxGeometry x="220" y="520" width="70" height="50" as="geometry" />
        </mxCell>
        <mxCell id="EL_ckhMDxpt_6HQ5DJ5w-83" value="&lt;div&gt;&lt;/div&gt;&lt;div style=&quot;font-size: 9px;&quot;&gt;&lt;font style=&quot;font-size: 9px;&quot;&gt;&lt;br&gt;&lt;/font&gt;&lt;/div&gt;&lt;div style=&quot;font-size: 9px;&quot;&gt;&lt;font style=&quot;font-size: 9px;&quot;&gt;Кофейный рейн&lt;/font&gt;&lt;br&gt;&lt;/div&gt;" style="rounded=0;whiteSpace=wrap;html=1;" vertex="1" parent="lj1tq4skUYszU8ZGq7pm-9">
          <mxGeometry width="70" height="50" as="geometry" />
        </mxCell>
        <mxCell id="EL_ckhMDxpt_6HQ5DJ5w-84" value="9" style="rounded=0;whiteSpace=wrap;html=1;" vertex="1" parent="lj1tq4skUYszU8ZGq7pm-9">
          <mxGeometry x="20" width="30" height="20" as="geometry" />
        </mxCell>
        <mxCell id="lj1tq4skUYszU8ZGq7pm-10" value="" style="group" vertex="1" connectable="0" parent="GsneJW20h7BYV699IqLu-9">
          <mxGeometry x="220" y="260" width="70" height="50" as="geometry" />
        </mxCell>
        <mxCell id="EL_ckhMDxpt_6HQ5DJ5w-79" value="&lt;div&gt;&lt;/div&gt;&lt;div style=&quot;font-size: 9px;&quot;&gt;&lt;font style=&quot;font-size: 9px;&quot;&gt;&lt;br&gt;&lt;/font&gt;&lt;/div&gt;&lt;div style=&quot;font-size: 9px;&quot;&gt;&lt;font style=&quot;font-size: 9px;&quot;&gt;Кофе-Профи&lt;/font&gt;&lt;br&gt;&lt;/div&gt;" style="rounded=0;whiteSpace=wrap;html=1;" vertex="1" parent="lj1tq4skUYszU8ZGq7pm-10">
          <mxGeometry width="70" height="50" as="geometry" />
        </mxCell>
        <mxCell id="EL_ckhMDxpt_6HQ5DJ5w-80" value="8" style="rounded=0;whiteSpace=wrap;html=1;" vertex="1" parent="lj1tq4skUYszU8ZGq7pm-10">
          <mxGeometry x="20" width="30" height="20" as="geometry" />
        </mxCell>
        <mxCell id="lj1tq4skUYszU8ZGq7pm-11" value="" style="group" vertex="1" connectable="0" parent="GsneJW20h7BYV699IqLu-9">
          <mxGeometry x="110" y="260" width="70" height="50" as="geometry" />
        </mxCell>
        <mxCell id="EL_ckhMDxpt_6HQ5DJ5w-53" value="&lt;font style=&quot;font-size: 9px;&quot;&gt;Myloverberry&lt;/font&gt;&lt;div style=&quot;font-size: 9px;&quot;&gt;&lt;font style=&quot;font-size: 9px;&quot;&gt;Минск&lt;/font&gt;&lt;/div&gt;" style="shape=hexagon;perimeter=hexagonPerimeter2;whiteSpace=wrap;html=1;fixedSize=1;" vertex="1" parent="lj1tq4skUYszU8ZGq7pm-11">
          <mxGeometry width="70" height="50" as="geometry" />
        </mxCell>
        <mxCell id="EL_ckhMDxpt_6HQ5DJ5w-54" value="&lt;font style=&quot;font-size: 8px;&quot;&gt;1&lt;/font&gt;" style="rounded=0;whiteSpace=wrap;html=1;" vertex="1" parent="lj1tq4skUYszU8ZGq7pm-11">
          <mxGeometry x="25" width="20" height="10" as="geometry" />
        </mxCell>
        <mxCell id="lj1tq4skUYszU8ZGq7pm-12" value="" style="group" vertex="1" connectable="0" parent="GsneJW20h7BYV699IqLu-9">
          <mxGeometry x="220" y="340" width="70" height="50" as="geometry" />
        </mxCell>
        <mxCell id="EL_ckhMDxpt_6HQ5DJ5w-85" value="&lt;font style=&quot;font-size: 9px;&quot;&gt;Nofilters&lt;br&gt;&lt;/font&gt;&lt;div style=&quot;font-size: 9px;&quot;&gt;&lt;font style=&quot;font-size: 9px;&quot;&gt;Барановичи&lt;/font&gt;&lt;/div&gt;" style="shape=hexagon;perimeter=hexagonPerimeter2;whiteSpace=wrap;html=1;fixedSize=1;" vertex="1" parent="lj1tq4skUYszU8ZGq7pm-12">
          <mxGeometry width="70" height="50" as="geometry" />
        </mxCell>
        <mxCell id="EL_ckhMDxpt_6HQ5DJ5w-86" value="&lt;font style=&quot;font-size: 8px;&quot;&gt;9&lt;/font&gt;" style="rounded=0;whiteSpace=wrap;html=1;" vertex="1" parent="lj1tq4skUYszU8ZGq7pm-12">
          <mxGeometry x="25" width="20" height="10" as="geometry" />
        </mxCell>
        <mxCell id="lj1tq4skUYszU8ZGq7pm-13" value="" style="group" vertex="1" connectable="0" parent="GsneJW20h7BYV699IqLu-9">
          <mxGeometry x="440" y="180" width="70" height="50" as="geometry" />
        </mxCell>
        <mxCell id="EL_ckhMDxpt_6HQ5DJ5w-77" value="&lt;font style=&quot;font-size: 9px;&quot;&gt;Cofix&lt;br&gt;&lt;/font&gt;&lt;div style=&quot;font-size: 9px;&quot;&gt;&lt;font style=&quot;font-size: 9px;&quot;&gt;Борисов&lt;/font&gt;&lt;/div&gt;" style="shape=hexagon;perimeter=hexagonPerimeter2;whiteSpace=wrap;html=1;fixedSize=1;" vertex="1" parent="lj1tq4skUYszU8ZGq7pm-13">
          <mxGeometry width="70" height="50" as="geometry" />
        </mxCell>
        <mxCell id="EL_ckhMDxpt_6HQ5DJ5w-78" value="&lt;font style=&quot;font-size: 8px;&quot;&gt;7&lt;/font&gt;" style="rounded=0;whiteSpace=wrap;html=1;" vertex="1" parent="lj1tq4skUYszU8ZGq7pm-13">
          <mxGeometry x="25" width="20" height="10" as="geometry" />
        </mxCell>
        <mxCell id="lj1tq4skUYszU8ZGq7pm-14" value="" style="group" vertex="1" connectable="0" parent="GsneJW20h7BYV699IqLu-9">
          <mxGeometry x="440" y="80" width="70" height="50" as="geometry" />
        </mxCell>
        <mxCell id="EL_ckhMDxpt_6HQ5DJ5w-73" value="&lt;font style=&quot;font-size: 9px;&quot;&gt;Varka&lt;br&gt;&lt;/font&gt;&lt;div style=&quot;font-size: 9px;&quot;&gt;&lt;font style=&quot;font-size: 9px;&quot;&gt;Витебск&lt;/font&gt;&lt;/div&gt;" style="shape=hexagon;perimeter=hexagonPerimeter2;whiteSpace=wrap;html=1;fixedSize=1;" vertex="1" parent="lj1tq4skUYszU8ZGq7pm-14">
          <mxGeometry width="70" height="50" as="geometry" />
        </mxCell>
        <mxCell id="EL_ckhMDxpt_6HQ5DJ5w-74" value="&lt;font style=&quot;font-size: 8px;&quot;&gt;6&lt;/font&gt;" style="rounded=0;whiteSpace=wrap;html=1;" vertex="1" parent="lj1tq4skUYszU8ZGq7pm-14">
          <mxGeometry x="25" width="20" height="10" as="geometry" />
        </mxCell>
        <mxCell id="lj1tq4skUYszU8ZGq7pm-15" value="" style="group" vertex="1" connectable="0" parent="GsneJW20h7BYV699IqLu-9">
          <mxGeometry x="440" y="340" width="70" height="50" as="geometry" />
        </mxCell>
        <mxCell id="EL_ckhMDxpt_6HQ5DJ5w-89" value="&lt;font style=&quot;font-size: 9px;&quot;&gt;Memories&lt;br&gt;&lt;/font&gt;&lt;div style=&quot;font-size: 9px;&quot;&gt;&lt;font style=&quot;font-size: 9px;&quot;&gt;Орша&lt;/font&gt;&lt;/div&gt;" style="shape=hexagon;perimeter=hexagonPerimeter2;whiteSpace=wrap;html=1;fixedSize=1;" vertex="1" parent="lj1tq4skUYszU8ZGq7pm-15">
          <mxGeometry width="70" height="50" as="geometry" />
        </mxCell>
        <mxCell id="EL_ckhMDxpt_6HQ5DJ5w-90" value="&lt;font style=&quot;font-size: 8px;&quot;&gt;10&lt;/font&gt;" style="rounded=0;whiteSpace=wrap;html=1;" vertex="1" parent="lj1tq4skUYszU8ZGq7pm-15">
          <mxGeometry x="25" width="20" height="10" as="geometry" />
        </mxCell>
        <mxCell id="lj1tq4skUYszU8ZGq7pm-16" value="" style="group" vertex="1" connectable="0" parent="GsneJW20h7BYV699IqLu-9">
          <mxGeometry x="220" y="80" width="70" height="50" as="geometry" />
        </mxCell>
        <mxCell id="EL_ckhMDxpt_6HQ5DJ5w-65" value="&lt;font style=&quot;font-size: 9px;&quot;&gt;CoffeeMouse&lt;br&gt;&lt;/font&gt;&lt;div style=&quot;font-size: 9px;&quot;&gt;&lt;font style=&quot;font-size: 9px;&quot;&gt;Гродно&lt;/font&gt;&lt;/div&gt;" style="shape=hexagon;perimeter=hexagonPerimeter2;whiteSpace=wrap;html=1;fixedSize=1;" vertex="1" parent="lj1tq4skUYszU8ZGq7pm-16">
          <mxGeometry width="70" height="50" as="geometry" />
        </mxCell>
        <mxCell id="EL_ckhMDxpt_6HQ5DJ5w-66" value="&lt;font style=&quot;font-size: 8px;&quot;&gt;4&lt;/font&gt;" style="rounded=0;whiteSpace=wrap;html=1;" vertex="1" parent="lj1tq4skUYszU8ZGq7pm-16">
          <mxGeometry x="25" width="20" height="10" as="geometry" />
        </mxCell>
        <mxCell id="lj1tq4skUYszU8ZGq7pm-17" value="" style="group" vertex="1" connectable="0" parent="GsneJW20h7BYV699IqLu-9">
          <mxGeometry x="330" y="80" width="94" height="80" as="geometry" />
        </mxCell>
        <mxCell id="EL_ckhMDxpt_6HQ5DJ5w-69" value="&lt;font style=&quot;font-size: 9px;&quot;&gt;Stories&lt;br&gt;&lt;/font&gt;&lt;div style=&quot;font-size: 9px;&quot;&gt;&lt;font style=&quot;font-size: 9px;&quot;&gt;Могилев&lt;/font&gt;&lt;/div&gt;" style="shape=hexagon;perimeter=hexagonPerimeter2;whiteSpace=wrap;html=1;fixedSize=1;" vertex="1" parent="lj1tq4skUYszU8ZGq7pm-17">
          <mxGeometry width="70" height="50" as="geometry" />
        </mxCell>
        <mxCell id="EL_ckhMDxpt_6HQ5DJ5w-70" value="&lt;font style=&quot;font-size: 8px;&quot;&gt;5&lt;/font&gt;" style="rounded=0;whiteSpace=wrap;html=1;" vertex="1" parent="lj1tq4skUYszU8ZGq7pm-17">
          <mxGeometry x="25" width="20" height="10" as="geometry" />
        </mxCell>
        <mxCell id="lj1tq4skUYszU8ZGq7pm-18" value="" style="group" vertex="1" connectable="0" parent="GsneJW20h7BYV699IqLu-9">
          <mxGeometry x="110" y="170" width="70" height="50" as="geometry" />
        </mxCell>
        <mxCell id="EL_ckhMDxpt_6HQ5DJ5w-57" value="&lt;font style=&quot;font-size: 9px;&quot;&gt;Paragraph&lt;br&gt;&lt;/font&gt;&lt;div style=&quot;font-size: 9px;&quot;&gt;&lt;font style=&quot;font-size: 9px;&quot;&gt;Брест&lt;/font&gt;&lt;/div&gt;" style="shape=hexagon;perimeter=hexagonPerimeter2;whiteSpace=wrap;html=1;fixedSize=1;" vertex="1" parent="lj1tq4skUYszU8ZGq7pm-18">
          <mxGeometry width="70" height="50" as="geometry" />
        </mxCell>
        <mxCell id="EL_ckhMDxpt_6HQ5DJ5w-58" value="&lt;font style=&quot;font-size: 8px;&quot;&gt;2&lt;/font&gt;" style="rounded=0;whiteSpace=wrap;html=1;" vertex="1" parent="lj1tq4skUYszU8ZGq7pm-18">
          <mxGeometry x="25" width="20" height="10" as="geometry" />
        </mxCell>
        <mxCell id="lj1tq4skUYszU8ZGq7pm-19" value="" style="group" vertex="1" connectable="0" parent="GsneJW20h7BYV699IqLu-9">
          <mxGeometry x="110" y="80" width="70" height="50" as="geometry" />
        </mxCell>
        <mxCell id="EL_ckhMDxpt_6HQ5DJ5w-61" value="&lt;font style=&quot;font-size: 9px;&quot;&gt;LoveMyrr&lt;br&gt;&lt;/font&gt;&lt;div style=&quot;font-size: 9px;&quot;&gt;&lt;font style=&quot;font-size: 9px;&quot;&gt;Гомель&lt;/font&gt;&lt;/div&gt;" style="shape=hexagon;perimeter=hexagonPerimeter2;whiteSpace=wrap;html=1;fixedSize=1;" vertex="1" parent="lj1tq4skUYszU8ZGq7pm-19">
          <mxGeometry width="70" height="50" as="geometry" />
        </mxCell>
        <mxCell id="EL_ckhMDxpt_6HQ5DJ5w-62" value="&lt;font style=&quot;font-size: 8px;&quot;&gt;3&lt;/font&gt;" style="rounded=0;whiteSpace=wrap;html=1;" vertex="1" parent="lj1tq4skUYszU8ZGq7pm-19">
          <mxGeometry x="25" width="20" height="10" as="geometry" />
        </mxCell>
        <mxCell id="lj1tq4skUYszU8ZGq7pm-20" value="" style="group;movable=0;resizable=0;rotatable=0;deletable=0;editable=0;locked=1;connectable=0;" vertex="1" connectable="0" parent="GsneJW20h7BYV699IqLu-9">
          <mxGeometry x="440" y="270" width="70" height="50" as="geometry" />
        </mxCell>
        <mxCell id="EL_ckhMDxpt_6HQ5DJ5w-81" value="&lt;font style=&quot;font-size: 9px;&quot;&gt;Lavazza&lt;br&gt;&lt;/font&gt;&lt;div style=&quot;font-size: 9px;&quot;&gt;&lt;font style=&quot;font-size: 9px;&quot;&gt;Мозырь&lt;/font&gt;&lt;/div&gt;" style="shape=hexagon;perimeter=hexagonPerimeter2;whiteSpace=wrap;html=1;fixedSize=1;" vertex="1" parent="lj1tq4skUYszU8ZGq7pm-20">
          <mxGeometry width="70" height="50" as="geometry" />
        </mxCell>
        <mxCell id="EL_ckhMDxpt_6HQ5DJ5w-82" value="&lt;font style=&quot;font-size: 8px;&quot;&gt;8&lt;/font&gt;" style="rounded=0;whiteSpace=wrap;html=1;" vertex="1" parent="lj1tq4skUYszU8ZGq7pm-20">
          <mxGeometry x="25" width="20" height="10" as="geometry" />
        </mxCell>
        <mxCell id="Fq5SPt16L9UxMK1K0pAv-1" value="" style="group" vertex="1" connectable="0" parent="GsneJW20h7BYV699IqLu-9">
          <mxGeometry x="440" y="430" width="70" height="50" as="geometry" />
        </mxCell>
        <mxCell id="Fq5SPt16L9UxMK1K0pAv-2" value="&lt;font style=&quot;font-size: 9px;&quot;&gt;Чашка&lt;br&gt;&lt;/font&gt;&lt;div style=&quot;font-size: 9px;&quot;&gt;&lt;font style=&quot;font-size: 9px;&quot;&gt;Борисов&lt;/font&gt;&lt;/div&gt;" style="shape=hexagon;perimeter=hexagonPerimeter2;whiteSpace=wrap;html=1;fixedSize=1;" vertex="1" parent="Fq5SPt16L9UxMK1K0pAv-1">
          <mxGeometry width="70" height="50" as="geometry" />
        </mxCell>
        <mxCell id="Fq5SPt16L9UxMK1K0pAv-3" value="&lt;span style=&quot;font-size: 8px;&quot;&gt;11&lt;/span&gt;" style="rounded=0;whiteSpace=wrap;html=1;" vertex="1" parent="Fq5SPt16L9UxMK1K0pAv-1">
          <mxGeometry x="25" width="20" height="10" as="geometry" />
        </mxCell>
        <mxCell id="Fq5SPt16L9UxMK1K0pAv-4" value="" style="group" vertex="1" connectable="0" parent="GsneJW20h7BYV699IqLu-9">
          <mxGeometry x="330" y="180" width="70" height="50" as="geometry" />
        </mxCell>
        <mxCell id="Fq5SPt16L9UxMK1K0pAv-5" value="&lt;font style=&quot;font-size: 9px;&quot;&gt;Сторис&lt;br&gt;&lt;/font&gt;&lt;div style=&quot;font-size: 9px;&quot;&gt;&lt;font style=&quot;font-size: 9px;&quot;&gt;Борисов&lt;/font&gt;&lt;/div&gt;" style="shape=hexagon;perimeter=hexagonPerimeter2;whiteSpace=wrap;html=1;fixedSize=1;" vertex="1" parent="Fq5SPt16L9UxMK1K0pAv-4">
          <mxGeometry width="70" height="50" as="geometry" />
        </mxCell>
        <mxCell id="Fq5SPt16L9UxMK1K0pAv-6" value="&lt;span style=&quot;font-size: 8px;&quot;&gt;12&lt;/span&gt;" style="rounded=0;whiteSpace=wrap;html=1;" vertex="1" parent="Fq5SPt16L9UxMK1K0pAv-4">
          <mxGeometry x="25" width="20" height="10" as="geometry" />
        </mxCell>
        <mxCell id="4pDDbir35OQmYkj45MvT-1" value="" style="group" vertex="1" connectable="0" parent="GsneJW20h7BYV699IqLu-9">
          <mxGeometry x="220" y="180" width="70" height="50" as="geometry" />
        </mxCell>
        <mxCell id="4pDDbir35OQmYkj45MvT-2" value="&lt;font style=&quot;font-size: 9px;&quot;&gt;Березка&lt;br&gt;&lt;/font&gt;&lt;div style=&quot;font-size: 9px;&quot;&gt;&lt;font style=&quot;font-size: 9px;&quot;&gt;Брест&lt;/font&gt;&lt;/div&gt;" style="shape=hexagon;perimeter=hexagonPerimeter2;whiteSpace=wrap;html=1;fixedSize=1;" vertex="1" parent="4pDDbir35OQmYkj45MvT-1">
          <mxGeometry width="70" height="50" as="geometry" />
        </mxCell>
        <mxCell id="4pDDbir35OQmYkj45MvT-3" value="&lt;font style=&quot;font-size: 8px;&quot;&gt;13&lt;/font&gt;" style="rounded=0;whiteSpace=wrap;html=1;" vertex="1" parent="4pDDbir35OQmYkj45MvT-1">
          <mxGeometry x="25" width="20" height="10" as="geometry" />
        </mxCell>
        <mxCell id="4pDDbir35OQmYkj45MvT-4" value="" style="group" vertex="1" connectable="0" parent="GsneJW20h7BYV699IqLu-9">
          <mxGeometry x="220" y="440" width="70" height="50" as="geometry" />
        </mxCell>
        <mxCell id="4pDDbir35OQmYkj45MvT-5" value="&lt;font style=&quot;font-size: 9px;&quot;&gt;Турка&lt;/font&gt;&lt;div style=&quot;font-size: 9px;&quot;&gt;&lt;font style=&quot;font-size: 9px;&quot;&gt;Брест&lt;/font&gt;&lt;/div&gt;" style="shape=hexagon;perimeter=hexagonPerimeter2;whiteSpace=wrap;html=1;fixedSize=1;" vertex="1" parent="4pDDbir35OQmYkj45MvT-4">
          <mxGeometry width="70" height="50" as="geometry" />
        </mxCell>
        <mxCell id="4pDDbir35OQmYkj45MvT-6" value="&lt;font style=&quot;font-size: 8px;&quot;&gt;14&lt;/font&gt;" style="rounded=0;whiteSpace=wrap;html=1;" vertex="1" parent="4pDDbir35OQmYkj45MvT-4">
          <mxGeometry x="25" width="20" height="10" as="geometry" />
        </mxCell>
        <mxCell id="rd2SmQGLbYSWBoV4jYRZ-1" value="" style="group" vertex="1" connectable="0" parent="GsneJW20h7BYV699IqLu-9">
          <mxGeometry x="110" y="350" width="70" height="50" as="geometry" />
        </mxCell>
        <mxCell id="rd2SmQGLbYSWBoV4jYRZ-2" value="&lt;font style=&quot;font-size: 9px;&quot;&gt;КофеСаунд&lt;/font&gt;&lt;div style=&quot;font-size: 9px;&quot;&gt;&lt;font style=&quot;font-size: 9px;&quot;&gt;Барановичи&lt;/font&gt;&lt;/div&gt;" style="shape=hexagon;perimeter=hexagonPerimeter2;whiteSpace=wrap;html=1;fixedSize=1;" vertex="1" parent="rd2SmQGLbYSWBoV4jYRZ-1">
          <mxGeometry width="70" height="50" as="geometry" />
        </mxCell>
        <mxCell id="rd2SmQGLbYSWBoV4jYRZ-3" value="&lt;font style=&quot;font-size: 8px;&quot;&gt;16&lt;/font&gt;" style="rounded=0;whiteSpace=wrap;html=1;" vertex="1" parent="rd2SmQGLbYSWBoV4jYRZ-1">
          <mxGeometry x="25" width="20" height="10" as="geometry" />
        </mxCell>
        <mxCell id="4dRC9EUjQ5YueJ4-BrmQ-1" value="" style="group" vertex="1" connectable="0" parent="GsneJW20h7BYV699IqLu-9">
          <mxGeometry x="110" y="440" width="70" height="50" as="geometry" />
        </mxCell>
        <mxCell id="4dRC9EUjQ5YueJ4-BrmQ-2" value="&lt;div&gt;&lt;font style=&quot;font-size: 9px;&quot;&gt;&lt;br&gt;&lt;/font&gt;&lt;/div&gt;&lt;font style=&quot;font-size: 9px;&quot;&gt;Воспоминания&lt;br&gt;&lt;/font&gt;&lt;div style=&quot;font-size: 9px;&quot;&gt;&lt;font style=&quot;font-size: 9px;&quot;&gt;Мозырь&lt;/font&gt;&lt;/div&gt;" style="shape=hexagon;perimeter=hexagonPerimeter2;whiteSpace=wrap;html=1;fixedSize=1;" vertex="1" parent="4dRC9EUjQ5YueJ4-BrmQ-1">
          <mxGeometry width="70" height="50" as="geometry" />
        </mxCell>
        <mxCell id="4dRC9EUjQ5YueJ4-BrmQ-3" value="&lt;font style=&quot;font-size: 8px;&quot;&gt;15&lt;/font&gt;" style="rounded=0;whiteSpace=wrap;html=1;" vertex="1" parent="4dRC9EUjQ5YueJ4-BrmQ-1">
          <mxGeometry x="25" width="20" height="10" as="geometry" />
        </mxCell>
        <mxCell id="ojAz9RwW5NnpeLjU5AKu-1" value="" style="group" vertex="1" connectable="0" parent="GsneJW20h7BYV699IqLu-9">
          <mxGeometry x="330" y="440" width="70" height="50" as="geometry" />
        </mxCell>
        <mxCell id="ojAz9RwW5NnpeLjU5AKu-2" value="&lt;font style=&quot;font-size: 9px;&quot;&gt;Hotfix&lt;/font&gt;&lt;div style=&quot;font-size: 9px;&quot;&gt;&lt;font style=&quot;font-size: 9px;&quot;&gt;Орша&lt;/font&gt;&lt;/div&gt;" style="shape=hexagon;perimeter=hexagonPerimeter2;whiteSpace=wrap;html=1;fixedSize=1;" vertex="1" parent="ojAz9RwW5NnpeLjU5AKu-1">
          <mxGeometry width="70" height="50" as="geometry" />
        </mxCell>
        <mxCell id="ojAz9RwW5NnpeLjU5AKu-3" value="&lt;font style=&quot;font-size: 8px;&quot;&gt;17&lt;/font&gt;" style="rounded=0;whiteSpace=wrap;html=1;" vertex="1" parent="ojAz9RwW5NnpeLjU5AKu-1">
          <mxGeometry x="25" width="20" height="10" as="geometry" />
        </mxCell>
        <mxCell id="ojAz9RwW5NnpeLjU5AKu-5" value="" style="endArrow=classic;html=1;rounded=0;exitX=1;exitY=0.5;exitDx=0;exitDy=0;entryX=0;entryY=0.75;entryDx=0;entryDy=0;" edge="1" parent="GsneJW20h7BYV699IqLu-9" source="EL_ckhMDxpt_6HQ5DJ5w-51" target="EL_ckhMDxpt_6HQ5DJ5w-61">
          <mxGeometry width="50" height="50" relative="1" as="geometry">
            <mxPoint x="250" y="270" as="sourcePoint" />
            <mxPoint x="300" y="220" as="targetPoint" />
          </mxGeometry>
        </mxCell>
        <mxCell id="ojAz9RwW5NnpeLjU5AKu-6" value="" style="endArrow=classic;html=1;rounded=0;exitX=1;exitY=0.5;exitDx=0;exitDy=0;entryX=0.157;entryY=0.203;entryDx=0;entryDy=0;entryPerimeter=0;" edge="1" parent="GsneJW20h7BYV699IqLu-9" source="EL_ckhMDxpt_6HQ5DJ5w-51" target="EL_ckhMDxpt_6HQ5DJ5w-53">
          <mxGeometry width="50" height="50" relative="1" as="geometry">
            <mxPoint x="220" y="310" as="sourcePoint" />
            <mxPoint x="270" y="260" as="targetPoint" />
          </mxGeometry>
        </mxCell>
        <mxCell id="ojAz9RwW5NnpeLjU5AKu-7" value="" style="endArrow=classic;html=1;rounded=0;exitX=1;exitY=0.5;exitDx=0;exitDy=0;entryX=0;entryY=0.5;entryDx=0;entryDy=0;" edge="1" parent="GsneJW20h7BYV699IqLu-9" source="EL_ckhMDxpt_6HQ5DJ5w-51" target="EL_ckhMDxpt_6HQ5DJ5w-57">
          <mxGeometry width="50" height="50" relative="1" as="geometry">
            <mxPoint x="340" y="280" as="sourcePoint" />
            <mxPoint x="390" y="230" as="targetPoint" />
          </mxGeometry>
        </mxCell>
        <mxCell id="ojAz9RwW5NnpeLjU5AKu-9" value="" style="endArrow=classic;html=1;rounded=0;exitX=0.5;exitY=1;exitDx=0;exitDy=0;entryX=1;entryY=0.25;entryDx=0;entryDy=0;" edge="1" parent="GsneJW20h7BYV699IqLu-9" source="EL_ckhMDxpt_6HQ5DJ5w-55" target="EL_ckhMDxpt_6HQ5DJ5w-65">
          <mxGeometry width="50" height="50" relative="1" as="geometry">
            <mxPoint x="330" y="290" as="sourcePoint" />
            <mxPoint x="380" y="240" as="targetPoint" />
          </mxGeometry>
        </mxCell>
        <mxCell id="ojAz9RwW5NnpeLjU5AKu-12" value="" style="endArrow=classic;html=1;rounded=0;exitX=0.5;exitY=1;exitDx=0;exitDy=0;entryX=0.5;entryY=0;entryDx=0;entryDy=0;" edge="1" parent="GsneJW20h7BYV699IqLu-9" source="EL_ckhMDxpt_6HQ5DJ5w-63" target="EL_ckhMDxpt_6HQ5DJ5w-74">
          <mxGeometry width="50" height="50" relative="1" as="geometry">
            <mxPoint x="440" y="230" as="sourcePoint" />
            <mxPoint x="490" y="180" as="targetPoint" />
          </mxGeometry>
        </mxCell>
        <mxCell id="ojAz9RwW5NnpeLjU5AKu-13" value="" style="endArrow=classic;html=1;rounded=0;exitX=1;exitY=0.5;exitDx=0;exitDy=0;entryX=0;entryY=0.5;entryDx=0;entryDy=0;" edge="1" parent="GsneJW20h7BYV699IqLu-9" source="EL_ckhMDxpt_6HQ5DJ5w-87" target="rd2SmQGLbYSWBoV4jYRZ-2">
          <mxGeometry width="50" height="50" relative="1" as="geometry">
            <mxPoint x="270" y="390" as="sourcePoint" />
            <mxPoint x="320" y="340" as="targetPoint" />
          </mxGeometry>
        </mxCell>
        <mxCell id="ojAz9RwW5NnpeLjU5AKu-14" value="" style="endArrow=classic;html=1;rounded=0;exitX=0.5;exitY=0;exitDx=0;exitDy=0;entryX=1;entryY=0.75;entryDx=0;entryDy=0;" edge="1" parent="GsneJW20h7BYV699IqLu-9" source="EL_ckhMDxpt_6HQ5DJ5w-84" target="4dRC9EUjQ5YueJ4-BrmQ-2">
          <mxGeometry width="50" height="50" relative="1" as="geometry">
            <mxPoint x="340" y="660" as="sourcePoint" />
            <mxPoint x="390" y="610" as="targetPoint" />
          </mxGeometry>
        </mxCell>
        <mxCell id="ojAz9RwW5NnpeLjU5AKu-15" value="" style="endArrow=classic;html=1;rounded=0;exitX=0.5;exitY=0;exitDx=0;exitDy=0;entryX=0.5;entryY=1;entryDx=0;entryDy=0;" edge="1" parent="GsneJW20h7BYV699IqLu-9" source="EL_ckhMDxpt_6HQ5DJ5w-84" target="4pDDbir35OQmYkj45MvT-5">
          <mxGeometry width="50" height="50" relative="1" as="geometry">
            <mxPoint x="340" y="630" as="sourcePoint" />
            <mxPoint x="390" y="580" as="targetPoint" />
          </mxGeometry>
        </mxCell>
        <mxCell id="ojAz9RwW5NnpeLjU5AKu-16" value="" style="endArrow=classic;html=1;rounded=0;exitX=0.5;exitY=0;exitDx=0;exitDy=0;entryX=0;entryY=0.75;entryDx=0;entryDy=0;" edge="1" parent="GsneJW20h7BYV699IqLu-9" source="EL_ckhMDxpt_6HQ5DJ5w-84" target="ojAz9RwW5NnpeLjU5AKu-2">
          <mxGeometry width="50" height="50" relative="1" as="geometry">
            <mxPoint x="350" y="690" as="sourcePoint" />
            <mxPoint x="400" y="640" as="targetPoint" />
          </mxGeometry>
        </mxCell>
        <mxCell id="ojAz9RwW5NnpeLjU5AKu-18" value="" style="endArrow=classic;html=1;rounded=0;exitX=0.5;exitY=1;exitDx=0;exitDy=0;entryX=0;entryY=0.25;entryDx=0;entryDy=0;" edge="1" parent="GsneJW20h7BYV699IqLu-9" source="EL_ckhMDxpt_6HQ5DJ5w-55" target="EL_ckhMDxpt_6HQ5DJ5w-69">
          <mxGeometry width="50" height="50" relative="1" as="geometry">
            <mxPoint x="400" y="280" as="sourcePoint" />
            <mxPoint x="450" y="230" as="targetPoint" />
          </mxGeometry>
        </mxCell>
        <mxCell id="GsneJW20h7BYV699IqLu-1" value="" style="endArrow=classic;html=1;rounded=0;entryX=1;entryY=0.75;entryDx=0;entryDy=0;exitX=0;exitY=0.5;exitDx=0;exitDy=0;" edge="1" parent="GsneJW20h7BYV699IqLu-9" source="EL_ckhMDxpt_6HQ5DJ5w-67" target="EL_ckhMDxpt_6HQ5DJ5w-77">
          <mxGeometry width="50" height="50" relative="1" as="geometry">
            <mxPoint x="370" y="370" as="sourcePoint" />
            <mxPoint x="420" y="320" as="targetPoint" />
          </mxGeometry>
        </mxCell>
        <mxCell id="GsneJW20h7BYV699IqLu-2" value="" style="endArrow=classic;html=1;rounded=0;entryX=1;entryY=0.25;entryDx=0;entryDy=0;exitX=0;exitY=0.5;exitDx=0;exitDy=0;" edge="1" parent="GsneJW20h7BYV699IqLu-9" source="EL_ckhMDxpt_6HQ5DJ5w-67" target="EL_ckhMDxpt_6HQ5DJ5w-81">
          <mxGeometry width="50" height="50" relative="1" as="geometry">
            <mxPoint x="360" y="370" as="sourcePoint" />
            <mxPoint x="410" y="320" as="targetPoint" />
          </mxGeometry>
        </mxCell>
        <mxCell id="GsneJW20h7BYV699IqLu-3" value="" style="endArrow=classic;html=1;rounded=0;exitX=0;exitY=0.5;exitDx=0;exitDy=0;" edge="1" parent="GsneJW20h7BYV699IqLu-9" source="EL_ckhMDxpt_6HQ5DJ5w-71">
          <mxGeometry width="50" height="50" relative="1" as="geometry">
            <mxPoint x="20" y="430" as="sourcePoint" />
            <mxPoint x="290" y="365" as="targetPoint" />
          </mxGeometry>
        </mxCell>
        <mxCell id="GsneJW20h7BYV699IqLu-5" value="" style="endArrow=classic;html=1;rounded=0;exitX=0.5;exitY=0;exitDx=0;exitDy=0;entryX=0.5;entryY=1;entryDx=0;entryDy=0;" edge="1" parent="GsneJW20h7BYV699IqLu-9" source="EL_ckhMDxpt_6HQ5DJ5w-80" target="4pDDbir35OQmYkj45MvT-2">
          <mxGeometry width="50" height="50" relative="1" as="geometry">
            <mxPoint x="380" y="410" as="sourcePoint" />
            <mxPoint x="430" y="360" as="targetPoint" />
          </mxGeometry>
        </mxCell>
        <mxCell id="GsneJW20h7BYV699IqLu-6" value="" style="endArrow=classic;html=1;rounded=0;exitX=0.5;exitY=0;exitDx=0;exitDy=0;entryX=0.5;entryY=1;entryDx=0;entryDy=0;" edge="1" parent="GsneJW20h7BYV699IqLu-9" source="EL_ckhMDxpt_6HQ5DJ5w-59" target="Fq5SPt16L9UxMK1K0pAv-5">
          <mxGeometry width="50" height="50" relative="1" as="geometry">
            <mxPoint x="540" y="420" as="sourcePoint" />
            <mxPoint x="590" y="370" as="targetPoint" />
          </mxGeometry>
        </mxCell>
        <mxCell id="GsneJW20h7BYV699IqLu-7" value="" style="endArrow=classic;html=1;rounded=0;exitX=0;exitY=0.5;exitDx=0;exitDy=0;entryX=1;entryY=0.25;entryDx=0;entryDy=0;" edge="1" parent="GsneJW20h7BYV699IqLu-9" source="EL_ckhMDxpt_6HQ5DJ5w-75" target="Fq5SPt16L9UxMK1K0pAv-2">
          <mxGeometry width="50" height="50" relative="1" as="geometry">
            <mxPoint x="540" y="580" as="sourcePoint" />
            <mxPoint x="590" y="530" as="targetPoint" />
          </mxGeometry>
        </mxCell>
        <mxCell id="GsneJW20h7BYV699IqLu-8" value="" style="endArrow=classic;html=1;rounded=0;entryX=1;entryY=0.75;entryDx=0;entryDy=0;exitX=0;exitY=0.5;exitDx=0;exitDy=0;" edge="1" parent="GsneJW20h7BYV699IqLu-9" source="EL_ckhMDxpt_6HQ5DJ5w-75" target="EL_ckhMDxpt_6HQ5DJ5w-89">
          <mxGeometry width="50" height="50" relative="1" as="geometry">
            <mxPoint x="660" y="610" as="sourcePoint" />
            <mxPoint x="710" y="560" as="targetPoint" />
          </mxGeometry>
        </mxCell>
      </root>
    </mxGraphModel>
  </diagram>
  <diagram id="2E7pWwiEJS_fC76O1mcu" name="Работает в">
    <mxGraphModel dx="1366" dy="796" grid="1" gridSize="10" guides="1" tooltips="1" connect="1" arrows="1" fold="1" page="1" pageScale="1" pageWidth="827" pageHeight="1169" math="0" shadow="0">
      <root>
        <mxCell id="0" />
        <mxCell id="1" parent="0" />
        <mxCell id="ejbl6ZidHsJx3Z7Oj24_-75" value="" style="group;movable=0;resizable=0;rotatable=0;deletable=0;editable=0;locked=1;connectable=0;" vertex="1" connectable="0" parent="1">
          <mxGeometry x="15" y="20" width="800" height="170" as="geometry" />
        </mxCell>
        <mxCell id="7bNnWsoUfAtG4QxwKRyC-1" value="" style="group" vertex="1" connectable="0" parent="ejbl6ZidHsJx3Z7Oj24_-75">
          <mxGeometry x="125" width="80" height="80" as="geometry" />
        </mxCell>
        <mxCell id="7bNnWsoUfAtG4QxwKRyC-2" value="Мария&lt;div&gt;Смирнова&lt;/div&gt;" style="ellipse;whiteSpace=wrap;html=1;aspect=fixed;container=0;" vertex="1" parent="7bNnWsoUfAtG4QxwKRyC-1">
          <mxGeometry width="80" height="80" as="geometry" />
        </mxCell>
        <mxCell id="7bNnWsoUfAtG4QxwKRyC-3" value="2" style="ellipse;whiteSpace=wrap;html=1;aspect=fixed;" vertex="1" parent="7bNnWsoUfAtG4QxwKRyC-1">
          <mxGeometry x="30" width="20" height="20" as="geometry" />
        </mxCell>
        <mxCell id="7bNnWsoUfAtG4QxwKRyC-4" value="" style="group" vertex="1" connectable="0" parent="ejbl6ZidHsJx3Z7Oj24_-75">
          <mxGeometry x="5" width="80" height="80" as="geometry" />
        </mxCell>
        <mxCell id="7bNnWsoUfAtG4QxwKRyC-5" value="Иван&lt;div&gt;Иванов&lt;/div&gt;" style="ellipse;whiteSpace=wrap;html=1;aspect=fixed;container=1;movable=1;resizable=1;rotatable=1;deletable=1;editable=1;locked=0;connectable=1;" vertex="1" parent="7bNnWsoUfAtG4QxwKRyC-4">
          <mxGeometry width="80" height="80" as="geometry">
            <mxRectangle x="200" y="310" width="80" height="40" as="alternateBounds" />
          </mxGeometry>
        </mxCell>
        <mxCell id="7bNnWsoUfAtG4QxwKRyC-6" value="1" style="ellipse;whiteSpace=wrap;html=1;aspect=fixed;" vertex="1" parent="7bNnWsoUfAtG4QxwKRyC-4">
          <mxGeometry x="30" width="20" height="20" as="geometry" />
        </mxCell>
        <mxCell id="7bNnWsoUfAtG4QxwKRyC-16" value="" style="group" vertex="1" connectable="0" parent="ejbl6ZidHsJx3Z7Oj24_-75">
          <mxGeometry x="359" width="80" height="80" as="geometry" />
        </mxCell>
        <mxCell id="7bNnWsoUfAtG4QxwKRyC-17" value="Екатерина Попова" style="ellipse;whiteSpace=wrap;html=1;aspect=fixed;container=0;" vertex="1" parent="7bNnWsoUfAtG4QxwKRyC-16">
          <mxGeometry width="80" height="80" as="geometry" />
        </mxCell>
        <mxCell id="7bNnWsoUfAtG4QxwKRyC-18" value="4" style="ellipse;whiteSpace=wrap;html=1;aspect=fixed;" vertex="1" parent="7bNnWsoUfAtG4QxwKRyC-16">
          <mxGeometry x="30" width="20" height="20" as="geometry" />
        </mxCell>
        <mxCell id="7bNnWsoUfAtG4QxwKRyC-19" value="" style="group" vertex="1" connectable="0" parent="ejbl6ZidHsJx3Z7Oj24_-75">
          <mxGeometry x="245" width="80" height="80" as="geometry" />
        </mxCell>
        <mxCell id="7bNnWsoUfAtG4QxwKRyC-20" value="Александр Кузнецов" style="ellipse;whiteSpace=wrap;html=1;aspect=fixed;container=0;" vertex="1" parent="7bNnWsoUfAtG4QxwKRyC-19">
          <mxGeometry width="80" height="80" as="geometry" />
        </mxCell>
        <mxCell id="7bNnWsoUfAtG4QxwKRyC-21" value="3" style="ellipse;whiteSpace=wrap;html=1;aspect=fixed;" vertex="1" parent="7bNnWsoUfAtG4QxwKRyC-19">
          <mxGeometry x="30" width="20" height="20" as="geometry" />
        </mxCell>
        <mxCell id="7bNnWsoUfAtG4QxwKRyC-22" value="" style="group" vertex="1" connectable="0" parent="ejbl6ZidHsJx3Z7Oj24_-75">
          <mxGeometry x="715" width="80" height="80" as="geometry" />
        </mxCell>
        <mxCell id="7bNnWsoUfAtG4QxwKRyC-23" value="Сергей Соколов" style="ellipse;whiteSpace=wrap;html=1;aspect=fixed;container=0;" vertex="1" parent="7bNnWsoUfAtG4QxwKRyC-22">
          <mxGeometry width="80" height="80" as="geometry" />
        </mxCell>
        <mxCell id="7bNnWsoUfAtG4QxwKRyC-24" value="7" style="ellipse;whiteSpace=wrap;html=1;aspect=fixed;" vertex="1" parent="7bNnWsoUfAtG4QxwKRyC-22">
          <mxGeometry x="30" width="20" height="20" as="geometry" />
        </mxCell>
        <mxCell id="7bNnWsoUfAtG4QxwKRyC-25" value="П" style="group" vertex="1" connectable="0" parent="ejbl6ZidHsJx3Z7Oj24_-75">
          <mxGeometry x="475" width="80" height="80" as="geometry" />
        </mxCell>
        <mxCell id="7bNnWsoUfAtG4QxwKRyC-26" value="Максим Васильев" style="ellipse;whiteSpace=wrap;html=1;aspect=fixed;container=0;" vertex="1" parent="7bNnWsoUfAtG4QxwKRyC-25">
          <mxGeometry width="80" height="80" as="geometry" />
        </mxCell>
        <mxCell id="7bNnWsoUfAtG4QxwKRyC-27" value="5" style="ellipse;whiteSpace=wrap;html=1;aspect=fixed;" vertex="1" parent="7bNnWsoUfAtG4QxwKRyC-25">
          <mxGeometry x="30" width="20" height="20" as="geometry" />
        </mxCell>
        <mxCell id="7bNnWsoUfAtG4QxwKRyC-28" value="" style="group" vertex="1" connectable="0" parent="ejbl6ZidHsJx3Z7Oj24_-75">
          <mxGeometry x="595" width="80" height="80" as="geometry" />
        </mxCell>
        <mxCell id="7bNnWsoUfAtG4QxwKRyC-29" value="Анна&lt;div&gt;Петрова&lt;br&gt;&lt;/div&gt;" style="ellipse;whiteSpace=wrap;html=1;aspect=fixed;container=0;" vertex="1" parent="7bNnWsoUfAtG4QxwKRyC-28">
          <mxGeometry width="80" height="80" as="geometry" />
        </mxCell>
        <mxCell id="7bNnWsoUfAtG4QxwKRyC-30" value="6" style="ellipse;whiteSpace=wrap;html=1;aspect=fixed;" vertex="1" parent="7bNnWsoUfAtG4QxwKRyC-28">
          <mxGeometry x="30" width="20" height="20" as="geometry" />
        </mxCell>
        <mxCell id="RV8zENQfJOeD5-aD39kv-1" value="" style="group" vertex="1" connectable="0" parent="ejbl6ZidHsJx3Z7Oj24_-75">
          <mxGeometry y="110" width="90" height="60" as="geometry" />
        </mxCell>
        <mxCell id="RV8zENQfJOeD5-aD39kv-2" value="&lt;font style=&quot;font-size: 9px;&quot;&gt;Myloverberry&lt;/font&gt;&lt;div style=&quot;font-size: 9px;&quot;&gt;&lt;font style=&quot;font-size: 9px;&quot;&gt;Минск&lt;/font&gt;&lt;/div&gt;" style="shape=hexagon;perimeter=hexagonPerimeter2;whiteSpace=wrap;html=1;fixedSize=1;" vertex="1" parent="RV8zENQfJOeD5-aD39kv-1">
          <mxGeometry width="90" height="60" as="geometry" />
        </mxCell>
        <mxCell id="RV8zENQfJOeD5-aD39kv-3" value="&lt;font style=&quot;font-size: 8px;&quot;&gt;1&lt;/font&gt;" style="rounded=0;whiteSpace=wrap;html=1;" vertex="1" parent="RV8zENQfJOeD5-aD39kv-1">
          <mxGeometry x="32.142857142857146" width="25.714285714285715" height="12" as="geometry" />
        </mxCell>
        <mxCell id="RV8zENQfJOeD5-aD39kv-4" value="" style="group" vertex="1" connectable="0" parent="ejbl6ZidHsJx3Z7Oj24_-75">
          <mxGeometry x="120" y="110" width="90" height="60" as="geometry" />
        </mxCell>
        <mxCell id="RV8zENQfJOeD5-aD39kv-5" value="&lt;font style=&quot;font-size: 9px;&quot;&gt;Paragraph&lt;br&gt;&lt;/font&gt;&lt;div style=&quot;font-size: 9px;&quot;&gt;&lt;font style=&quot;font-size: 9px;&quot;&gt;Брест&lt;/font&gt;&lt;/div&gt;" style="shape=hexagon;perimeter=hexagonPerimeter2;whiteSpace=wrap;html=1;fixedSize=1;" vertex="1" parent="RV8zENQfJOeD5-aD39kv-4">
          <mxGeometry width="90" height="60" as="geometry" />
        </mxCell>
        <mxCell id="RV8zENQfJOeD5-aD39kv-6" value="&lt;font style=&quot;font-size: 8px;&quot;&gt;2&lt;/font&gt;" style="rounded=0;whiteSpace=wrap;html=1;" vertex="1" parent="RV8zENQfJOeD5-aD39kv-4">
          <mxGeometry x="32.142857142857146" width="25.714285714285715" height="12" as="geometry" />
        </mxCell>
        <mxCell id="RV8zENQfJOeD5-aD39kv-7" value="" style="group" vertex="1" connectable="0" parent="ejbl6ZidHsJx3Z7Oj24_-75">
          <mxGeometry x="239" y="110" width="90" height="60" as="geometry" />
        </mxCell>
        <mxCell id="RV8zENQfJOeD5-aD39kv-8" value="&lt;font style=&quot;font-size: 9px;&quot;&gt;LoveMyrr&lt;br&gt;&lt;/font&gt;&lt;div style=&quot;font-size: 9px;&quot;&gt;&lt;font style=&quot;font-size: 9px;&quot;&gt;Гомель&lt;/font&gt;&lt;/div&gt;" style="shape=hexagon;perimeter=hexagonPerimeter2;whiteSpace=wrap;html=1;fixedSize=1;" vertex="1" parent="RV8zENQfJOeD5-aD39kv-7">
          <mxGeometry width="90" height="60" as="geometry" />
        </mxCell>
        <mxCell id="RV8zENQfJOeD5-aD39kv-9" value="&lt;font style=&quot;font-size: 8px;&quot;&gt;3&lt;/font&gt;" style="rounded=0;whiteSpace=wrap;html=1;" vertex="1" parent="RV8zENQfJOeD5-aD39kv-7">
          <mxGeometry x="32.142857142857146" width="25.714285714285715" height="12" as="geometry" />
        </mxCell>
        <mxCell id="krce3WKVOcIqdNSDsIi3-1" value="" style="group" vertex="1" connectable="0" parent="ejbl6ZidHsJx3Z7Oj24_-75">
          <mxGeometry x="710" y="110" width="90" height="60" as="geometry" />
        </mxCell>
        <mxCell id="krce3WKVOcIqdNSDsIi3-2" value="&lt;font style=&quot;font-size: 9px;&quot;&gt;Cofix&lt;br&gt;&lt;/font&gt;&lt;div style=&quot;font-size: 9px;&quot;&gt;&lt;font style=&quot;font-size: 9px;&quot;&gt;Борисов&lt;/font&gt;&lt;/div&gt;" style="shape=hexagon;perimeter=hexagonPerimeter2;whiteSpace=wrap;html=1;fixedSize=1;" vertex="1" parent="krce3WKVOcIqdNSDsIi3-1">
          <mxGeometry width="90" height="60" as="geometry" />
        </mxCell>
        <mxCell id="krce3WKVOcIqdNSDsIi3-3" value="&lt;font style=&quot;font-size: 8px;&quot;&gt;7&lt;/font&gt;" style="rounded=0;whiteSpace=wrap;html=1;" vertex="1" parent="krce3WKVOcIqdNSDsIi3-1">
          <mxGeometry x="32.142857142857146" width="25.714285714285715" height="12" as="geometry" />
        </mxCell>
        <mxCell id="krce3WKVOcIqdNSDsIi3-4" value="" style="group" vertex="1" connectable="0" parent="ejbl6ZidHsJx3Z7Oj24_-75">
          <mxGeometry x="590" y="110" width="90" height="60" as="geometry" />
        </mxCell>
        <mxCell id="krce3WKVOcIqdNSDsIi3-5" value="&lt;font style=&quot;font-size: 9px;&quot;&gt;Varka&lt;br&gt;&lt;/font&gt;&lt;div style=&quot;font-size: 9px;&quot;&gt;&lt;font style=&quot;font-size: 9px;&quot;&gt;Витебск&lt;/font&gt;&lt;/div&gt;" style="shape=hexagon;perimeter=hexagonPerimeter2;whiteSpace=wrap;html=1;fixedSize=1;" vertex="1" parent="krce3WKVOcIqdNSDsIi3-4">
          <mxGeometry width="90" height="60" as="geometry" />
        </mxCell>
        <mxCell id="krce3WKVOcIqdNSDsIi3-6" value="&lt;font style=&quot;font-size: 8px;&quot;&gt;6&lt;/font&gt;" style="rounded=0;whiteSpace=wrap;html=1;" vertex="1" parent="krce3WKVOcIqdNSDsIi3-4">
          <mxGeometry x="32.142857142857146" width="25.714285714285715" height="12" as="geometry" />
        </mxCell>
        <mxCell id="krce3WKVOcIqdNSDsIi3-7" value="" style="group" vertex="1" connectable="0" parent="ejbl6ZidHsJx3Z7Oj24_-75">
          <mxGeometry x="354" y="110" width="90" height="60" as="geometry" />
        </mxCell>
        <mxCell id="krce3WKVOcIqdNSDsIi3-8" value="&lt;font style=&quot;font-size: 9px;&quot;&gt;CoffeeMouse&lt;br&gt;&lt;/font&gt;&lt;div style=&quot;font-size: 9px;&quot;&gt;&lt;font style=&quot;font-size: 9px;&quot;&gt;Гродно&lt;/font&gt;&lt;/div&gt;" style="shape=hexagon;perimeter=hexagonPerimeter2;whiteSpace=wrap;html=1;fixedSize=1;" vertex="1" parent="krce3WKVOcIqdNSDsIi3-7">
          <mxGeometry width="90" height="60" as="geometry" />
        </mxCell>
        <mxCell id="krce3WKVOcIqdNSDsIi3-9" value="&lt;font style=&quot;font-size: 8px;&quot;&gt;4&lt;/font&gt;" style="rounded=0;whiteSpace=wrap;html=1;" vertex="1" parent="krce3WKVOcIqdNSDsIi3-7">
          <mxGeometry x="32.142857142857146" width="25.714285714285715" height="12" as="geometry" />
        </mxCell>
        <mxCell id="krce3WKVOcIqdNSDsIi3-19" value="" style="group" vertex="1" connectable="0" parent="ejbl6ZidHsJx3Z7Oj24_-75">
          <mxGeometry x="470" y="110" width="90" height="60" as="geometry" />
        </mxCell>
        <mxCell id="krce3WKVOcIqdNSDsIi3-11" value="&lt;font style=&quot;font-size: 9px;&quot;&gt;Stories&lt;br&gt;&lt;/font&gt;&lt;div style=&quot;font-size: 9px;&quot;&gt;&lt;font style=&quot;font-size: 9px;&quot;&gt;Могилев&lt;/font&gt;&lt;/div&gt;" style="shape=hexagon;perimeter=hexagonPerimeter2;whiteSpace=wrap;html=1;fixedSize=1;movable=1;resizable=1;rotatable=1;deletable=1;editable=1;locked=0;connectable=1;" vertex="1" parent="krce3WKVOcIqdNSDsIi3-19">
          <mxGeometry width="90" height="60" as="geometry" />
        </mxCell>
        <mxCell id="krce3WKVOcIqdNSDsIi3-12" value="&lt;font style=&quot;font-size: 8px;&quot;&gt;5&lt;/font&gt;" style="rounded=0;whiteSpace=wrap;html=1;movable=1;resizable=1;rotatable=1;deletable=1;editable=1;locked=0;connectable=1;" vertex="1" parent="krce3WKVOcIqdNSDsIi3-19">
          <mxGeometry x="32.142857142857146" width="25.714285714285715" height="12" as="geometry" />
        </mxCell>
        <mxCell id="ejbl6ZidHsJx3Z7Oj24_-6" value="" style="endArrow=classic;html=1;rounded=0;exitX=0.5;exitY=1;exitDx=0;exitDy=0;entryX=0.5;entryY=0;entryDx=0;entryDy=0;" edge="1" parent="ejbl6ZidHsJx3Z7Oj24_-75" source="7bNnWsoUfAtG4QxwKRyC-5" target="RV8zENQfJOeD5-aD39kv-2">
          <mxGeometry width="50" height="50" relative="1" as="geometry">
            <mxPoint x="65" y="140" as="sourcePoint" />
            <mxPoint x="115" y="90" as="targetPoint" />
          </mxGeometry>
        </mxCell>
        <mxCell id="ejbl6ZidHsJx3Z7Oj24_-7" value="" style="endArrow=classic;html=1;rounded=0;exitX=0.5;exitY=1;exitDx=0;exitDy=0;entryX=0.5;entryY=0;entryDx=0;entryDy=0;" edge="1" parent="ejbl6ZidHsJx3Z7Oj24_-75" source="7bNnWsoUfAtG4QxwKRyC-2" target="RV8zENQfJOeD5-aD39kv-6">
          <mxGeometry width="50" height="50" relative="1" as="geometry">
            <mxPoint x="164.82999999999998" y="80" as="sourcePoint" />
            <mxPoint x="164.82999999999998" y="110" as="targetPoint" />
          </mxGeometry>
        </mxCell>
        <mxCell id="ejbl6ZidHsJx3Z7Oj24_-8" value="" style="endArrow=classic;html=1;rounded=0;exitX=0.5;exitY=1;exitDx=0;exitDy=0;entryX=0.5;entryY=0;entryDx=0;entryDy=0;" edge="1" parent="ejbl6ZidHsJx3Z7Oj24_-75" source="7bNnWsoUfAtG4QxwKRyC-20" target="RV8zENQfJOeD5-aD39kv-9">
          <mxGeometry width="50" height="50" relative="1" as="geometry">
            <mxPoint x="185" y="120" as="sourcePoint" />
            <mxPoint x="235" y="70" as="targetPoint" />
          </mxGeometry>
        </mxCell>
        <mxCell id="ejbl6ZidHsJx3Z7Oj24_-9" value="" style="endArrow=classic;html=1;rounded=0;exitX=0.5;exitY=1;exitDx=0;exitDy=0;entryX=0.5;entryY=0;entryDx=0;entryDy=0;" edge="1" parent="ejbl6ZidHsJx3Z7Oj24_-75" source="7bNnWsoUfAtG4QxwKRyC-17" target="krce3WKVOcIqdNSDsIi3-9">
          <mxGeometry width="50" height="50" relative="1" as="geometry">
            <mxPoint x="425" y="140" as="sourcePoint" />
            <mxPoint x="475" y="90" as="targetPoint" />
          </mxGeometry>
        </mxCell>
        <mxCell id="ejbl6ZidHsJx3Z7Oj24_-10" value="" style="endArrow=classic;html=1;rounded=0;exitX=0.5;exitY=1;exitDx=0;exitDy=0;entryX=0.5;entryY=0;entryDx=0;entryDy=0;" edge="1" parent="ejbl6ZidHsJx3Z7Oj24_-75" source="7bNnWsoUfAtG4QxwKRyC-26" target="krce3WKVOcIqdNSDsIi3-12">
          <mxGeometry width="50" height="50" relative="1" as="geometry">
            <mxPoint x="585" y="240" as="sourcePoint" />
            <mxPoint x="635" y="190" as="targetPoint" />
          </mxGeometry>
        </mxCell>
        <mxCell id="ejbl6ZidHsJx3Z7Oj24_-11" value="" style="endArrow=classic;html=1;rounded=0;exitX=0.5;exitY=1;exitDx=0;exitDy=0;entryX=0.5;entryY=0;entryDx=0;entryDy=0;" edge="1" parent="ejbl6ZidHsJx3Z7Oj24_-75" source="7bNnWsoUfAtG4QxwKRyC-29" target="krce3WKVOcIqdNSDsIi3-6">
          <mxGeometry width="50" height="50" relative="1" as="geometry">
            <mxPoint x="665" y="270" as="sourcePoint" />
            <mxPoint x="715" y="220" as="targetPoint" />
          </mxGeometry>
        </mxCell>
        <mxCell id="ejbl6ZidHsJx3Z7Oj24_-12" value="" style="endArrow=classic;html=1;rounded=0;exitX=0.5;exitY=1;exitDx=0;exitDy=0;" edge="1" parent="ejbl6ZidHsJx3Z7Oj24_-75" source="7bNnWsoUfAtG4QxwKRyC-23">
          <mxGeometry width="50" height="50" relative="1" as="geometry">
            <mxPoint x="705" y="250" as="sourcePoint" />
            <mxPoint x="755" y="110" as="targetPoint" />
          </mxGeometry>
        </mxCell>
        <mxCell id="ejbl6ZidHsJx3Z7Oj24_-82" value="" style="group;movable=0;resizable=0;rotatable=0;deletable=0;editable=0;locked=1;connectable=0;" vertex="1" connectable="0" parent="1">
          <mxGeometry x="20" y="220" width="785" height="150" as="geometry" />
        </mxCell>
        <mxCell id="7bNnWsoUfAtG4QxwKRyC-7" value="" style="group" vertex="1" connectable="0" parent="ejbl6ZidHsJx3Z7Oj24_-82">
          <mxGeometry x="90" width="80" height="80" as="geometry" />
        </mxCell>
        <mxCell id="7bNnWsoUfAtG4QxwKRyC-8" value="Дмитрий Новиков" style="ellipse;whiteSpace=wrap;html=1;aspect=fixed;container=0;" vertex="1" parent="7bNnWsoUfAtG4QxwKRyC-7">
          <mxGeometry width="80" height="80" as="geometry" />
        </mxCell>
        <mxCell id="7bNnWsoUfAtG4QxwKRyC-9" value="9" style="ellipse;whiteSpace=wrap;html=1;aspect=fixed;" vertex="1" parent="7bNnWsoUfAtG4QxwKRyC-7">
          <mxGeometry x="30" width="20" height="20" as="geometry" />
        </mxCell>
        <mxCell id="7bNnWsoUfAtG4QxwKRyC-10" value="" style="group" vertex="1" connectable="0" parent="ejbl6ZidHsJx3Z7Oj24_-82">
          <mxGeometry x="201" width="80" height="80" as="geometry" />
        </mxCell>
        <mxCell id="7bNnWsoUfAtG4QxwKRyC-11" value="Елена Морозова" style="ellipse;whiteSpace=wrap;html=1;aspect=fixed;container=0;" vertex="1" parent="7bNnWsoUfAtG4QxwKRyC-10">
          <mxGeometry width="80" height="80" as="geometry" />
        </mxCell>
        <mxCell id="7bNnWsoUfAtG4QxwKRyC-12" value="10" style="ellipse;whiteSpace=wrap;html=1;aspect=fixed;" vertex="1" parent="7bNnWsoUfAtG4QxwKRyC-10">
          <mxGeometry x="30" width="20" height="20" as="geometry" />
        </mxCell>
        <mxCell id="7bNnWsoUfAtG4QxwKRyC-13" value="" style="group" vertex="1" connectable="0" parent="ejbl6ZidHsJx3Z7Oj24_-82">
          <mxGeometry width="80" height="80" as="geometry" />
        </mxCell>
        <mxCell id="7bNnWsoUfAtG4QxwKRyC-14" value="Ольга Михайлова" style="ellipse;whiteSpace=wrap;html=1;aspect=fixed;container=0;" vertex="1" parent="7bNnWsoUfAtG4QxwKRyC-13">
          <mxGeometry width="80" height="80" as="geometry" />
        </mxCell>
        <mxCell id="7bNnWsoUfAtG4QxwKRyC-15" value="8" style="ellipse;whiteSpace=wrap;html=1;aspect=fixed;" vertex="1" parent="7bNnWsoUfAtG4QxwKRyC-13">
          <mxGeometry x="30" width="20" height="20" as="geometry" />
        </mxCell>
        <mxCell id="X_A1_VCxmKLn6ZzU9v5w-1" value="" style="group" vertex="1" connectable="0" parent="ejbl6ZidHsJx3Z7Oj24_-82">
          <mxGeometry x="450" y="90" width="90" height="60" as="geometry" />
        </mxCell>
        <mxCell id="X_A1_VCxmKLn6ZzU9v5w-2" value="&lt;font style=&quot;font-size: 9px;&quot;&gt;Memories&lt;br&gt;&lt;/font&gt;&lt;div style=&quot;font-size: 9px;&quot;&gt;&lt;font style=&quot;font-size: 9px;&quot;&gt;Орша&lt;/font&gt;&lt;/div&gt;" style="shape=hexagon;perimeter=hexagonPerimeter2;whiteSpace=wrap;html=1;fixedSize=1;" vertex="1" parent="X_A1_VCxmKLn6ZzU9v5w-1">
          <mxGeometry width="90" height="60" as="geometry" />
        </mxCell>
        <mxCell id="X_A1_VCxmKLn6ZzU9v5w-3" value="&lt;font style=&quot;font-size: 8px;&quot;&gt;10&lt;/font&gt;" style="rounded=0;whiteSpace=wrap;html=1;" vertex="1" parent="X_A1_VCxmKLn6ZzU9v5w-1">
          <mxGeometry x="32.142857142857146" width="25.714285714285715" height="12" as="geometry" />
        </mxCell>
        <mxCell id="X_A1_VCxmKLn6ZzU9v5w-4" value="" style="group;movable=1;resizable=1;rotatable=1;deletable=1;editable=1;locked=0;connectable=1;" vertex="1" connectable="0" parent="ejbl6ZidHsJx3Z7Oj24_-82">
          <mxGeometry x="40" y="90" width="90" height="60" as="geometry" />
        </mxCell>
        <mxCell id="X_A1_VCxmKLn6ZzU9v5w-5" value="&lt;font style=&quot;font-size: 9px;&quot;&gt;Lavazza&lt;br&gt;&lt;/font&gt;&lt;div style=&quot;font-size: 9px;&quot;&gt;&lt;font style=&quot;font-size: 9px;&quot;&gt;Мозырь&lt;/font&gt;&lt;/div&gt;" style="shape=hexagon;perimeter=hexagonPerimeter2;whiteSpace=wrap;html=1;fixedSize=1;" vertex="1" parent="X_A1_VCxmKLn6ZzU9v5w-4">
          <mxGeometry width="90" height="60" as="geometry" />
        </mxCell>
        <mxCell id="X_A1_VCxmKLn6ZzU9v5w-6" value="&lt;font style=&quot;font-size: 8px;&quot;&gt;8&lt;/font&gt;" style="rounded=0;whiteSpace=wrap;html=1;" vertex="1" parent="X_A1_VCxmKLn6ZzU9v5w-4">
          <mxGeometry x="32.142857142857146" width="25.714285714285715" height="12" as="geometry" />
        </mxCell>
        <mxCell id="X_A1_VCxmKLn6ZzU9v5w-7" value="" style="group" vertex="1" connectable="0" parent="ejbl6ZidHsJx3Z7Oj24_-82">
          <mxGeometry x="650" y="90" width="90" height="60" as="geometry" />
        </mxCell>
        <mxCell id="X_A1_VCxmKLn6ZzU9v5w-8" value="&lt;font style=&quot;font-size: 9px;&quot;&gt;Чашка&lt;br&gt;&lt;/font&gt;&lt;div style=&quot;font-size: 9px;&quot;&gt;&lt;font style=&quot;font-size: 9px;&quot;&gt;Борисов&lt;/font&gt;&lt;/div&gt;" style="shape=hexagon;perimeter=hexagonPerimeter2;whiteSpace=wrap;html=1;fixedSize=1;" vertex="1" parent="X_A1_VCxmKLn6ZzU9v5w-7">
          <mxGeometry width="90" height="60" as="geometry" />
        </mxCell>
        <mxCell id="X_A1_VCxmKLn6ZzU9v5w-9" value="&lt;span style=&quot;font-size: 8px;&quot;&gt;11&lt;/span&gt;" style="rounded=0;whiteSpace=wrap;html=1;" vertex="1" parent="X_A1_VCxmKLn6ZzU9v5w-7">
          <mxGeometry x="32.142857142857146" width="25.714285714285715" height="12" as="geometry" />
        </mxCell>
        <mxCell id="FtOgpI29TEYeepQnkqHV-1" value="" style="group" vertex="1" connectable="0" parent="ejbl6ZidHsJx3Z7Oj24_-82">
          <mxGeometry x="240" y="90" width="90" height="60" as="geometry" />
        </mxCell>
        <mxCell id="FtOgpI29TEYeepQnkqHV-2" value="&lt;font style=&quot;font-size: 9px;&quot;&gt;Nofilters&lt;br&gt;&lt;/font&gt;&lt;div style=&quot;font-size: 9px;&quot;&gt;&lt;font style=&quot;font-size: 9px;&quot;&gt;Барановичи&lt;/font&gt;&lt;/div&gt;" style="shape=hexagon;perimeter=hexagonPerimeter2;whiteSpace=wrap;html=1;fixedSize=1;" vertex="1" parent="FtOgpI29TEYeepQnkqHV-1">
          <mxGeometry width="90" height="60" as="geometry" />
        </mxCell>
        <mxCell id="FtOgpI29TEYeepQnkqHV-3" value="&lt;font style=&quot;font-size: 8px;&quot;&gt;9&lt;/font&gt;" style="rounded=0;whiteSpace=wrap;html=1;" vertex="1" parent="FtOgpI29TEYeepQnkqHV-1">
          <mxGeometry x="32.142857142857146" width="25.714285714285715" height="12" as="geometry" />
        </mxCell>
        <mxCell id="ejbl6ZidHsJx3Z7Oj24_-13" value="" style="endArrow=classic;html=1;rounded=0;exitX=0.5;exitY=0;exitDx=0;exitDy=0;entryX=1;entryY=1;entryDx=0;entryDy=0;" edge="1" parent="ejbl6ZidHsJx3Z7Oj24_-82" source="X_A1_VCxmKLn6ZzU9v5w-6" target="7bNnWsoUfAtG4QxwKRyC-14">
          <mxGeometry width="50" height="50" relative="1" as="geometry">
            <mxPoint x="210" y="160" as="sourcePoint" />
            <mxPoint x="260" y="110" as="targetPoint" />
          </mxGeometry>
        </mxCell>
        <mxCell id="ejbl6ZidHsJx3Z7Oj24_-14" value="" style="endArrow=classic;html=1;rounded=0;exitX=0.5;exitY=0;exitDx=0;exitDy=0;entryX=0;entryY=1;entryDx=0;entryDy=0;" edge="1" parent="ejbl6ZidHsJx3Z7Oj24_-82" source="X_A1_VCxmKLn6ZzU9v5w-6" target="7bNnWsoUfAtG4QxwKRyC-8">
          <mxGeometry width="50" height="50" relative="1" as="geometry">
            <mxPoint x="250" y="160" as="sourcePoint" />
            <mxPoint x="300" y="110" as="targetPoint" />
          </mxGeometry>
        </mxCell>
        <mxCell id="ejbl6ZidHsJx3Z7Oj24_-15" value="" style="group" vertex="1" connectable="0" parent="ejbl6ZidHsJx3Z7Oj24_-82">
          <mxGeometry x="290" width="80" height="80" as="geometry" />
        </mxCell>
        <mxCell id="ejbl6ZidHsJx3Z7Oj24_-16" value="Алексей Иванов" style="ellipse;whiteSpace=wrap;html=1;aspect=fixed;container=0;" vertex="1" parent="ejbl6ZidHsJx3Z7Oj24_-15">
          <mxGeometry width="80" height="80" as="geometry" />
        </mxCell>
        <mxCell id="ejbl6ZidHsJx3Z7Oj24_-17" value="11" style="ellipse;whiteSpace=wrap;html=1;aspect=fixed;" vertex="1" parent="ejbl6ZidHsJx3Z7Oj24_-15">
          <mxGeometry x="30" width="20" height="20" as="geometry" />
        </mxCell>
        <mxCell id="ejbl6ZidHsJx3Z7Oj24_-18" value="" style="group" vertex="1" connectable="0" parent="ejbl6ZidHsJx3Z7Oj24_-82">
          <mxGeometry x="411" width="80" height="80" as="geometry" />
        </mxCell>
        <mxCell id="ejbl6ZidHsJx3Z7Oj24_-19" value="Наталья Смирнова" style="ellipse;whiteSpace=wrap;html=1;aspect=fixed;container=0;" vertex="1" parent="ejbl6ZidHsJx3Z7Oj24_-18">
          <mxGeometry width="80" height="80" as="geometry" />
        </mxCell>
        <mxCell id="ejbl6ZidHsJx3Z7Oj24_-20" value="12" style="ellipse;whiteSpace=wrap;html=1;aspect=fixed;" vertex="1" parent="ejbl6ZidHsJx3Z7Oj24_-18">
          <mxGeometry x="30" width="20" height="20" as="geometry" />
        </mxCell>
        <mxCell id="ejbl6ZidHsJx3Z7Oj24_-21" value="" style="group" vertex="1" connectable="0" parent="ejbl6ZidHsJx3Z7Oj24_-82">
          <mxGeometry x="505" width="80" height="80" as="geometry" />
        </mxCell>
        <mxCell id="ejbl6ZidHsJx3Z7Oj24_-22" value="Игорь Кузнецов" style="ellipse;whiteSpace=wrap;html=1;aspect=fixed;container=0;" vertex="1" parent="ejbl6ZidHsJx3Z7Oj24_-21">
          <mxGeometry width="80" height="80" as="geometry" />
        </mxCell>
        <mxCell id="ejbl6ZidHsJx3Z7Oj24_-23" value="13" style="ellipse;whiteSpace=wrap;html=1;aspect=fixed;" vertex="1" parent="ejbl6ZidHsJx3Z7Oj24_-21">
          <mxGeometry x="30" width="20" height="20" as="geometry" />
        </mxCell>
        <mxCell id="ejbl6ZidHsJx3Z7Oj24_-24" value="" style="group" vertex="1" connectable="0" parent="ejbl6ZidHsJx3Z7Oj24_-82">
          <mxGeometry x="610" width="80" height="80" as="geometry" />
        </mxCell>
        <mxCell id="ejbl6ZidHsJx3Z7Oj24_-25" value="Анна&lt;div&gt;Попова&lt;/div&gt;" style="ellipse;whiteSpace=wrap;html=1;aspect=fixed;container=0;" vertex="1" parent="ejbl6ZidHsJx3Z7Oj24_-24">
          <mxGeometry width="80" height="80" as="geometry" />
        </mxCell>
        <mxCell id="ejbl6ZidHsJx3Z7Oj24_-26" value="14" style="ellipse;whiteSpace=wrap;html=1;aspect=fixed;" vertex="1" parent="ejbl6ZidHsJx3Z7Oj24_-24">
          <mxGeometry x="30" width="20" height="20" as="geometry" />
        </mxCell>
        <mxCell id="ejbl6ZidHsJx3Z7Oj24_-27" value="" style="group" vertex="1" connectable="0" parent="ejbl6ZidHsJx3Z7Oj24_-82">
          <mxGeometry x="705" width="80" height="80" as="geometry" />
        </mxCell>
        <mxCell id="ejbl6ZidHsJx3Z7Oj24_-28" value="Александр Васильев" style="ellipse;whiteSpace=wrap;html=1;aspect=fixed;container=0;" vertex="1" parent="ejbl6ZidHsJx3Z7Oj24_-27">
          <mxGeometry width="80" height="80" as="geometry" />
        </mxCell>
        <mxCell id="ejbl6ZidHsJx3Z7Oj24_-29" value="15" style="ellipse;whiteSpace=wrap;html=1;aspect=fixed;" vertex="1" parent="ejbl6ZidHsJx3Z7Oj24_-27">
          <mxGeometry x="30" width="20" height="20" as="geometry" />
        </mxCell>
        <mxCell id="ejbl6ZidHsJx3Z7Oj24_-76" value="" style="endArrow=classic;html=1;rounded=0;entryX=1;entryY=1;entryDx=0;entryDy=0;exitX=0.5;exitY=0;exitDx=0;exitDy=0;" edge="1" parent="ejbl6ZidHsJx3Z7Oj24_-82" source="FtOgpI29TEYeepQnkqHV-3" target="7bNnWsoUfAtG4QxwKRyC-11">
          <mxGeometry width="50" height="50" relative="1" as="geometry">
            <mxPoint x="320" y="250" as="sourcePoint" />
            <mxPoint x="370" y="200" as="targetPoint" />
          </mxGeometry>
        </mxCell>
        <mxCell id="ejbl6ZidHsJx3Z7Oj24_-77" value="" style="endArrow=classic;html=1;rounded=0;entryX=0;entryY=1;entryDx=0;entryDy=0;exitX=0.5;exitY=0;exitDx=0;exitDy=0;" edge="1" parent="ejbl6ZidHsJx3Z7Oj24_-82" source="FtOgpI29TEYeepQnkqHV-3" target="ejbl6ZidHsJx3Z7Oj24_-16">
          <mxGeometry width="50" height="50" relative="1" as="geometry">
            <mxPoint x="390" y="250" as="sourcePoint" />
            <mxPoint x="440" y="200" as="targetPoint" />
          </mxGeometry>
        </mxCell>
        <mxCell id="ejbl6ZidHsJx3Z7Oj24_-78" value="" style="endArrow=classic;html=1;rounded=0;entryX=1;entryY=1;entryDx=0;entryDy=0;exitX=0.5;exitY=0;exitDx=0;exitDy=0;" edge="1" parent="ejbl6ZidHsJx3Z7Oj24_-82" source="X_A1_VCxmKLn6ZzU9v5w-3" target="ejbl6ZidHsJx3Z7Oj24_-19">
          <mxGeometry width="50" height="50" relative="1" as="geometry">
            <mxPoint x="400" y="160" as="sourcePoint" />
            <mxPoint x="450" y="110" as="targetPoint" />
          </mxGeometry>
        </mxCell>
        <mxCell id="ejbl6ZidHsJx3Z7Oj24_-79" value="" style="endArrow=classic;html=1;rounded=0;entryX=0;entryY=1;entryDx=0;entryDy=0;exitX=0.5;exitY=0;exitDx=0;exitDy=0;" edge="1" parent="ejbl6ZidHsJx3Z7Oj24_-82" source="X_A1_VCxmKLn6ZzU9v5w-3" target="ejbl6ZidHsJx3Z7Oj24_-22">
          <mxGeometry width="50" height="50" relative="1" as="geometry">
            <mxPoint x="390" y="160" as="sourcePoint" />
            <mxPoint x="440" y="110" as="targetPoint" />
          </mxGeometry>
        </mxCell>
        <mxCell id="ejbl6ZidHsJx3Z7Oj24_-80" value="" style="endArrow=classic;html=1;rounded=0;entryX=0;entryY=1;entryDx=0;entryDy=0;exitX=0.5;exitY=0;exitDx=0;exitDy=0;" edge="1" parent="ejbl6ZidHsJx3Z7Oj24_-82" source="X_A1_VCxmKLn6ZzU9v5w-9" target="ejbl6ZidHsJx3Z7Oj24_-28">
          <mxGeometry width="50" height="50" relative="1" as="geometry">
            <mxPoint x="560" y="160" as="sourcePoint" />
            <mxPoint x="610" y="110" as="targetPoint" />
          </mxGeometry>
        </mxCell>
        <mxCell id="ejbl6ZidHsJx3Z7Oj24_-81" value="" style="endArrow=classic;html=1;rounded=0;entryX=1;entryY=1;entryDx=0;entryDy=0;exitX=0.5;exitY=0;exitDx=0;exitDy=0;" edge="1" parent="ejbl6ZidHsJx3Z7Oj24_-82" source="X_A1_VCxmKLn6ZzU9v5w-9" target="ejbl6ZidHsJx3Z7Oj24_-25">
          <mxGeometry width="50" height="50" relative="1" as="geometry">
            <mxPoint x="560" y="180" as="sourcePoint" />
            <mxPoint x="610" y="130" as="targetPoint" />
          </mxGeometry>
        </mxCell>
        <mxCell id="ejbl6ZidHsJx3Z7Oj24_-99" value="" style="group;movable=0;resizable=0;rotatable=0;deletable=0;editable=0;locked=1;connectable=0;" vertex="1" connectable="0" parent="1">
          <mxGeometry x="20" y="390" width="785" height="160" as="geometry" />
        </mxCell>
        <mxCell id="krce3WKVOcIqdNSDsIi3-13" value="" style="group" vertex="1" connectable="0" parent="ejbl6ZidHsJx3Z7Oj24_-99">
          <mxGeometry x="40" y="100" width="90" height="60" as="geometry" />
        </mxCell>
        <mxCell id="krce3WKVOcIqdNSDsIi3-14" value="&lt;font style=&quot;font-size: 9px;&quot;&gt;Сторис&lt;br&gt;&lt;/font&gt;&lt;div style=&quot;font-size: 9px;&quot;&gt;&lt;font style=&quot;font-size: 9px;&quot;&gt;Борисов&lt;/font&gt;&lt;/div&gt;" style="shape=hexagon;perimeter=hexagonPerimeter2;whiteSpace=wrap;html=1;fixedSize=1;" vertex="1" parent="krce3WKVOcIqdNSDsIi3-13">
          <mxGeometry width="90" height="60" as="geometry" />
        </mxCell>
        <mxCell id="krce3WKVOcIqdNSDsIi3-15" value="&lt;span style=&quot;font-size: 8px;&quot;&gt;12&lt;/span&gt;" style="rounded=0;whiteSpace=wrap;html=1;" vertex="1" parent="krce3WKVOcIqdNSDsIi3-13">
          <mxGeometry x="32.142857142857146" width="25.714285714285715" height="12" as="geometry" />
        </mxCell>
        <mxCell id="krce3WKVOcIqdNSDsIi3-16" value="" style="group" vertex="1" connectable="0" parent="ejbl6ZidHsJx3Z7Oj24_-99">
          <mxGeometry x="348" y="100" width="90" height="60" as="geometry" />
        </mxCell>
        <mxCell id="krce3WKVOcIqdNSDsIi3-17" value="&lt;font style=&quot;font-size: 9px;&quot;&gt;Березка&lt;br&gt;&lt;/font&gt;&lt;div style=&quot;font-size: 9px;&quot;&gt;&lt;font style=&quot;font-size: 9px;&quot;&gt;Брест&lt;/font&gt;&lt;/div&gt;" style="shape=hexagon;perimeter=hexagonPerimeter2;whiteSpace=wrap;html=1;fixedSize=1;" vertex="1" parent="krce3WKVOcIqdNSDsIi3-16">
          <mxGeometry width="90" height="60" as="geometry" />
        </mxCell>
        <mxCell id="krce3WKVOcIqdNSDsIi3-18" value="&lt;font style=&quot;font-size: 8px;&quot;&gt;13&lt;/font&gt;" style="rounded=0;whiteSpace=wrap;html=1;" vertex="1" parent="krce3WKVOcIqdNSDsIi3-16">
          <mxGeometry x="32.142857142857146" width="25.714285714285715" height="12" as="geometry" />
        </mxCell>
        <mxCell id="FtOgpI29TEYeepQnkqHV-4" value="" style="group" vertex="1" connectable="0" parent="ejbl6ZidHsJx3Z7Oj24_-99">
          <mxGeometry x="650" y="90" width="90" height="60" as="geometry" />
        </mxCell>
        <mxCell id="FtOgpI29TEYeepQnkqHV-5" value="&lt;font style=&quot;font-size: 9px;&quot;&gt;Турка&lt;/font&gt;&lt;div style=&quot;font-size: 9px;&quot;&gt;&lt;font style=&quot;font-size: 9px;&quot;&gt;Брест&lt;/font&gt;&lt;/div&gt;" style="shape=hexagon;perimeter=hexagonPerimeter2;whiteSpace=wrap;html=1;fixedSize=1;" vertex="1" parent="FtOgpI29TEYeepQnkqHV-4">
          <mxGeometry width="90" height="60" as="geometry" />
        </mxCell>
        <mxCell id="FtOgpI29TEYeepQnkqHV-6" value="&lt;font style=&quot;font-size: 8px;&quot;&gt;14&lt;/font&gt;" style="rounded=0;whiteSpace=wrap;html=1;" vertex="1" parent="FtOgpI29TEYeepQnkqHV-4">
          <mxGeometry x="32.142857142857146" width="25.714285714285715" height="12" as="geometry" />
        </mxCell>
        <mxCell id="ejbl6ZidHsJx3Z7Oj24_-30" value="" style="group" vertex="1" connectable="0" parent="ejbl6ZidHsJx3Z7Oj24_-99">
          <mxGeometry y="10" width="80" height="80" as="geometry" />
        </mxCell>
        <mxCell id="ejbl6ZidHsJx3Z7Oj24_-31" value="Екатерина Петрова" style="ellipse;whiteSpace=wrap;html=1;aspect=fixed;container=0;" vertex="1" parent="ejbl6ZidHsJx3Z7Oj24_-30">
          <mxGeometry width="80" height="80" as="geometry" />
        </mxCell>
        <mxCell id="ejbl6ZidHsJx3Z7Oj24_-32" value="16" style="ellipse;whiteSpace=wrap;html=1;aspect=fixed;" vertex="1" parent="ejbl6ZidHsJx3Z7Oj24_-30">
          <mxGeometry x="30" width="20" height="20" as="geometry" />
        </mxCell>
        <mxCell id="ejbl6ZidHsJx3Z7Oj24_-33" value="" style="group" vertex="1" connectable="0" parent="ejbl6ZidHsJx3Z7Oj24_-99">
          <mxGeometry x="91" y="10" width="80" height="80" as="geometry" />
        </mxCell>
        <mxCell id="ejbl6ZidHsJx3Z7Oj24_-34" value="Иван Соколов" style="ellipse;whiteSpace=wrap;html=1;aspect=fixed;container=0;" vertex="1" parent="ejbl6ZidHsJx3Z7Oj24_-33">
          <mxGeometry width="80" height="80" as="geometry" />
        </mxCell>
        <mxCell id="ejbl6ZidHsJx3Z7Oj24_-35" value="17" style="ellipse;whiteSpace=wrap;html=1;aspect=fixed;" vertex="1" parent="ejbl6ZidHsJx3Z7Oj24_-33">
          <mxGeometry x="30" width="20" height="20" as="geometry" />
        </mxCell>
        <mxCell id="ejbl6ZidHsJx3Z7Oj24_-36" value="" style="group" vertex="1" connectable="0" parent="ejbl6ZidHsJx3Z7Oj24_-99">
          <mxGeometry x="309" y="10" width="80" height="80" as="geometry" />
        </mxCell>
        <mxCell id="ejbl6ZidHsJx3Z7Oj24_-37" value="Ольга Михайлова" style="ellipse;whiteSpace=wrap;html=1;aspect=fixed;container=0;" vertex="1" parent="ejbl6ZidHsJx3Z7Oj24_-36">
          <mxGeometry width="80" height="80" as="geometry" />
        </mxCell>
        <mxCell id="ejbl6ZidHsJx3Z7Oj24_-38" value="18" style="ellipse;whiteSpace=wrap;html=1;aspect=fixed;" vertex="1" parent="ejbl6ZidHsJx3Z7Oj24_-36">
          <mxGeometry x="30" width="20" height="20" as="geometry" />
        </mxCell>
        <mxCell id="ejbl6ZidHsJx3Z7Oj24_-39" value="" style="group" vertex="1" connectable="0" parent="ejbl6ZidHsJx3Z7Oj24_-99">
          <mxGeometry x="399" y="10" width="80" height="80" as="geometry" />
        </mxCell>
        <mxCell id="ejbl6ZidHsJx3Z7Oj24_-40" value="Сергей Новиков" style="ellipse;whiteSpace=wrap;html=1;aspect=fixed;container=0;" vertex="1" parent="ejbl6ZidHsJx3Z7Oj24_-39">
          <mxGeometry width="80" height="80" as="geometry" />
        </mxCell>
        <mxCell id="ejbl6ZidHsJx3Z7Oj24_-41" value="19" style="ellipse;whiteSpace=wrap;html=1;aspect=fixed;" vertex="1" parent="ejbl6ZidHsJx3Z7Oj24_-39">
          <mxGeometry x="30" width="20" height="20" as="geometry" />
        </mxCell>
        <mxCell id="ejbl6ZidHsJx3Z7Oj24_-42" value="" style="group" vertex="1" connectable="0" parent="ejbl6ZidHsJx3Z7Oj24_-99">
          <mxGeometry x="610" width="80" height="80" as="geometry" />
        </mxCell>
        <mxCell id="ejbl6ZidHsJx3Z7Oj24_-43" value="Елена Морозова" style="ellipse;whiteSpace=wrap;html=1;aspect=fixed;container=0;" vertex="1" parent="ejbl6ZidHsJx3Z7Oj24_-42">
          <mxGeometry width="80" height="80" as="geometry" />
        </mxCell>
        <mxCell id="ejbl6ZidHsJx3Z7Oj24_-44" value="20" style="ellipse;whiteSpace=wrap;html=1;aspect=fixed;" vertex="1" parent="ejbl6ZidHsJx3Z7Oj24_-42">
          <mxGeometry x="30" width="20" height="20" as="geometry" />
        </mxCell>
        <mxCell id="ejbl6ZidHsJx3Z7Oj24_-45" value="" style="group" vertex="1" connectable="0" parent="ejbl6ZidHsJx3Z7Oj24_-99">
          <mxGeometry x="705" width="80" height="80" as="geometry" />
        </mxCell>
        <mxCell id="ejbl6ZidHsJx3Z7Oj24_-46" value="Михаил Иванов" style="ellipse;whiteSpace=wrap;html=1;aspect=fixed;container=0;" vertex="1" parent="ejbl6ZidHsJx3Z7Oj24_-45">
          <mxGeometry width="80" height="80" as="geometry" />
        </mxCell>
        <mxCell id="ejbl6ZidHsJx3Z7Oj24_-47" value="21" style="ellipse;whiteSpace=wrap;html=1;aspect=fixed;" vertex="1" parent="ejbl6ZidHsJx3Z7Oj24_-45">
          <mxGeometry x="30" width="20" height="20" as="geometry" />
        </mxCell>
        <mxCell id="ejbl6ZidHsJx3Z7Oj24_-84" value="" style="endArrow=classic;html=1;rounded=0;exitX=0.5;exitY=0;exitDx=0;exitDy=0;entryX=1;entryY=1;entryDx=0;entryDy=0;" edge="1" parent="ejbl6ZidHsJx3Z7Oj24_-99" source="krce3WKVOcIqdNSDsIi3-15" target="ejbl6ZidHsJx3Z7Oj24_-31">
          <mxGeometry width="50" height="50" relative="1" as="geometry">
            <mxPoint x="160" y="200" as="sourcePoint" />
            <mxPoint x="210" y="150" as="targetPoint" />
          </mxGeometry>
        </mxCell>
        <mxCell id="ejbl6ZidHsJx3Z7Oj24_-85" value="" style="endArrow=classic;html=1;rounded=0;entryX=0;entryY=1;entryDx=0;entryDy=0;exitX=0.5;exitY=0;exitDx=0;exitDy=0;" edge="1" parent="ejbl6ZidHsJx3Z7Oj24_-99" source="krce3WKVOcIqdNSDsIi3-15" target="ejbl6ZidHsJx3Z7Oj24_-34">
          <mxGeometry width="50" height="50" relative="1" as="geometry">
            <mxPoint x="210" y="170" as="sourcePoint" />
            <mxPoint x="260" y="120" as="targetPoint" />
          </mxGeometry>
        </mxCell>
        <mxCell id="ejbl6ZidHsJx3Z7Oj24_-86" value="" style="endArrow=classic;html=1;rounded=0;entryX=1;entryY=1;entryDx=0;entryDy=0;exitX=0.5;exitY=0;exitDx=0;exitDy=0;" edge="1" parent="ejbl6ZidHsJx3Z7Oj24_-99" source="krce3WKVOcIqdNSDsIi3-18" target="ejbl6ZidHsJx3Z7Oj24_-37">
          <mxGeometry width="50" height="50" relative="1" as="geometry">
            <mxPoint x="280" y="160" as="sourcePoint" />
            <mxPoint x="330" y="110" as="targetPoint" />
          </mxGeometry>
        </mxCell>
        <mxCell id="ejbl6ZidHsJx3Z7Oj24_-87" value="" style="endArrow=classic;html=1;rounded=0;entryX=0;entryY=1;entryDx=0;entryDy=0;exitX=0.5;exitY=0;exitDx=0;exitDy=0;" edge="1" parent="ejbl6ZidHsJx3Z7Oj24_-99" source="krce3WKVOcIqdNSDsIi3-18" target="ejbl6ZidHsJx3Z7Oj24_-40">
          <mxGeometry width="50" height="50" relative="1" as="geometry">
            <mxPoint x="270" y="200" as="sourcePoint" />
            <mxPoint x="320" y="150" as="targetPoint" />
          </mxGeometry>
        </mxCell>
        <mxCell id="ejbl6ZidHsJx3Z7Oj24_-88" value="" style="endArrow=classic;html=1;rounded=0;entryX=1;entryY=1;entryDx=0;entryDy=0;exitX=0.5;exitY=0;exitDx=0;exitDy=0;" edge="1" parent="ejbl6ZidHsJx3Z7Oj24_-99" source="FtOgpI29TEYeepQnkqHV-6" target="ejbl6ZidHsJx3Z7Oj24_-43">
          <mxGeometry width="50" height="50" relative="1" as="geometry">
            <mxPoint x="550" y="150" as="sourcePoint" />
            <mxPoint x="600" y="100" as="targetPoint" />
          </mxGeometry>
        </mxCell>
        <mxCell id="ejbl6ZidHsJx3Z7Oj24_-89" value="" style="endArrow=classic;html=1;rounded=0;entryX=0;entryY=1;entryDx=0;entryDy=0;exitX=0.5;exitY=0;exitDx=0;exitDy=0;" edge="1" parent="ejbl6ZidHsJx3Z7Oj24_-99" source="FtOgpI29TEYeepQnkqHV-6" target="ejbl6ZidHsJx3Z7Oj24_-46">
          <mxGeometry width="50" height="50" relative="1" as="geometry">
            <mxPoint x="570" y="180" as="sourcePoint" />
            <mxPoint x="620" y="130" as="targetPoint" />
          </mxGeometry>
        </mxCell>
        <mxCell id="ejbl6ZidHsJx3Z7Oj24_-100" value="" style="group;movable=0;resizable=0;rotatable=0;deletable=0;editable=0;locked=1;connectable=0;" vertex="1" connectable="0" parent="1">
          <mxGeometry x="10" y="585" width="801" height="175" as="geometry" />
        </mxCell>
        <mxCell id="RV8zENQfJOeD5-aD39kv-10" value="" style="group" vertex="1" connectable="0" parent="ejbl6ZidHsJx3Z7Oj24_-100">
          <mxGeometry x="356.5" y="115" width="89" height="60" as="geometry" />
        </mxCell>
        <mxCell id="RV8zENQfJOeD5-aD39kv-11" value="&lt;font style=&quot;font-size: 9px;&quot;&gt;КофеСаунд&lt;/font&gt;&lt;div style=&quot;font-size: 9px;&quot;&gt;&lt;font style=&quot;font-size: 9px;&quot;&gt;Барановичи&lt;/font&gt;&lt;/div&gt;" style="shape=hexagon;perimeter=hexagonPerimeter2;whiteSpace=wrap;html=1;fixedSize=1;" vertex="1" parent="RV8zENQfJOeD5-aD39kv-10">
          <mxGeometry width="89" height="60" as="geometry" />
        </mxCell>
        <mxCell id="RV8zENQfJOeD5-aD39kv-12" value="&lt;font style=&quot;font-size: 8px;&quot;&gt;16&lt;/font&gt;" style="rounded=0;whiteSpace=wrap;html=1;" vertex="1" parent="RV8zENQfJOeD5-aD39kv-10">
          <mxGeometry x="31.785714285714285" width="25.428571428571427" height="12" as="geometry" />
        </mxCell>
        <mxCell id="RV8zENQfJOeD5-aD39kv-13" value="" style="group" vertex="1" connectable="0" parent="ejbl6ZidHsJx3Z7Oj24_-100">
          <mxGeometry x="86" y="115" width="90" height="60" as="geometry" />
        </mxCell>
        <mxCell id="RV8zENQfJOeD5-aD39kv-14" value="&lt;div&gt;&lt;font style=&quot;font-size: 9px;&quot;&gt;&lt;br&gt;&lt;/font&gt;&lt;/div&gt;&lt;font style=&quot;font-size: 9px;&quot;&gt;Воспоминания&lt;br&gt;&lt;/font&gt;&lt;div style=&quot;font-size: 9px;&quot;&gt;&lt;font style=&quot;font-size: 9px;&quot;&gt;Мозырь&lt;/font&gt;&lt;/div&gt;" style="shape=hexagon;perimeter=hexagonPerimeter2;whiteSpace=wrap;html=1;fixedSize=1;" vertex="1" parent="RV8zENQfJOeD5-aD39kv-13">
          <mxGeometry width="90" height="60" as="geometry" />
        </mxCell>
        <mxCell id="RV8zENQfJOeD5-aD39kv-15" value="&lt;font style=&quot;font-size: 8px;&quot;&gt;15&lt;/font&gt;" style="rounded=0;whiteSpace=wrap;html=1;" vertex="1" parent="RV8zENQfJOeD5-aD39kv-13">
          <mxGeometry x="32.142857142857146" width="25.714285714285715" height="12" as="geometry" />
        </mxCell>
        <mxCell id="ejbl6ZidHsJx3Z7Oj24_-1" value="" style="group" vertex="1" connectable="0" parent="ejbl6ZidHsJx3Z7Oj24_-100">
          <mxGeometry x="625" y="115" width="92" height="60" as="geometry" />
        </mxCell>
        <mxCell id="ejbl6ZidHsJx3Z7Oj24_-2" value="&lt;font style=&quot;font-size: 9px;&quot;&gt;Hotfix&lt;/font&gt;&lt;div style=&quot;font-size: 9px;&quot;&gt;&lt;font style=&quot;font-size: 9px;&quot;&gt;Орша&lt;/font&gt;&lt;/div&gt;" style="shape=hexagon;perimeter=hexagonPerimeter2;whiteSpace=wrap;html=1;fixedSize=1;" vertex="1" parent="ejbl6ZidHsJx3Z7Oj24_-1">
          <mxGeometry width="92" height="60" as="geometry" />
        </mxCell>
        <mxCell id="ejbl6ZidHsJx3Z7Oj24_-3" value="&lt;font style=&quot;font-size: 8px;&quot;&gt;17&lt;/font&gt;" style="rounded=0;whiteSpace=wrap;html=1;" vertex="1" parent="ejbl6ZidHsJx3Z7Oj24_-1">
          <mxGeometry x="32.857142857142854" width="26.285714285714285" height="12" as="geometry" />
        </mxCell>
        <mxCell id="ejbl6ZidHsJx3Z7Oj24_-48" value="" style="group" vertex="1" connectable="0" parent="ejbl6ZidHsJx3Z7Oj24_-100">
          <mxGeometry width="80" height="80" as="geometry" />
        </mxCell>
        <mxCell id="ejbl6ZidHsJx3Z7Oj24_-49" value="Екатерина Смирнова" style="ellipse;whiteSpace=wrap;html=1;aspect=fixed;container=0;" vertex="1" parent="ejbl6ZidHsJx3Z7Oj24_-48">
          <mxGeometry width="80" height="80" as="geometry" />
        </mxCell>
        <mxCell id="ejbl6ZidHsJx3Z7Oj24_-50" value="22" style="ellipse;whiteSpace=wrap;html=1;aspect=fixed;" vertex="1" parent="ejbl6ZidHsJx3Z7Oj24_-48">
          <mxGeometry x="30" width="20" height="20" as="geometry" />
        </mxCell>
        <mxCell id="ejbl6ZidHsJx3Z7Oj24_-51" value="" style="group" vertex="1" connectable="0" parent="ejbl6ZidHsJx3Z7Oj24_-100">
          <mxGeometry x="91" width="80" height="80" as="geometry" />
        </mxCell>
        <mxCell id="ejbl6ZidHsJx3Z7Oj24_-52" value="Алексей Кузнецов" style="ellipse;whiteSpace=wrap;html=1;aspect=fixed;container=0;" vertex="1" parent="ejbl6ZidHsJx3Z7Oj24_-51">
          <mxGeometry width="80" height="80" as="geometry" />
        </mxCell>
        <mxCell id="ejbl6ZidHsJx3Z7Oj24_-53" value="23" style="ellipse;whiteSpace=wrap;html=1;aspect=fixed;" vertex="1" parent="ejbl6ZidHsJx3Z7Oj24_-51">
          <mxGeometry x="30" width="20" height="20" as="geometry" />
        </mxCell>
        <mxCell id="ejbl6ZidHsJx3Z7Oj24_-54" value="" style="group" vertex="1" connectable="0" parent="ejbl6ZidHsJx3Z7Oj24_-100">
          <mxGeometry x="181" width="80" height="80" as="geometry" />
        </mxCell>
        <mxCell id="ejbl6ZidHsJx3Z7Oj24_-55" value="Наталья Попова" style="ellipse;whiteSpace=wrap;html=1;aspect=fixed;container=0;" vertex="1" parent="ejbl6ZidHsJx3Z7Oj24_-54">
          <mxGeometry width="80" height="80" as="geometry" />
        </mxCell>
        <mxCell id="ejbl6ZidHsJx3Z7Oj24_-56" value="24" style="ellipse;whiteSpace=wrap;html=1;aspect=fixed;" vertex="1" parent="ejbl6ZidHsJx3Z7Oj24_-54">
          <mxGeometry x="30" width="20" height="20" as="geometry" />
        </mxCell>
        <mxCell id="ejbl6ZidHsJx3Z7Oj24_-57" value="" style="group" vertex="1" connectable="0" parent="ejbl6ZidHsJx3Z7Oj24_-100">
          <mxGeometry x="270" width="80" height="80" as="geometry" />
        </mxCell>
        <mxCell id="ejbl6ZidHsJx3Z7Oj24_-58" value="Иван Васильев" style="ellipse;whiteSpace=wrap;html=1;aspect=fixed;container=0;" vertex="1" parent="ejbl6ZidHsJx3Z7Oj24_-57">
          <mxGeometry width="80" height="80" as="geometry" />
        </mxCell>
        <mxCell id="ejbl6ZidHsJx3Z7Oj24_-59" value="25" style="ellipse;whiteSpace=wrap;html=1;aspect=fixed;" vertex="1" parent="ejbl6ZidHsJx3Z7Oj24_-57">
          <mxGeometry x="30" width="20" height="20" as="geometry" />
        </mxCell>
        <mxCell id="ejbl6ZidHsJx3Z7Oj24_-60" value="" style="group" vertex="1" connectable="0" parent="ejbl6ZidHsJx3Z7Oj24_-100">
          <mxGeometry x="361" width="80" height="80" as="geometry" />
        </mxCell>
        <mxCell id="ejbl6ZidHsJx3Z7Oj24_-61" value="Анна&lt;div&gt;Петрова&lt;/div&gt;" style="ellipse;whiteSpace=wrap;html=1;aspect=fixed;container=0;" vertex="1" parent="ejbl6ZidHsJx3Z7Oj24_-60">
          <mxGeometry width="80" height="80" as="geometry" />
        </mxCell>
        <mxCell id="ejbl6ZidHsJx3Z7Oj24_-62" value="26" style="ellipse;whiteSpace=wrap;html=1;aspect=fixed;" vertex="1" parent="ejbl6ZidHsJx3Z7Oj24_-60">
          <mxGeometry x="30" width="20" height="20" as="geometry" />
        </mxCell>
        <mxCell id="ejbl6ZidHsJx3Z7Oj24_-63" value="" style="group" vertex="1" connectable="0" parent="ejbl6ZidHsJx3Z7Oj24_-100">
          <mxGeometry x="451" width="80" height="80" as="geometry" />
        </mxCell>
        <mxCell id="ejbl6ZidHsJx3Z7Oj24_-64" value="Сергей Соколов" style="ellipse;whiteSpace=wrap;html=1;aspect=fixed;container=0;" vertex="1" parent="ejbl6ZidHsJx3Z7Oj24_-63">
          <mxGeometry width="80" height="80" as="geometry" />
        </mxCell>
        <mxCell id="ejbl6ZidHsJx3Z7Oj24_-65" value="27" style="ellipse;whiteSpace=wrap;html=1;aspect=fixed;" vertex="1" parent="ejbl6ZidHsJx3Z7Oj24_-63">
          <mxGeometry x="30" width="20" height="20" as="geometry" />
        </mxCell>
        <mxCell id="ejbl6ZidHsJx3Z7Oj24_-66" value="" style="group" vertex="1" connectable="0" parent="ejbl6ZidHsJx3Z7Oj24_-100">
          <mxGeometry x="540" width="80" height="80" as="geometry" />
        </mxCell>
        <mxCell id="ejbl6ZidHsJx3Z7Oj24_-67" value="Ольга Михайлова" style="ellipse;whiteSpace=wrap;html=1;aspect=fixed;container=0;" vertex="1" parent="ejbl6ZidHsJx3Z7Oj24_-66">
          <mxGeometry width="80" height="80" as="geometry" />
        </mxCell>
        <mxCell id="ejbl6ZidHsJx3Z7Oj24_-68" value="28" style="ellipse;whiteSpace=wrap;html=1;aspect=fixed;" vertex="1" parent="ejbl6ZidHsJx3Z7Oj24_-66">
          <mxGeometry x="30" width="20" height="20" as="geometry" />
        </mxCell>
        <mxCell id="ejbl6ZidHsJx3Z7Oj24_-69" value="" style="group" vertex="1" connectable="0" parent="ejbl6ZidHsJx3Z7Oj24_-100">
          <mxGeometry x="631" width="80" height="80" as="geometry" />
        </mxCell>
        <mxCell id="ejbl6ZidHsJx3Z7Oj24_-70" value="Дмитрий Новиков" style="ellipse;whiteSpace=wrap;html=1;aspect=fixed;container=0;" vertex="1" parent="ejbl6ZidHsJx3Z7Oj24_-69">
          <mxGeometry width="80" height="80" as="geometry" />
        </mxCell>
        <mxCell id="ejbl6ZidHsJx3Z7Oj24_-71" value="29" style="ellipse;whiteSpace=wrap;html=1;aspect=fixed;" vertex="1" parent="ejbl6ZidHsJx3Z7Oj24_-69">
          <mxGeometry x="30" width="20" height="20" as="geometry" />
        </mxCell>
        <mxCell id="ejbl6ZidHsJx3Z7Oj24_-72" value="" style="group" vertex="1" connectable="0" parent="ejbl6ZidHsJx3Z7Oj24_-100">
          <mxGeometry x="721" width="80" height="80" as="geometry" />
        </mxCell>
        <mxCell id="ejbl6ZidHsJx3Z7Oj24_-73" value="Елена&lt;div&gt;Мороз&lt;/div&gt;" style="ellipse;whiteSpace=wrap;html=1;aspect=fixed;container=0;" vertex="1" parent="ejbl6ZidHsJx3Z7Oj24_-72">
          <mxGeometry width="80" height="80" as="geometry" />
        </mxCell>
        <mxCell id="ejbl6ZidHsJx3Z7Oj24_-74" value="30" style="ellipse;whiteSpace=wrap;html=1;aspect=fixed;" vertex="1" parent="ejbl6ZidHsJx3Z7Oj24_-72">
          <mxGeometry x="30" width="20" height="20" as="geometry" />
        </mxCell>
        <mxCell id="ejbl6ZidHsJx3Z7Oj24_-90" value="" style="endArrow=classic;html=1;rounded=0;entryX=1;entryY=1;entryDx=0;entryDy=0;exitX=0.5;exitY=0;exitDx=0;exitDy=0;" edge="1" parent="ejbl6ZidHsJx3Z7Oj24_-100" source="RV8zENQfJOeD5-aD39kv-15" target="ejbl6ZidHsJx3Z7Oj24_-49">
          <mxGeometry width="50" height="50" relative="1" as="geometry">
            <mxPoint x="250" y="215" as="sourcePoint" />
            <mxPoint x="300" y="165" as="targetPoint" />
          </mxGeometry>
        </mxCell>
        <mxCell id="ejbl6ZidHsJx3Z7Oj24_-91" value="" style="endArrow=classic;html=1;rounded=0;exitX=0.5;exitY=0;exitDx=0;exitDy=0;entryX=0.5;entryY=1;entryDx=0;entryDy=0;" edge="1" parent="ejbl6ZidHsJx3Z7Oj24_-100" source="RV8zENQfJOeD5-aD39kv-14" target="ejbl6ZidHsJx3Z7Oj24_-52">
          <mxGeometry width="50" height="50" relative="1" as="geometry">
            <mxPoint x="200" y="155" as="sourcePoint" />
            <mxPoint x="250" y="105" as="targetPoint" />
          </mxGeometry>
        </mxCell>
        <mxCell id="ejbl6ZidHsJx3Z7Oj24_-92" value="" style="endArrow=classic;html=1;rounded=0;exitX=0.5;exitY=0;exitDx=0;exitDy=0;entryX=0;entryY=1;entryDx=0;entryDy=0;" edge="1" parent="ejbl6ZidHsJx3Z7Oj24_-100" source="RV8zENQfJOeD5-aD39kv-15" target="ejbl6ZidHsJx3Z7Oj24_-55">
          <mxGeometry width="50" height="50" relative="1" as="geometry">
            <mxPoint x="260" y="165" as="sourcePoint" />
            <mxPoint x="310" y="115" as="targetPoint" />
          </mxGeometry>
        </mxCell>
        <mxCell id="ejbl6ZidHsJx3Z7Oj24_-93" value="" style="endArrow=classic;html=1;rounded=0;entryX=1;entryY=1;entryDx=0;entryDy=0;exitX=0.5;exitY=0;exitDx=0;exitDy=0;" edge="1" parent="ejbl6ZidHsJx3Z7Oj24_-100" source="RV8zENQfJOeD5-aD39kv-12" target="ejbl6ZidHsJx3Z7Oj24_-58">
          <mxGeometry width="50" height="50" relative="1" as="geometry">
            <mxPoint x="310" y="165" as="sourcePoint" />
            <mxPoint x="360" y="115" as="targetPoint" />
          </mxGeometry>
        </mxCell>
        <mxCell id="ejbl6ZidHsJx3Z7Oj24_-94" value="" style="endArrow=classic;html=1;rounded=0;entryX=0.5;entryY=1;entryDx=0;entryDy=0;exitX=0.5;exitY=0;exitDx=0;exitDy=0;" edge="1" parent="ejbl6ZidHsJx3Z7Oj24_-100" source="RV8zENQfJOeD5-aD39kv-12" target="ejbl6ZidHsJx3Z7Oj24_-61">
          <mxGeometry width="50" height="50" relative="1" as="geometry">
            <mxPoint x="270" y="165" as="sourcePoint" />
            <mxPoint x="320" y="115" as="targetPoint" />
          </mxGeometry>
        </mxCell>
        <mxCell id="ejbl6ZidHsJx3Z7Oj24_-95" value="" style="endArrow=classic;html=1;rounded=0;exitX=0.5;exitY=0;exitDx=0;exitDy=0;entryX=0;entryY=1;entryDx=0;entryDy=0;" edge="1" parent="ejbl6ZidHsJx3Z7Oj24_-100" source="RV8zENQfJOeD5-aD39kv-11" target="ejbl6ZidHsJx3Z7Oj24_-64">
          <mxGeometry width="50" height="50" relative="1" as="geometry">
            <mxPoint x="510" y="175" as="sourcePoint" />
            <mxPoint x="560" y="125" as="targetPoint" />
          </mxGeometry>
        </mxCell>
        <mxCell id="ejbl6ZidHsJx3Z7Oj24_-96" value="" style="endArrow=classic;html=1;rounded=0;entryX=1;entryY=1;entryDx=0;entryDy=0;exitX=0.5;exitY=0;exitDx=0;exitDy=0;" edge="1" parent="ejbl6ZidHsJx3Z7Oj24_-100" source="ejbl6ZidHsJx3Z7Oj24_-3" target="ejbl6ZidHsJx3Z7Oj24_-67">
          <mxGeometry width="50" height="50" relative="1" as="geometry">
            <mxPoint x="560" y="165" as="sourcePoint" />
            <mxPoint x="610" y="115" as="targetPoint" />
          </mxGeometry>
        </mxCell>
        <mxCell id="ejbl6ZidHsJx3Z7Oj24_-97" value="" style="endArrow=classic;html=1;rounded=0;entryX=0.5;entryY=1;entryDx=0;entryDy=0;exitX=0.5;exitY=0;exitDx=0;exitDy=0;" edge="1" parent="ejbl6ZidHsJx3Z7Oj24_-100" source="ejbl6ZidHsJx3Z7Oj24_-3" target="ejbl6ZidHsJx3Z7Oj24_-70">
          <mxGeometry width="50" height="50" relative="1" as="geometry">
            <mxPoint x="540" y="175" as="sourcePoint" />
            <mxPoint x="590" y="125" as="targetPoint" />
          </mxGeometry>
        </mxCell>
        <mxCell id="ejbl6ZidHsJx3Z7Oj24_-98" value="" style="endArrow=classic;html=1;rounded=0;entryX=0;entryY=1;entryDx=0;entryDy=0;exitX=0.5;exitY=0;exitDx=0;exitDy=0;" edge="1" parent="ejbl6ZidHsJx3Z7Oj24_-100" source="ejbl6ZidHsJx3Z7Oj24_-3" target="ejbl6ZidHsJx3Z7Oj24_-73">
          <mxGeometry width="50" height="50" relative="1" as="geometry">
            <mxPoint x="580" y="165" as="sourcePoint" />
            <mxPoint x="630" y="115" as="targetPoint" />
          </mxGeometry>
        </mxCell>
      </root>
    </mxGraphModel>
  </diagram>
</mxfile>
